<svg width="20" height="20" viewBox="0 0 20 20" fill="none" xmlns="http://www.w3.org/2000/svg">
<g clip-path="url(#clip0_1_3835)">
<path d="M12.1716 10.3125H14.0809C14.2372 11.7166 15.43 12.8125 16.875 12.8125C18.4256 12.8125 19.6875 11.5506 19.6875 10C19.6875 8.44938 18.4256 7.1875 16.875 7.1875C15.43 7.1875 14.2372 8.28344 14.0809 9.6875H12.1716C12.1069 8.97406 11.8244 8.32312 11.39 7.80188L13.4237 5.76813C13.7213 5.87594 14.0406 5.9375 14.375 5.9375C15.9256 5.9375 17.1875 4.67562 17.1875 3.125C17.1875 1.57438 15.9256 0.3125 14.375 0.3125C12.8244 0.3125 11.5625 1.57438 11.5625 3.125C11.5625 4.10656 12.0691 4.97125 12.8334 5.47469L10.9481 7.36C10.3516 6.86281 9.58531 6.5625 8.75 6.5625C8.28813 6.5625 7.84812 6.65531 7.44563 6.82125C7.02406 5.94156 6.27531 5.27031 5.38219 4.93187C6.08938 4.48969 6.5625 3.70625 6.5625 2.8125C6.5625 1.43406 5.44094 0.3125 4.0625 0.3125C2.68406 0.3125 1.5625 1.43406 1.5625 2.8125C1.5625 3.70625 2.03563 4.48969 2.74281 4.93187C1.32531 5.4675 0.3125 6.83469 0.3125 8.4375V11.5625C0.3125 12.2519 0.873125 12.8125 1.5625 12.8125H1.875V18.4375C1.875 19.1269 2.43563 19.6875 3.125 19.6875C3.5 19.6875 3.83312 19.5181 4.0625 19.2556C4.29188 19.5181 4.625 19.6875 5 19.6875C5.68937 19.6875 6.25 19.1269 6.25 18.4375V12.3519C6.8775 13.0184 7.76469 13.4375 8.75 13.4375C9.58531 13.4375 10.3516 13.1372 10.9481 12.64L12.8334 14.5253C12.0691 15.0287 11.5625 15.8934 11.5625 16.875C11.5625 18.4256 12.8244 19.6875 14.375 19.6875C15.9256 19.6875 17.1875 18.4256 17.1875 16.875C17.1875 15.3244 15.9256 14.0625 14.375 14.0625C14.0406 14.0625 13.7213 14.1241 13.4237 14.2316L11.39 12.1978C11.8247 11.6769 12.1069 11.0259 12.1716 10.3125ZM13.0247 4.8425C13.3013 4.36312 13.81 4.0625 14.375 4.0625C14.94 4.0625 15.4487 4.36312 15.7253 4.8425C15.3531 5.13594 14.8847 5.3125 14.375 5.3125C13.8653 5.3125 13.3969 5.13594 13.0247 4.8425ZM13.75 2.8125C13.75 2.46781 14.0303 2.1875 14.375 2.1875C14.7197 2.1875 15 2.46781 15 2.8125C15 3.15719 14.7197 3.4375 14.375 3.4375C14.0303 3.4375 13.75 3.15719 13.75 2.8125ZM14.375 0.9375C15.5813 0.9375 16.5625 1.91875 16.5625 3.125C16.5625 3.59125 16.4147 4.02281 16.1653 4.37813C15.9441 4.05906 15.6481 3.805 15.3019 3.64344C15.5003 3.42219 15.625 3.13281 15.625 2.8125C15.625 2.12312 15.0644 1.5625 14.375 1.5625C13.6856 1.5625 13.125 2.12312 13.125 2.8125C13.125 3.13281 13.2497 3.42219 13.4481 3.64344C13.1019 3.805 12.8059 4.05906 12.5847 4.37813C12.3353 4.02281 12.1875 3.59125 12.1875 3.125C12.1875 1.91875 13.1687 0.9375 14.375 0.9375ZM13.0247 18.5925C13.3013 18.1131 13.81 17.8125 14.375 17.8125C14.94 17.8125 15.4487 18.1131 15.7253 18.5925C15.3531 18.8859 14.8847 19.0625 14.375 19.0625C13.8653 19.0625 13.3969 18.8859 13.0247 18.5925ZM13.75 16.5625C13.75 16.2178 14.0303 15.9375 14.375 15.9375C14.7197 15.9375 15 16.2178 15 16.5625C15 16.9072 14.7197 17.1875 14.375 17.1875C14.0303 17.1875 13.75 16.9072 13.75 16.5625ZM16.5625 16.875C16.5625 17.3412 16.4147 17.7728 16.1653 18.1281C15.9441 17.8091 15.6481 17.555 15.3019 17.3934C15.5003 17.1722 15.625 16.8828 15.625 16.5625C15.625 15.8731 15.0644 15.3125 14.375 15.3125C13.6856 15.3125 13.125 15.8731 13.125 16.5625C13.125 16.8828 13.2497 17.1722 13.4481 17.3934C13.1019 17.555 12.8059 17.8091 12.5847 18.1281C12.3353 17.7728 12.1875 17.3412 12.1875 16.875C12.1875 15.6687 13.1687 14.6875 14.375 14.6875C15.5813 14.6875 16.5625 15.6687 16.5625 16.875ZM15.5247 11.7175C15.8013 11.2381 16.31 10.9375 16.875 10.9375C17.44 10.9375 17.9487 11.2381 18.2253 11.7175C17.8531 12.0109 17.3847 12.1875 16.875 12.1875C16.3653 12.1875 15.8969 12.0109 15.5247 11.7175ZM16.25 9.6875C16.25 9.34281 16.5303 9.0625 16.875 9.0625C17.2197 9.0625 17.5 9.34281 17.5 9.6875C17.5 10.0322 17.2197 10.3125 16.875 10.3125C16.5303 10.3125 16.25 10.0322 16.25 9.6875ZM16.875 7.8125C18.0812 7.8125 19.0625 8.79375 19.0625 10C19.0625 10.4663 18.9147 10.8978 18.6653 11.2531C18.4441 10.9341 18.1481 10.68 17.8019 10.5184C18.0003 10.2972 18.125 10.0078 18.125 9.6875C18.125 8.99813 17.5644 8.4375 16.875 8.4375C16.1856 8.4375 15.625 8.99813 15.625 9.6875C15.625 10.0078 15.7497 10.2972 15.9481 10.5184C15.6019 10.68 15.3059 10.9341 15.0847 11.2531C14.8353 10.8978 14.6875 10.4663 14.6875 10C14.6875 8.79375 15.6687 7.8125 16.875 7.8125ZM2.99594 5.50406C3.11562 5.46031 3.23813 5.42312 3.36406 5.39406L3.27906 6.58469C3.15687 6.23187 3.06187 5.87031 2.99594 5.50406ZM3.99625 5.31594C4.01844 5.31531 4.04 5.3125 4.0625 5.3125C4.08469 5.3125 4.10656 5.31469 4.12875 5.315L4.30531 7.78813C4.22813 7.92344 4.14812 8.05688 4.06219 8.18656C3.97656 8.05594 3.89656 7.92156 3.81938 7.78562L3.99625 5.31594ZM4.84719 6.59844L4.76094 5.39312C4.88937 5.42281 5.01469 5.46219 5.1375 5.5075C5.06969 5.8775 4.97219 6.2425 4.84719 6.59844ZM2.1875 2.8125C2.1875 1.77844 3.02844 0.9375 4.0625 0.9375C5.09656 0.9375 5.9375 1.77844 5.9375 2.8125C5.9375 3.84656 5.09656 4.6875 4.0625 4.6875C3.02844 4.6875 2.1875 3.84656 2.1875 2.8125ZM5.625 18.4375C5.625 18.7822 5.34469 19.0625 5 19.0625C4.65531 19.0625 4.375 18.7822 4.375 18.4375V12.8125V12.5759C4.375 12.4091 4.44 12.2519 4.55813 12.1337L4.90844 11.7834L4.46656 11.3416L4.11625 11.6919C3.88 11.9278 3.75 12.2419 3.75 12.5759V12.8125V18.4375C3.75 18.7822 3.46969 19.0625 3.125 19.0625C2.78031 19.0625 2.5 18.7822 2.5 18.4375V6.875H1.875V12.1875H1.5625C1.21781 12.1875 0.9375 11.9072 0.9375 11.5625V8.4375C0.9375 7.32062 1.52844 6.34156 2.41188 5.78875C2.61375 6.77875 3.00937 7.73375 3.56906 8.57344L4.0625 9.31344L4.56812 8.55531C5.12313 7.7225 5.51719 6.77563 5.72062 5.79406C6.22187 6.10875 6.63437 6.56188 6.89281 7.11219C6.65687 7.26438 6.44187 7.44469 6.25031 7.64813V6.875H5.62531V8.57625C5.42656 9.01062 5.31281 9.49187 5.31281 10C5.31281 10.5081 5.42656 10.9894 5.62531 11.4237V18.4375H5.625ZM8.75 12.8125C7.19938 12.8125 5.9375 11.5506 5.9375 10C5.9375 8.44938 7.19938 7.1875 8.75 7.1875C10.3006 7.1875 11.5625 8.44938 11.5625 10C11.5625 11.5506 10.3006 12.8125 8.75 12.8125Z" fill="white"/>
<path d="M9.0625 9.0625C9.23469 9.0625 9.375 9.20281 9.375 9.375H10C10 8.85812 9.57938 8.4375 9.0625 8.4375V7.8125H8.4375V8.4375H7.5V9.375C7.5 9.89188 7.92062 10.3125 8.4375 10.3125H9.0625C9.23469 10.3125 9.375 10.4528 9.375 10.625V10.9375H8.4375C8.26531 10.9375 8.125 10.7972 8.125 10.625H7.5C7.5 11.1419 7.92062 11.5625 8.4375 11.5625V12.1875H9.0625V11.5625H10V10.625C10 10.1081 9.57938 9.6875 9.0625 9.6875H8.4375C8.26531 9.6875 8.125 9.54719 8.125 9.375V9.0625H9.0625Z" fill="white"/>
</g>
<defs>
<clipPath id="clip0_1_3835">
<rect width="20" height="20" fill="white"/>
</clipPath>
</defs>
</svg>
