<svg width="20" height="20" viewBox="0 0 20 20" fill="none" xmlns="http://www.w3.org/2000/svg">
<g clip-path="url(#clip0_1_3803)">
<path d="M18.2192 17.6385V16.4103C18.8829 16.2741 19.3835 15.6855 19.3835 14.9821C19.3835 14.1783 18.7295 13.5242 17.9256 13.5242C17.1217 13.5242 16.4678 14.1783 16.4678 14.9821C16.4678 15.6855 16.9684 16.2741 17.6321 16.4103V17.6385H15.8802V1.77441H7.66043V4.28189L4.13894 6.90459V17.6385H2.35487V16.4103C3.01855 16.2741 3.51922 15.6855 3.51922 14.9821C3.51922 14.1783 2.86521 13.5242 2.06133 13.5242C1.25746 13.5242 0.603444 14.1783 0.603444 14.9821C0.603444 15.6855 1.10411 16.2741 1.76779 16.4103V17.6385H0V18.2256H20V17.6385H18.2192ZM17.0549 14.9821C17.0549 14.5019 17.4455 14.1113 17.9257 14.1113C18.4059 14.1113 18.7965 14.5019 18.7965 14.9821C18.7965 15.4623 18.4059 15.8529 17.9257 15.8529C17.4455 15.8529 17.0549 15.4623 17.0549 14.9821ZM1.19053 14.9821C1.19053 14.5019 1.58114 14.1113 2.06133 14.1113C2.54153 14.1113 2.93213 14.5019 2.93213 14.9821C2.93213 15.4623 2.54149 15.8529 2.06133 15.8529C1.58117 15.8529 1.19053 15.4623 1.19053 14.9821ZM4.72603 7.65864H7.04501V7.07156H4.89765L7.66043 5.01394V15.2705H8.24751V4.42929V3.84463V2.3615H15.2931V4.13575H8.80626V4.72283H15.2931V17.6385H14.6766V14.7029H8.82477V17.6385H8.24751V17.0317H7.66043V17.6385H4.72603V7.65864ZM14.0896 17.6385H9.41186V15.29H14.0896V17.6385Z" fill="white"/>
<path d="M7.66016 15.8574H8.24724V16.4445H7.66016V15.8574Z" fill="white"/>
<path d="M5.30273 8.24609V10.0072H7.06387V8.24609H5.30273ZM6.47678 9.42014H5.88982V8.83318H6.47678V9.42014Z" fill="white"/>
<path d="M5.30273 12.3554H7.06387V10.5942H5.30273V12.3554ZM5.88982 11.1813H6.47678V11.7683H5.88982V11.1813Z" fill="white"/>
<path d="M5.30273 14.7035H7.06387V12.9424H5.30273V14.7035ZM5.88982 13.5295H6.47678V14.1164H5.88982V13.5295Z" fill="white"/>
<path d="M5.30273 17.0522H7.06387V15.291H5.30273V17.0522ZM5.88982 15.8781H6.47678V16.4651H5.88982V15.8781Z" fill="white"/>
<path d="M9.98085 6.45861H9.41228V5.89763H14.09V6.45861H10.5679V7.04569H14.6771V5.31055H8.8252V7.04569H9.98085V6.45861Z" fill="white"/>
<path d="M14.6771 7.67188H13.5034V8.25896H14.09V8.81989H9.41228V8.25896H12.9449V7.67188H8.8252V9.40697H14.6771V7.67188Z" fill="white"/>
<path d="M14.6771 9.99463H10.5679V10.5817H14.09V11.1818H9.41228V10.5817H9.98085V9.99463H8.8252V11.7689H14.6771V9.99463Z" fill="white"/>
<path d="M14.6771 12.3564H13.5034V12.9435H14.09V13.5436H9.41228V12.9435H12.9163V12.3564H8.8252V14.1307H14.6771V12.3564Z" fill="white"/>
<path d="M10.3027 2.93555H10.8898V3.52263H10.3027V2.93555Z" fill="white"/>
<path d="M11.4766 2.93555H12.0636V3.52263H11.4766V2.93555Z" fill="white"/>
<path d="M12.6514 2.93555H13.2384V3.52263H12.6514V2.93555Z" fill="white"/>
</g>
<defs>
<clipPath id="clip0_1_3803">
<rect width="20" height="20" fill="white"/>
</clipPath>
</defs>
</svg>
