<svg width="20" height="20" viewBox="0 0 20 20" fill="none" xmlns="http://www.w3.org/2000/svg">
<g clip-path="url(#clip0_1_3865)">
<path d="M0.292969 14.6028C0.454712 14.6028 0.585938 14.4717 0.585938 14.3098V5.77698H17.8957V8.99734C17.8957 9.15924 18.0269 9.29031 18.1886 9.29031C18.3505 9.29031 18.4816 9.15924 18.4816 8.99734V3.2074C18.4816 2.22519 17.6825 1.42609 16.7004 1.42609H15.9322V1.06323C15.9322 0.670776 15.6129 0.351562 15.2205 0.351562H14.6762C14.2839 0.351562 13.9647 0.670776 13.9647 1.06323V1.42609H12.0216V1.06323C12.0216 0.670776 11.7024 0.351562 11.31 0.351562H10.7657C10.3734 0.351562 10.0542 0.670776 10.0542 1.06323V1.42609H8.11096V1.06323C8.11096 0.670776 7.79175 0.351562 7.39929 0.351562H6.85516C6.46271 0.351562 6.14349 0.670776 6.14349 1.06323V1.42609H4.20044V1.06323C4.20044 0.670776 3.88123 0.351562 3.48877 0.351562H2.94464C2.55219 0.351562 2.23297 0.670776 2.23297 1.06323V1.42609H1.78131C0.799103 1.42609 0 2.22519 0 3.2074V14.3098C0 14.4717 0.131226 14.6028 0.292969 14.6028ZM14.5506 1.06323C14.5506 0.993958 14.6071 0.9375 14.6764 0.9375H15.2206C15.2899 0.9375 15.3462 0.993958 15.3462 1.06323V2.48657C15.3462 2.55585 15.2899 2.6123 15.2206 2.6123H14.6764C14.6071 2.6123 14.5506 2.556 14.5506 2.48657V1.06323ZM10.6401 1.06323C10.6401 0.993958 10.6964 0.9375 10.7657 0.9375H11.31C11.3792 0.9375 11.4357 0.993958 11.4357 1.06323V2.48657C11.4357 2.55585 11.3792 2.6123 11.31 2.6123H10.7657C10.6964 2.6123 10.6401 2.556 10.6401 2.48657V1.06323ZM6.72943 1.06323C6.72943 0.993958 6.78589 0.9375 6.85516 0.9375H7.39944C7.46872 0.9375 7.52518 0.993958 7.52518 1.06323V2.48657C7.52518 2.55585 7.46872 2.6123 7.39944 2.6123H6.85516C6.78589 2.6123 6.72943 2.556 6.72943 2.48657V1.06323ZM2.81891 1.06323C2.81891 0.993958 2.87537 0.9375 2.94464 0.9375H3.48892C3.5582 0.9375 3.6145 0.993958 3.6145 1.06323V2.48657C3.6145 2.55585 3.5582 2.6123 3.48892 2.6123H2.94464C2.87537 2.6123 2.81891 2.556 2.81891 2.48657V1.06323ZM1.78131 2.01202H2.23297V2.48657C2.23297 2.87903 2.55219 3.19824 2.94464 3.19824H3.48892C3.88123 3.19824 4.20044 2.87903 4.20044 2.48657V2.01202H6.14365V2.48657C6.14365 2.87903 6.46286 3.19824 6.85516 3.19824H7.39944C7.7919 3.19824 8.11111 2.87903 8.11111 2.48657V2.01202H10.0542V2.48657C10.0542 2.87903 10.3734 3.19824 10.7658 3.19824H11.3101C11.7024 3.19824 12.0216 2.87903 12.0216 2.48657V2.01202H13.9647V2.48657C13.9647 2.87903 14.2839 3.19824 14.6764 3.19824H15.2206C15.6129 3.19824 15.9322 2.87903 15.9322 2.48657V2.01202H16.7004C17.3596 2.01202 17.8958 2.54822 17.8958 3.2074V5.19104H0.585938V3.2074C0.585938 2.54822 1.12213 2.01202 1.78131 2.01202Z" fill="white"/>
<path d="M3.3168 17.3275H0.762177C0.664978 17.3275 0.585938 17.2484 0.585938 17.1512V15.645C0.585938 15.4831 0.454712 15.3521 0.292969 15.3521C0.131226 15.3521 0 15.4831 0 15.645V17.1512C0 17.5714 0.341949 17.9134 0.762177 17.9134H3.3168C3.47855 17.9134 3.60977 17.7822 3.60977 17.6204C3.60977 17.4585 3.47855 17.3275 3.3168 17.3275Z" fill="white"/>
<path d="M3.30743 6.63135H2.28906C2.12732 6.63135 1.99609 6.76257 1.99609 6.92432C1.99609 7.08621 2.12732 7.21729 2.28906 7.21729H3.30743C3.46918 7.21729 3.6004 7.08621 3.6004 6.92432C3.6004 6.76257 3.46918 6.63135 3.30743 6.63135Z" fill="white"/>
<path d="M5.41797 7.21729H6.43634C6.59808 7.21729 6.72931 7.08621 6.72931 6.92432C6.72931 6.76257 6.59808 6.63135 6.43634 6.63135H5.41797C5.25623 6.63135 5.125 6.76257 5.125 6.92432C5.125 7.08621 5.25623 7.21729 5.41797 7.21729Z" fill="white"/>
<path d="M8.54785 7.21729H9.56607C9.72781 7.21729 9.85904 7.08621 9.85904 6.92432C9.85904 6.76257 9.72781 6.63135 9.56607 6.63135H8.54785C8.38596 6.63135 8.25488 6.76257 8.25488 6.92432C8.25488 7.08621 8.38596 7.21729 8.54785 7.21729Z" fill="white"/>
<path d="M11.6777 7.21729H12.6961C12.8578 7.21729 12.9891 7.08621 12.9891 6.92432C12.9891 6.76257 12.8578 6.63135 12.6961 6.63135H11.6777C11.516 6.63135 11.3848 6.76257 11.3848 6.92432C11.3848 7.08621 11.516 7.21729 11.6777 7.21729Z" fill="white"/>
<path d="M15.8249 6.63135H14.8066C14.6447 6.63135 14.5137 6.76257 14.5137 6.92432C14.5137 7.08621 14.6447 7.21729 14.8066 7.21729H15.8249C15.9866 7.21729 16.1178 7.08621 16.1178 6.92432C16.1178 6.76257 15.9866 6.63135 15.8249 6.63135Z" fill="white"/>
<path d="M3.30743 8.10449H2.28906C2.12732 8.10449 1.99609 8.23557 1.99609 8.39746C1.99609 8.55936 2.12732 8.69043 2.28906 8.69043H3.30743C3.46918 8.69043 3.6004 8.55936 3.6004 8.39746C3.6004 8.23557 3.46918 8.10449 3.30743 8.10449Z" fill="white"/>
<path d="M5.41797 8.69043H6.43634C6.59808 8.69043 6.72931 8.55936 6.72931 8.39746C6.72931 8.23557 6.59808 8.10449 6.43634 8.10449H5.41797C5.25623 8.10449 5.125 8.23557 5.125 8.39746C5.125 8.55936 5.25623 8.69043 5.41797 8.69043Z" fill="white"/>
<path d="M8.54785 8.69043H9.56607C9.72781 8.69043 9.85904 8.55936 9.85904 8.39746C9.85904 8.23557 9.72781 8.10449 9.56607 8.10449H8.54785C8.38596 8.10449 8.25488 8.23557 8.25488 8.39746C8.25488 8.55936 8.38596 8.69043 8.54785 8.69043Z" fill="white"/>
<path d="M11.6777 8.69043H12.6961C12.8578 8.69043 12.9891 8.55936 12.9891 8.39746C12.9891 8.23557 12.8578 8.10449 12.6961 8.10449H11.6777C11.516 8.10449 11.3848 8.23557 11.3848 8.39746C11.3848 8.55936 11.516 8.69043 11.6777 8.69043Z" fill="white"/>
<path d="M15.8249 8.10449H14.8066C14.6447 8.10449 14.5137 8.23557 14.5137 8.39746C14.5137 8.55936 14.6447 8.69043 14.8066 8.69043H15.8249C15.9866 8.69043 16.1178 8.55936 16.1178 8.39746C16.1178 8.23557 15.9866 8.10449 15.8249 8.10449Z" fill="white"/>
<path d="M5.42528 14.4419L6.93163 15.9482C7.14952 16.1661 7.43914 16.286 7.74736 16.286C8.05559 16.286 8.34536 16.1661 8.5631 15.9482L12.6883 11.823C13.1381 11.3732 13.1381 10.6412 12.6883 10.1914C12.2385 9.74155 11.5065 9.74155 11.0567 10.1914L7.74736 13.5007L7.05675 12.8102C6.60707 12.3604 5.87511 12.3604 5.42513 12.8102C4.97545 13.2601 4.97545 13.992 5.42528 14.4419ZM5.83956 13.2245C5.95018 13.1139 6.0956 13.0585 6.24102 13.0585C6.38643 13.0585 6.53185 13.1139 6.64248 13.2245L7.54015 14.1222C7.65459 14.2366 7.83998 14.2366 7.95443 14.1222L11.471 10.6058C11.6925 10.3844 12.0526 10.3844 12.2739 10.6057C12.4953 10.8271 12.4953 11.1873 12.2739 11.4087L8.14882 15.5338C8.04155 15.6411 7.89904 15.7001 7.74736 15.7001C7.59569 15.7001 7.45317 15.6411 7.34591 15.5338L5.83956 14.0274C5.61815 13.806 5.61815 13.4459 5.83956 13.2245Z" fill="white"/>
<path d="M18.4812 12.6703V10.3325C18.4812 10.1706 18.3501 10.0396 18.1882 10.0396C18.0265 10.0396 17.8952 10.1706 17.8952 10.3325V12.2966C17.361 12.0197 16.7548 11.863 16.1127 11.863C13.9695 11.863 12.2258 13.6066 12.2258 15.7498C12.2258 16.3112 12.3456 16.845 12.5606 17.3275H4.65137C4.48962 17.3275 4.3584 17.4585 4.3584 17.6204C4.3584 17.7822 4.48962 17.9134 4.65137 17.9134H12.8852C13.5836 18.9521 14.7696 19.6367 16.1127 19.6367C18.256 19.6367 19.9996 17.8931 19.9996 15.7498C19.9996 14.4974 19.4039 13.3815 18.4812 12.6703ZM16.1127 19.0508C14.2925 19.0508 12.8118 17.5701 12.8118 15.7498C12.8118 13.9296 14.2926 12.4489 16.1127 12.4489C17.9328 12.4489 19.4136 13.9296 19.4136 15.7498C19.4136 17.5701 17.9328 19.0508 16.1127 19.0508Z" fill="white"/>
<path d="M16.113 12.8721C14.5262 12.8721 13.2354 14.1631 13.2354 15.7497C13.2354 17.3365 14.5262 18.6274 16.113 18.6274C17.6998 18.6274 18.9905 17.3365 18.9905 15.7497C18.9905 14.1631 17.6996 12.8721 16.113 12.8721ZM16.3753 18.0259C16.3947 17.9867 16.406 17.9427 16.406 17.896V17.5391C16.406 17.3774 16.2747 17.2462 16.113 17.2462C15.9513 17.2462 15.82 17.3774 15.82 17.5391V17.896C15.82 17.9427 15.8312 17.9867 15.8507 18.0259C14.7963 17.9052 13.9576 17.0664 13.8369 16.012C13.8759 16.0316 13.92 16.0427 13.9667 16.0427H14.3235C14.4854 16.0427 14.6164 15.9116 14.6164 15.7497C14.6164 15.5878 14.4854 15.4568 14.3235 15.4568H13.9667C13.92 15.4568 13.8759 15.468 13.8369 15.4874C13.9576 14.433 14.7963 13.5943 15.8507 13.4736C15.8312 13.5128 15.82 13.5567 15.82 13.6034V13.9603C15.82 14.1222 15.9513 14.2533 16.113 14.2533C16.2747 14.2533 16.406 14.1222 16.406 13.9603V13.6034C16.406 13.5567 16.3947 13.5128 16.3753 13.4736C17.4297 13.5943 18.2685 14.433 18.3892 15.4874C18.3499 15.468 18.306 15.4568 18.2593 15.4568H17.9024C17.7407 15.4568 17.6094 15.5878 17.6094 15.7497C17.6094 15.9116 17.7407 16.0427 17.9024 16.0427H18.2593C18.306 16.0427 18.3499 16.0316 18.3892 16.012C18.2683 17.0664 17.4297 17.9052 16.3753 18.0259Z" fill="white"/>
<path d="M16.759 15.4567H16.4062V15.1562C16.4062 14.9945 16.275 14.8633 16.1133 14.8633C15.9514 14.8633 15.8203 14.9945 15.8203 15.1562V15.7497C15.8203 15.9116 15.9514 16.0426 16.1133 16.0426H16.759C16.9208 16.0426 17.052 15.9116 17.052 15.7497C17.052 15.5878 16.9208 15.4567 16.759 15.4567Z" fill="white"/>
</g>
<defs>
<clipPath id="clip0_1_3865">
<rect width="20" height="20" fill="white"/>
</clipPath>
</defs>
</svg>
