<svg width="65" height="65" viewBox="0 0 65 65" fill="none" xmlns="http://www.w3.org/2000/svg">
<g clip-path="url(#clip0_1_2432)">
<path d="M62.2896 9.74935H60.1231V1.08326C60.1231 0.48503 59.6381 0 59.0399 0H52.5403C51.9421 0 51.457 0.48503 51.457 1.08326V54.1631C51.4658 54.2786 51.4847 54.3931 51.5134 54.5054L54.7631 64.2547C54.95 64.823 55.5622 65.1324 56.1305 64.9456C56.4575 64.8381 56.7138 64.5817 56.8213 64.2547L60.0711 54.5054C60.0983 54.393 60.1157 54.2784 60.1231 54.1631V11.9159H61.2064V28.1648C61.2064 28.763 61.6914 29.2481 62.2896 29.2481C62.8879 29.2481 63.3729 28.763 63.3729 28.1648V10.8326C63.3729 10.2344 62.8879 9.74935 62.2896 9.74935ZM55.7901 60.4871L54.0439 55.2463H57.5363L55.7901 60.4871ZM57.9566 53.0798H53.6236V11.9159H57.9566V53.0798ZM57.9566 9.74935H53.6236V2.16652H57.9566V9.74935Z" fill="#2A7D03"/>
<path d="M47.1109 14.0163C47.1047 13.9203 47.0857 13.8257 47.0546 13.7347C47.0427 13.7 47.034 13.6675 47.0188 13.6339C46.9662 13.5161 46.8928 13.4086 46.8022 13.3165L33.8031 0.317396C33.7118 0.226402 33.6045 0.153011 33.4867 0.100743C33.4521 0.0844944 33.4174 0.0758283 33.3784 0.0628291C33.2901 0.0329041 33.1985 0.0147594 33.1054 0.00866609C33.0881 0.0129991 33.0664 0 33.0415 0H2.71021C2.11198 0 1.62695 0.48503 1.62695 1.08326V63.9124C1.62695 64.5106 2.11198 64.9957 2.71021 64.9957H46.0407C46.6389 64.9957 47.1239 64.5106 47.1239 63.9124V14.0824C47.1239 14.0596 47.112 14.0391 47.1109 14.0163ZM34.1248 3.69825L43.4257 12.9991H34.1248V3.69825ZM44.9574 62.8291H3.79348V2.16652H31.9583V14.0824C31.9583 14.6806 32.4433 15.1657 33.0415 15.1657H44.9574V62.8291Z" fill="#2A7D03"/>
<path d="M39.5415 21.665H9.18092C8.58269 21.665 8.09766 22.1501 8.09766 22.7483C8.09766 23.3465 8.58269 23.8316 9.18092 23.8316H39.5415C40.1397 23.8316 40.6247 23.3465 40.6247 22.7483C40.6247 22.1501 40.1397 21.665 39.5415 21.665Z" fill="#2A7D03"/>
<path d="M39.5415 28.1646H9.18092C8.58269 28.1646 8.09766 28.6496 8.09766 29.2478C8.09766 29.846 8.58269 30.3311 9.18092 30.3311H39.5415C40.1397 30.3311 40.6247 29.846 40.6247 29.2478C40.6247 28.6496 40.1397 28.1646 39.5415 28.1646Z" fill="#2A7D03"/>
<path d="M39.5415 34.6646H9.18092C8.58269 34.6646 8.09766 35.1496 8.09766 35.7478C8.09766 36.346 8.58269 36.8311 9.18092 36.8311H39.5415C40.1397 36.8311 40.6247 36.346 40.6247 35.7478C40.6247 35.1496 40.1397 34.6646 39.5415 34.6646Z" fill="#2A7D03"/>
<path d="M39.5415 41.1641H9.18092C8.58269 41.1641 8.09766 41.6491 8.09766 42.2473C8.09766 42.8456 8.58269 43.3306 9.18092 43.3306H39.5415C40.1397 43.3306 40.6247 42.8456 40.6247 42.2473C40.6247 41.6491 40.1397 41.1641 39.5415 41.1641Z" fill="#2A7D03"/>
</g>
<defs>
<clipPath id="clip0_1_2432">
<rect width="65" height="65" fill="white"/>
</clipPath>
</defs>
</svg>
