<svg width="65" height="65" viewBox="0 0 65 65" fill="none" xmlns="http://www.w3.org/2000/svg">
<g clip-path="url(#clip0_1_2500)">
<path d="M64.8804 15.4134C64.6567 14.5815 64.1109 13.8722 63.3641 13.4422C62.6168 13.0101 61.7283 12.8933 60.8947 13.117C60.0623 13.3412 59.3531 13.8865 58.9231 14.6333L58.3815 15.5758C57.8669 15.2801 57.2095 15.4541 56.9086 15.9661L54.1573 20.6557L53.2149 20.1141C52.9652 19.9697 52.668 19.9306 52.3898 20.0057C52.1111 20.0813 51.8742 20.2643 51.7308 20.515C51.4373 21.0327 51.6161 21.6907 52.1317 21.9879L53.0742 22.5295L43.8674 38.4842L41.5927 44.5611L40.5096 46.5862C39.8754 47.6894 39.9431 49.0608 40.683 50.0958L38.2459 53.0851L37.5637 51.3741C37.2559 50.6115 36.5435 50.089 35.7242 50.025C34.9045 49.9604 34.1191 50.3656 33.6965 51.0706L33.3067 51.7311L32.9386 47.3985C32.854 46.3736 32.0601 45.5496 31.0394 45.4258C30.0181 45.3026 29.0513 45.9145 28.725 46.8898L26.0605 54.8833C25.8744 55.4486 26.179 56.0579 26.7428 56.2483C26.8486 56.2975 26.9623 56.3271 27.0786 56.3345C27.544 56.3361 27.9587 56.0394 28.1078 55.5983L30.7612 47.6048L31.1404 52.0019C31.2187 52.9402 31.893 53.7202 32.8101 53.9329C33.7272 54.1455 34.676 53.7414 35.1589 52.9338L35.5598 52.2727L36.2314 53.9736C36.5165 54.6902 37.1612 55.2016 37.9244 55.3154C38.6876 55.4291 39.4534 55.1281 39.9357 54.5257L42.4595 51.3308C42.7388 51.4038 43.0265 51.4402 43.3153 51.4392C44.4762 51.4482 45.554 50.8368 46.1421 49.8356L47.2253 48.0268L51.3521 43.012L60.6562 26.8621L61.5987 27.4037C61.8499 27.5475 62.0329 27.785 62.1075 28.0648C62.1826 28.3424 62.1434 28.6386 61.9996 28.8877L57.667 36.3941C57.5036 36.6406 57.448 36.9431 57.5136 37.2319C57.5792 37.5201 57.7595 37.7692 58.0134 37.921C58.263 38.0659 58.5603 38.105 58.8385 38.0299C59.1172 37.9543 59.3541 37.7713 59.4974 37.5206L63.83 30.0142C64.2621 29.2669 64.379 28.3784 64.1548 27.5449C63.9305 26.7124 63.3853 26.0032 62.6385 25.5732L61.696 25.0316L64.4039 20.3415C64.6995 19.8269 64.5255 19.17 64.0141 18.8686L64.5557 17.9261C64.9994 17.1672 65.1168 16.2607 64.8804 15.4134ZM60.7969 15.7164C60.9402 15.4657 61.1782 15.2822 61.458 15.2077C61.7362 15.1389 62.0303 15.1775 62.2809 15.3161C62.5322 15.4594 62.7152 15.6974 62.7903 15.9766C62.859 16.2548 62.8204 16.5489 62.6818 16.7996L62.1403 17.7421L60.2553 16.6589L60.7969 15.7164ZM46.0337 45.9584L45.4921 45.6442L43.8891 44.7123L45.4271 40.5966L48.8389 42.5677L46.0337 45.9584ZM42.7843 49.0883C42.3268 48.7694 42.1861 48.1559 42.4595 47.6693L43.0011 46.7274L44.8855 47.8105L44.3439 48.7419C44.1922 49.0053 43.9372 49.1925 43.6405 49.2586C43.3438 49.3242 43.0334 49.2628 42.7843 49.0883ZM50.0738 40.7918L46.3262 38.6255L54.9914 23.6126L58.739 25.7789L50.0738 40.7918ZM59.8222 23.9051L56.0745 21.7388L58.2408 17.9912L61.9885 20.1575L59.8222 23.9051Z" fill="#2A7D03"/>
<path d="M17.0914 48.5466L13.2576 52.3704L10.9612 50.074C10.5386 49.654 9.85636 49.654 9.43378 50.074C9.22858 50.2776 9.11328 50.5542 9.11328 50.843C9.11328 51.1317 9.22858 51.4089 9.43378 51.612L11.7302 53.9084C12.1364 54.3114 12.6853 54.5372 13.2576 54.5367C13.833 54.5398 14.3868 54.314 14.7956 53.9084L18.6189 50.074C18.987 49.644 18.9621 49.0035 18.5623 48.6037C18.1619 48.2033 17.5214 48.1785 17.0914 48.5466Z" fill="#2A7D03"/>
<path d="M4.33301 51.4604C4.33301 56.5456 8.45511 60.6671 13.5398 60.6671C18.6244 60.6671 22.7465 56.5456 22.7465 51.4604C22.7465 50.8622 22.2616 50.3772 21.6634 50.3772C21.0652 50.3772 20.5802 50.8622 20.5802 51.4604C20.5802 55.3487 17.4281 58.5008 13.5398 58.5008C9.65144 58.5008 6.49931 55.3487 6.49931 51.4604C6.49931 47.572 9.65144 44.4199 13.5398 44.4199C15.064 44.4157 16.5475 44.9102 17.7639 45.8283C18.2426 46.1874 18.9217 46.0901 19.2803 45.6115C19.6394 45.1328 19.5426 44.4543 19.0639 44.0952C16.2741 42.0029 12.5412 41.6666 9.42243 43.2257C6.30309 44.7854 4.33301 47.9735 4.33301 51.4604Z" fill="#2A7D03"/>
<path d="M38.9931 8.67606C39.5912 8.67606 40.0762 8.19161 40.0762 7.59291C40.0762 6.99475 39.5912 6.50977 38.9931 6.50977H10.8312C10.233 6.50977 9.74805 6.99475 9.74805 7.59291V11.9255C9.74805 12.5242 10.233 13.0087 10.8312 13.0087H38.9931C39.5912 13.0087 40.0762 12.5242 40.0762 11.9255C40.0762 11.3273 39.5912 10.8424 38.9931 10.8424H11.9143V8.67606H38.9931Z" fill="#2A7D03"/>
<path d="M14.0812 15.1748C13.483 15.1748 12.998 15.6598 12.998 16.2579C12.998 16.8566 13.483 17.3411 14.0812 17.3411H35.7442C36.3423 17.3411 36.8273 16.8566 36.8273 16.2579C36.8273 15.6598 36.3423 15.1748 35.7442 15.1748H14.0812Z" fill="#2A7D03"/>
<path d="M42.2425 22.7568H18.4132C17.8151 22.7568 17.3301 23.2418 17.3301 23.84C17.3301 24.4387 17.8151 24.9231 18.4132 24.9231H42.2425C42.8407 24.9231 43.3257 24.4387 43.3257 23.84C43.3257 23.2418 42.8407 22.7568 42.2425 22.7568Z" fill="#2A7D03"/>
<path d="M31.4113 30.339C31.4113 29.7408 30.9263 29.2559 30.3282 29.2559H8.66518C8.06702 29.2559 7.58203 29.7408 7.58203 30.339C7.58203 30.9377 8.06702 31.4221 8.66518 31.4221H30.3282C30.9263 31.4221 31.4113 30.9377 31.4113 30.339Z" fill="#2A7D03"/>
<path d="M42.2424 29.2559H34.6603C34.0621 29.2559 33.5771 29.7408 33.5771 30.339C33.5771 30.9377 34.0621 31.4221 34.6603 31.4221H42.2424C42.8405 31.4221 43.3255 30.9377 43.3255 30.339C43.3255 29.7408 42.8405 29.2559 42.2424 29.2559Z" fill="#2A7D03"/>
<path d="M19.4967 36.8377C20.0948 36.8377 20.5798 36.3532 20.5798 35.7545C20.5798 35.1564 20.0948 34.6714 19.4967 34.6714H8.66518C8.06702 34.6714 7.58203 35.1564 7.58203 35.7545C7.58203 36.3532 8.06702 36.8377 8.66518 36.8377H19.4967Z" fill="#2A7D03"/>
<path d="M23.8292 36.8377H31.4113C32.0094 36.8377 32.4944 36.3532 32.4944 35.7545C32.4944 35.1564 32.0094 34.6714 31.4113 34.6714H23.8292C23.2311 34.6714 22.7461 35.1564 22.7461 35.7545C22.7461 36.3532 23.2311 36.8377 23.8292 36.8377Z" fill="#2A7D03"/>
<path d="M48.7417 49.8356C48.1435 49.8356 47.6586 50.3206 47.6586 50.9187V61.7502C47.6586 62.3489 47.1736 62.8334 46.5754 62.8334H3.24945C2.65128 62.8334 2.1663 62.3489 2.1663 61.7502V3.26019C2.1663 2.66202 2.65128 2.17704 3.24945 2.17704H46.5754C47.1736 2.17704 47.6586 2.66202 47.6586 3.26019V23.602C47.6586 24.2002 48.1435 24.6852 48.7417 24.6852C49.3399 24.6852 49.8248 24.2002 49.8248 23.602V3.26019C49.8248 1.46569 48.3699 0.0107422 46.5754 0.0107422H3.24945C1.45495 0.0107422 0 1.46569 0 3.26019V61.7502C0 63.5452 1.45495 64.9997 3.24945 64.9997H46.5754C48.3699 64.9997 49.8248 63.5452 49.8248 61.7502V50.9187C49.8248 50.3206 49.3399 49.8356 48.7417 49.8356Z" fill="#2A7D03"/>
</g>
<defs>
<clipPath id="clip0_1_2500">
<rect width="65" height="65" fill="white"/>
</clipPath>
</defs>
</svg>
