<svg width="65" height="65" viewBox="0 0 65 65" fill="none" xmlns="http://www.w3.org/2000/svg">
<path d="M28.7471 6.85547H44.4816C44.7173 6.85547 44.9434 6.76184 45.11 6.59518C45.2767 6.42852 45.3703 6.20249 45.3703 5.9668C45.3703 5.73111 45.2767 5.50507 45.11 5.33841C44.9434 5.17175 44.7173 5.07812 44.4816 5.07812H28.7471C28.5114 5.07812 28.2853 5.17175 28.1187 5.33841C27.952 5.50507 27.8584 5.73111 27.8584 5.9668C27.8584 6.20249 27.952 6.42852 28.1187 6.59518C28.2853 6.76184 28.5114 6.85547 28.7471 6.85547Z" fill="#2A7D03"/>
<path d="M28.7471 11.6035H44.4816C44.7173 11.6035 44.9434 11.5099 45.11 11.3432C45.2767 11.1766 45.3703 10.9505 45.3703 10.7148C45.3703 10.4792 45.2767 10.2531 45.11 10.0865C44.9434 9.9198 44.7173 9.82617 44.4816 9.82617H28.7471C28.5114 9.82617 28.2853 9.9198 28.1187 10.0865C27.952 10.2531 27.8584 10.4792 27.8584 10.7148C27.8584 10.9505 27.952 11.1766 28.1187 11.3432C28.2853 11.5099 28.5114 11.6035 28.7471 11.6035Z" fill="#2A7D03"/>
<path d="M28.7471 16.3516H44.4816C44.7173 16.3516 44.9434 16.2579 45.11 16.0913C45.2767 15.9246 45.3703 15.6986 45.3703 15.4629C45.3703 15.2272 45.2767 15.0012 45.11 14.8345C44.9434 14.6678 44.7173 14.5742 44.4816 14.5742H28.7471C28.5114 14.5742 28.2853 14.6678 28.1187 14.8345C27.952 15.0012 27.8584 15.2272 27.8584 15.4629C27.8584 15.6986 27.952 15.9246 28.1187 16.0913C28.2853 16.2579 28.5114 16.3516 28.7471 16.3516Z" fill="#2A7D03"/>
<path d="M15.5391 21.0996H44.4813C44.717 21.0996 44.9431 21.006 45.1097 20.8393C45.2764 20.6727 45.37 20.4466 45.37 20.2109C45.37 19.9752 45.2764 19.7492 45.1097 19.5826C44.9431 19.4159 44.717 19.3223 44.4813 19.3223H15.5391C15.3034 19.3223 15.0773 19.4159 14.9107 19.5826C14.744 19.7492 14.6504 19.9752 14.6504 20.2109C14.6504 20.4466 14.744 20.6727 14.9107 20.8393C15.0773 21.006 15.3034 21.0996 15.5391 21.0996Z" fill="#2A7D03"/>
<path d="M15.5391 25.8477H44.4813C44.717 25.8477 44.9431 25.754 45.1097 25.5874C45.2764 25.4207 45.37 25.1947 45.37 24.959C45.37 24.7233 45.2764 24.4973 45.1097 24.3306C44.9431 24.1639 44.717 24.0703 44.4813 24.0703H15.5391C15.3034 24.0703 15.0773 24.1639 14.9107 24.3306C14.744 24.4973 14.6504 24.7233 14.6504 24.959C14.6504 25.1947 14.744 25.4207 14.9107 25.5874C15.0773 25.754 15.3034 25.8477 15.5391 25.8477Z" fill="#2A7D03"/>
<path d="M15.5391 30.5952H44.4813C44.717 30.5952 44.9431 30.5016 45.1097 30.3349C45.2764 30.1683 45.37 29.9422 45.37 29.7065C45.37 29.4709 45.2764 29.2448 45.1097 29.0782C44.9431 28.9115 44.717 28.8179 44.4813 28.8179H15.5391C15.3034 28.8179 15.0773 28.9115 14.9107 29.0782C14.744 29.2448 14.6504 29.4709 14.6504 29.7065C14.6504 29.9422 14.744 30.1683 14.9107 30.3349C15.0773 30.5016 15.3034 30.5952 15.5391 30.5952Z" fill="#2A7D03"/>
<path d="M45.37 34.4546C45.37 34.2189 45.2764 33.9929 45.1097 33.8262C44.9431 33.6595 44.717 33.5659 44.4813 33.5659H15.5391C15.3034 33.5659 15.0773 33.6595 14.9107 33.8262C14.744 33.9929 14.6504 34.2189 14.6504 34.4546C14.6504 34.6903 14.744 34.9163 14.9107 35.083C15.0773 35.2496 15.3034 35.3433 15.5391 35.3433H44.4813C44.717 35.3431 44.9429 35.2495 45.1096 35.0828C45.2762 34.9162 45.3699 34.6902 45.37 34.4546Z" fill="#2A7D03"/>
<path d="M53.8195 59.7477C54.636 59.0368 55.1802 58.0645 55.3593 56.9968C55.5383 55.9292 55.341 54.8325 54.8011 53.8941L52.8882 50.5807C52.7695 50.3782 52.5755 50.2309 52.3487 50.171C52.1218 50.111 51.8804 50.1432 51.6772 50.2605C51.4739 50.3778 51.3254 50.5708 51.2639 50.7973C51.2024 51.0237 51.233 51.2653 51.349 51.4693L53.2619 54.7828C53.5663 55.3116 53.6958 55.923 53.6319 56.5297C53.5681 57.1364 53.3142 57.7075 52.9064 58.1613L51.1845 55.1789L49.7148 52.6338C50.19 52.0345 50.4483 51.2921 50.4476 50.5273V3.42773C50.4465 2.51897 50.0851 1.64774 49.4425 1.00515C48.7999 0.362556 47.9286 0.00107514 47.0199 0L23.6641 0C23.4284 0.000867151 23.2026 0.0944481 23.0354 0.260508L9.83227 13.4636C9.67001 13.6331 9.57723 13.8572 9.57227 14.0918V50.5273C9.57321 51.4361 9.93464 52.3075 10.5773 52.9501C11.2199 53.5927 12.0912 53.9541 13 53.9551H43.3672L45.8499 58.2552L49.0491 63.7904C49.3693 64.344 49.8961 64.7478 50.5139 64.9133C51.1316 65.0788 51.7897 64.9923 52.3438 64.673L53.4986 64.0067C53.7729 63.8484 54.0133 63.6375 54.2061 63.3862C54.3989 63.1349 54.5403 62.8481 54.6223 62.5422C54.7043 62.2362 54.7251 61.9171 54.6838 61.6031C54.6424 61.2891 54.5395 60.9863 54.3811 60.712L53.8195 59.7477ZM44.6484 52.6226L40.4935 45.4259L41.6203 44.7753L42.7472 44.1248L49.1964 55.2967L46.9422 56.5977L44.6484 52.6226ZM39.6129 41.2984L41.4969 42.7944L40.7316 43.2362L39.9669 43.678L39.6129 41.2984ZM17.6917 8.1184L22.7764 3.03418V11.5527C22.7759 11.9905 22.6017 12.4101 22.2921 12.7195C21.9825 13.0289 21.5627 13.2029 21.125 13.2031H12.6075L17.6917 8.1184ZM42.3394 52.1777H13C12.5625 52.1772 12.143 52.0031 11.8336 51.6938C11.5242 51.3844 11.3501 50.9649 11.3496 50.5273V14.9805H21.125C22.0338 14.9794 22.905 14.6179 23.5476 13.9753C24.1902 13.3327 24.5517 12.4615 24.5527 11.5527V1.77734H47.0199C47.4574 1.77788 47.8769 1.95193 48.1863 2.26133C48.4957 2.57072 48.6697 2.99019 48.6703 3.42773V50.5273C48.6704 50.6157 48.6631 50.7038 48.6484 50.7909L43.842 42.4663C43.7786 42.3662 43.6997 42.2767 43.6084 42.2012L38.9558 38.5069C38.8054 38.3938 38.6239 38.3294 38.4359 38.3224C38.2478 38.3154 38.062 38.3662 37.9036 38.4678L35.5586 40.0608L34.7725 38.7461C34.6937 38.6143 34.5821 38.5052 34.4486 38.4294C34.3151 38.3536 34.1643 38.3136 34.0107 38.3134C33.8575 38.3134 33.7068 38.3529 33.5733 38.4283C33.4398 38.5037 33.3281 38.6123 33.249 38.7436L32.5381 39.9227L31.9465 37.7863C31.9094 37.6521 31.8412 37.5285 31.7476 37.4255C31.6539 37.3225 31.5373 37.2429 31.4073 37.1932C31.2772 37.1435 31.1373 37.125 30.9988 37.1393C30.8603 37.1536 30.7271 37.2003 30.6099 37.2755L26.3555 40.0055C26.2572 40.0685 26.1724 40.1503 26.1058 40.2461C26.0391 40.342 25.9921 40.45 25.9672 40.5641C25.9423 40.6781 25.9401 40.7959 25.9608 40.9108C25.9815 41.0257 26.0245 41.1354 26.0876 41.2336C26.1507 41.3318 26.2324 41.4167 26.3283 41.4833C26.4241 41.5499 26.5321 41.597 26.6462 41.6219C26.7602 41.6468 26.8781 41.6489 26.9929 41.6283C27.1078 41.6076 27.2175 41.5645 27.3157 41.5015L30.5536 39.423L31.3747 42.3886C31.421 42.556 31.5154 42.7062 31.6462 42.8204C31.777 42.9347 31.9384 43.0081 32.1105 43.0315C32.1505 43.0374 32.1909 43.0403 32.2314 43.0402C32.3847 43.0403 32.5354 43.0008 32.6688 42.9254C32.8023 42.85 32.914 42.7414 32.9931 42.61L34.0087 40.9292L34.5165 41.7808C34.5786 41.8847 34.6612 41.9749 34.7593 42.0457C34.8575 42.1165 34.9691 42.1665 35.0873 42.1927C35.2055 42.2188 35.3278 42.2204 35.4466 42.1975C35.5655 42.1747 35.6784 42.1277 35.7784 42.0596L37.7305 40.7327L38.3957 45.21C38.4169 45.3266 38.4549 45.4395 38.5084 45.5452L42.3394 52.1777ZM52.9019 62.0857C52.8805 62.1662 52.8433 62.2417 52.7926 62.3079C52.7419 62.374 52.6786 62.4295 52.6063 62.4711L51.4521 63.1373C51.3062 63.2213 51.133 63.2441 50.9704 63.2006C50.8078 63.1571 50.6691 63.0509 50.5847 62.9053L47.8319 58.1374L50.0861 56.8364L52.8384 61.6043C52.8803 61.6763 52.9076 61.7559 52.9186 61.8386C52.9296 61.9212 52.9241 62.0052 52.9024 62.0857H52.9019Z" fill="#2A7D03"/>
</svg>
