<svg width="65" height="65" viewBox="0 0 65 65" fill="none" xmlns="http://www.w3.org/2000/svg">
<path d="M22.3438 17.2656H20.3125C20.0431 17.2656 19.7848 17.1586 19.5943 16.9682C19.4039 16.7777 19.2969 16.5194 19.2969 16.25C19.2969 15.9806 19.1899 15.7223 18.9994 15.5318C18.8089 15.3414 18.5506 15.2344 18.2812 15.2344C18.0119 15.2344 17.7536 15.3414 17.5631 15.5318C17.3726 15.7223 17.2656 15.9806 17.2656 16.25C17.2656 17.0581 17.5866 17.8331 18.158 18.4045C18.7294 18.9759 19.5044 19.2969 20.3125 19.2969V20.3125C20.3125 20.5819 20.4195 20.8402 20.61 21.0307C20.8004 21.2211 21.0588 21.3281 21.3281 21.3281C21.5975 21.3281 21.8558 21.2211 22.0463 21.0307C22.2367 20.8402 22.3438 20.5819 22.3438 20.3125V19.2969C23.1518 19.2969 23.9268 18.9759 24.4982 18.4045C25.0696 17.8331 25.3906 17.0581 25.3906 16.25C25.3906 15.4419 25.0696 14.6669 24.4982 14.0955C23.9268 13.5241 23.1518 13.2031 22.3438 13.2031H20.3125C20.0431 13.2031 19.7848 13.0961 19.5943 12.9057C19.4039 12.7152 19.2969 12.4569 19.2969 12.1875C19.2969 11.9181 19.4039 11.6598 19.5943 11.4693C19.7848 11.2789 20.0431 11.1719 20.3125 11.1719H22.3438C22.6131 11.1719 22.8714 11.2789 23.0619 11.4693C23.2524 11.6598 23.3594 11.9181 23.3594 12.1875C23.3594 12.4569 23.4664 12.7152 23.6568 12.9057C23.8473 13.0961 24.1056 13.2031 24.375 13.2031C24.6444 13.2031 24.9027 13.0961 25.0932 12.9057C25.2836 12.7152 25.3906 12.4569 25.3906 12.1875C25.3906 11.3794 25.0696 10.6044 24.4982 10.033C23.9268 9.46163 23.1518 9.14062 22.3438 9.14062V8.125C22.3438 7.85564 22.2367 7.59731 22.0463 7.40684C21.8558 7.21638 21.5975 7.10938 21.3281 7.10938C21.0588 7.10938 20.8004 7.21638 20.61 7.40684C20.4195 7.59731 20.3125 7.85564 20.3125 8.125V9.14062C19.5044 9.14062 18.7294 9.46163 18.158 10.033C17.5866 10.6044 17.2656 11.3794 17.2656 12.1875C17.2656 12.9956 17.5866 13.7706 18.158 14.342C18.7294 14.9134 19.5044 15.2344 20.3125 15.2344H22.3438C22.6131 15.2344 22.8714 15.3414 23.0619 15.5318C23.2524 15.7223 23.3594 15.9806 23.3594 16.25C23.3594 16.5194 23.2524 16.7777 23.0619 16.9682C22.8714 17.1586 22.6131 17.2656 22.3438 17.2656Z" fill="#2A7D03"/>
<path d="M43.6729 6.09375H40.626V3.04688C40.626 2.77751 40.519 2.51919 40.3285 2.32872C40.138 2.13825 39.8797 2.03125 39.6104 2.03125H3.04785C2.77849 2.03125 2.52016 2.13825 2.3297 2.32872C2.13923 2.51919 2.03223 2.77751 2.03223 3.04688V25.3906C2.03223 25.66 2.13923 25.9183 2.3297 26.1088C2.52016 26.2992 2.77849 26.4062 3.04785 26.4062H6.09473V29.4531C6.09473 29.7225 6.20173 29.9808 6.3922 30.1713C6.58266 30.3617 6.84099 30.4688 7.11035 30.4688H43.6729C43.9422 30.4688 44.2005 30.3617 44.391 30.1713C44.5815 29.9808 44.6885 29.7225 44.6885 29.4531V7.10938C44.6885 6.84001 44.5815 6.58169 44.391 6.39122C44.2005 6.20075 43.9422 6.09375 43.6729 6.09375ZM38.5947 4.0625V8.02344C37.6194 7.82318 36.7242 7.34116 36.0201 6.63709C35.3161 5.93302 34.834 5.03785 34.6338 4.0625H38.5947ZM4.06348 4.0625H8.02441C7.82416 5.03785 7.34213 5.93302 6.63806 6.63709C5.934 7.34116 5.03883 7.82318 4.06348 8.02344V4.0625ZM4.06348 24.375V20.4141C5.03883 20.6143 5.934 21.0963 6.63806 21.8004C7.34213 22.5045 7.82416 23.3996 8.02441 24.375H4.06348ZM4.06348 18.3625V10.075C5.57975 9.85454 6.98422 9.15012 8.06766 8.06669C9.1511 6.98325 9.85552 5.57877 10.076 4.0625H32.5822C32.8027 5.57877 33.5071 6.98325 34.5905 8.06669C35.674 9.15012 37.0785 9.85454 38.5947 10.075V18.3625C37.0785 18.583 35.674 19.2874 34.5905 20.3708C33.5071 21.4543 32.8027 22.8587 32.5822 24.375H10.076C9.85552 22.8587 9.1511 21.4543 8.06766 20.3708C6.98422 19.2874 5.57975 18.583 4.06348 18.3625ZM38.5947 20.4141V24.375H34.6338C34.834 23.3996 35.3161 22.5045 36.0201 21.8004C36.7242 21.0963 37.6194 20.6143 38.5947 20.4141ZM42.6572 28.4375H8.12598V26.4062H39.6104C39.8797 26.4062 40.138 26.2992 40.3285 26.1088C40.519 25.9183 40.626 25.66 40.626 25.3906V8.125H42.6572V28.4375Z" fill="#2A7D03"/>
<path d="M28.4375 15.2344H31.4844C31.7537 15.2344 32.0121 15.1274 32.2025 14.9369C32.393 14.7464 32.5 14.4881 32.5 14.2188C32.5 13.9494 32.393 13.6911 32.2025 13.5006C32.0121 13.3101 31.7537 13.2031 31.4844 13.2031H28.4375C28.1681 13.2031 27.9098 13.3101 27.7193 13.5006C27.5289 13.6911 27.4219 13.9494 27.4219 14.2188C27.4219 14.4881 27.5289 14.7464 27.7193 14.9369C27.9098 15.1274 28.1681 15.2344 28.4375 15.2344Z" fill="#2A7D03"/>
<path d="M11.1719 15.2344H14.2188C14.4881 15.2344 14.7464 15.1274 14.9369 14.9369C15.1274 14.7464 15.2344 14.4881 15.2344 14.2188C15.2344 13.9494 15.1274 13.6911 14.9369 13.5006C14.7464 13.3101 14.4881 13.2031 14.2188 13.2031H11.1719C10.9025 13.2031 10.6442 13.3101 10.4537 13.5006C10.2633 13.6911 10.1562 13.9494 10.1562 14.2188C10.1562 14.4881 10.2633 14.7464 10.4537 14.9369C10.6442 15.1274 10.9025 15.2344 11.1719 15.2344Z" fill="#2A7D03"/>
<path d="M59.9219 38.5938H58.9062V37.5781C58.9038 36.7708 58.5821 35.9972 58.0112 35.4263C57.4403 34.8554 56.6667 34.5337 55.8594 34.5312H23.3594C22.552 34.5337 21.7785 34.8554 21.2076 35.4263C20.6367 35.9972 20.3149 36.7708 20.3125 37.5781V55.8594C20.3149 56.6667 20.6367 57.4403 21.2076 58.0112C21.7785 58.5821 22.552 58.9038 23.3594 58.9062H24.375V59.9219C24.3774 60.7292 24.6992 61.5028 25.2701 62.0737C25.841 62.6446 26.6145 62.9663 27.4219 62.9688H59.9219C60.7292 62.9663 61.5028 62.6446 62.0737 62.0737C62.6446 61.5028 62.9663 60.7292 62.9688 59.9219V41.6406C62.9663 40.8333 62.6446 40.0597 62.0737 39.4888C61.5028 38.9179 60.7292 38.5962 59.9219 38.5938ZM22.3438 37.5781C22.3438 37.3088 22.4508 37.0504 22.6412 36.86C22.8317 36.6695 23.09 36.5625 23.3594 36.5625H55.8594C56.1287 36.5625 56.3871 36.6695 56.5775 36.86C56.768 37.0504 56.875 37.3088 56.875 37.5781V38.5938H22.3438V37.5781ZM22.3438 40.625H56.875V42.6562H22.3438V40.625ZM23.3594 56.875C23.09 56.875 22.8317 56.768 22.6412 56.5775C22.4508 56.3871 22.3438 56.1287 22.3438 55.8594V44.6875H56.875V55.8594C56.875 56.1287 56.768 56.3871 56.5775 56.5775C56.3871 56.768 56.1287 56.875 55.8594 56.875H23.3594ZM60.9375 59.9219C60.9375 60.1912 60.8305 60.4496 60.64 60.64C60.4496 60.8305 60.1912 60.9375 59.9219 60.9375H27.4219C27.1525 60.9375 26.8942 60.8305 26.7037 60.64C26.5133 60.4496 26.4062 60.1912 26.4062 59.9219V58.9062H55.8594C56.6667 58.9038 57.4403 58.5821 58.0112 58.0112C58.5821 57.4403 58.9038 56.6667 58.9062 55.8594V40.625H59.9219C60.1912 40.625 60.4496 40.732 60.64 40.9225C60.8305 41.1129 60.9375 41.3713 60.9375 41.6406V59.9219Z" fill="#2A7D03"/>
<path d="M47.7344 12.1875H53.8281V22.3438H51.7969C51.6103 22.3437 51.4273 22.3951 51.268 22.4923C51.1087 22.5894 50.9792 22.7286 50.8938 22.8945C50.8084 23.0604 50.7703 23.2466 50.7838 23.4327C50.7973 23.6188 50.8617 23.7976 50.9702 23.9495L56.0483 31.0588C56.1422 31.1905 56.2663 31.2978 56.4101 31.3718C56.5539 31.4459 56.7133 31.4845 56.875 31.4845C57.0367 31.4845 57.1961 31.4459 57.3399 31.3718C57.4837 31.2978 57.6078 31.1905 57.7017 31.0588L62.7798 23.9495C62.8883 23.7976 62.9527 23.6188 62.9662 23.4327C62.9797 23.2466 62.9416 23.0604 62.8562 22.8945C62.7708 22.7286 62.6413 22.5894 62.482 22.4923C62.3227 22.3951 62.1397 22.3437 61.9531 22.3438H59.9219V7.10938C59.9219 6.84001 59.8149 6.58169 59.6244 6.39122C59.4339 6.20075 59.1756 6.09375 58.9062 6.09375H47.7344C47.465 6.09375 47.2067 6.20075 47.0162 6.39122C46.8258 6.58169 46.7188 6.84001 46.7188 7.10938V11.1719C46.7188 11.4412 46.8258 11.6996 47.0162 11.89C47.2067 12.0805 47.465 12.1875 47.7344 12.1875ZM48.75 8.125H57.8906V23.3594C57.8906 23.6287 57.9976 23.8871 58.1881 24.0775C58.3786 24.268 58.6369 24.375 58.9062 24.375H59.9798L56.875 28.7209L53.7702 24.375H54.8437C55.1131 24.375 55.3714 24.268 55.5619 24.0775C55.7524 23.8871 55.8594 23.6287 55.8594 23.3594V11.1719C55.8594 10.9025 55.7524 10.6442 55.5619 10.4537C55.3714 10.2633 55.1131 10.1562 54.8437 10.1562H48.75V8.125Z" fill="#2A7D03"/>
<path d="M17.2657 52.8125H11.172V42.6563H13.2032C13.3898 42.6563 13.5728 42.6049 13.7321 42.5078C13.8914 42.4106 14.0209 42.2715 14.1063 42.1056C14.1917 41.9397 14.2298 41.7535 14.2163 41.5674C14.2028 41.3813 14.1384 41.2025 14.0299 41.0506L8.95182 33.9412C8.85324 33.8163 8.72764 33.7154 8.58445 33.646C8.44126 33.5766 8.28422 33.5405 8.1251 33.5405C7.96598 33.5405 7.80893 33.5766 7.66575 33.646C7.52256 33.7154 7.39696 33.8163 7.29838 33.9412L2.22025 41.0506C2.11185 41.2025 2.04737 41.3813 2.0339 41.5674C2.02043 41.7535 2.05849 41.9397 2.14391 42.1056C2.22932 42.2715 2.35878 42.4106 2.51809 42.5078C2.67739 42.6049 2.86038 42.6563 3.04697 42.6563H5.07822V57.8907C5.07822 58.16 5.18523 58.4184 5.37569 58.6088C5.56616 58.7993 5.82449 58.9063 6.09385 58.9063H17.2657C17.5351 58.9063 17.7934 58.7993 17.9839 58.6088C18.1743 58.4184 18.2813 58.16 18.2813 57.8907V53.8282C18.2813 53.5588 18.1743 53.3005 17.9839 53.11C17.7934 52.9195 17.5351 52.8125 17.2657 52.8125ZM16.2501 56.875H7.10947V41.6407C7.10947 41.3713 7.00247 41.113 6.812 40.9225C6.62154 40.732 6.36321 40.625 6.09385 40.625H5.02033L8.1251 36.2792L11.2299 40.625H10.1563C9.88699 40.625 9.62866 40.732 9.43819 40.9225C9.24773 41.113 9.14072 41.3713 9.14072 41.6407V53.8282C9.14072 54.0975 9.24773 54.3559 9.43819 54.5463C9.62866 54.7368 9.88699 54.8438 10.1563 54.8438H16.2501V56.875Z" fill="#2A7D03"/>
<path d="M45.7029 54.8438C46.625 54.8395 47.5176 54.519 48.2318 53.9358C48.8279 54.4195 49.5488 54.7244 50.3111 54.8152C51.0733 54.906 51.8457 54.779 52.5388 54.4489C53.2318 54.1188 53.8171 53.5991 54.2269 52.9499C54.6367 52.3008 54.8542 51.5489 54.8542 50.7813C54.8542 50.0136 54.6367 49.2617 54.2269 48.6126C53.8171 47.9635 53.2318 47.4437 52.5388 47.1136C51.8457 46.7835 51.0733 46.6565 50.3111 46.7473C49.5488 46.8381 48.8279 47.143 48.2318 47.6267C47.7261 47.2211 47.1304 46.9426 46.4949 46.8147C45.8593 46.6868 45.2023 46.7132 44.579 46.8916C43.9557 47.0701 43.3843 47.3954 42.9127 47.8403C42.4411 48.2853 42.0831 48.8368 41.8687 49.4486C41.6543 50.0605 41.5898 50.7148 41.6805 51.3568C41.7713 51.9987 42.0146 52.6096 42.3902 53.138C42.7658 53.6665 43.2626 54.0972 43.839 54.394C44.4154 54.6908 45.0546 54.845 45.7029 54.8438ZM52.8123 50.7813C52.8123 51.32 52.5983 51.8366 52.2174 52.2176C51.8364 52.5985 51.3198 52.8125 50.781 52.8125C50.2956 52.8138 49.8263 52.6383 49.4607 52.3189C49.6632 51.8316 49.7675 51.309 49.7675 50.7813C49.7675 50.2535 49.6632 49.731 49.4607 49.2436C49.8263 48.9242 50.2956 48.7487 50.781 48.75C51.3198 48.75 51.8364 48.964 52.2174 49.3449C52.5983 49.7259 52.8123 50.2425 52.8123 50.7813ZM45.7029 48.75C46.1047 48.75 46.4974 48.8691 46.8314 49.0923C47.1655 49.3155 47.4258 49.6328 47.5796 50.0039C47.7333 50.3751 47.7735 50.7835 47.6951 51.1775C47.6168 51.5716 47.4233 51.9335 47.1392 52.2176C46.8552 52.5016 46.4932 52.6951 46.0992 52.7735C45.7052 52.8519 45.2968 52.8116 44.9256 52.6579C44.5544 52.5041 44.2372 52.2438 44.014 51.9098C43.7908 51.5757 43.6717 51.183 43.6717 50.7813C43.6717 50.2425 43.8857 49.7259 44.2666 49.3449C44.6475 48.964 45.1642 48.75 45.7029 48.75Z" fill="#2A7D03"/>
<path d="M27.4219 53.8281H36.5625C36.8319 53.8281 37.0902 53.7211 37.2807 53.5307C37.4711 53.3402 37.5781 53.0819 37.5781 52.8125C37.5781 52.5431 37.4711 52.2848 37.2807 52.0943C37.0902 51.9039 36.8319 51.7969 36.5625 51.7969H27.4219C27.1525 51.7969 26.8942 51.9039 26.7037 52.0943C26.5133 52.2848 26.4062 52.5431 26.4062 52.8125C26.4062 53.0819 26.5133 53.3402 26.7037 53.5307C26.8942 53.7211 27.1525 53.8281 27.4219 53.8281Z" fill="#2A7D03"/>
</svg>
