<svg width="65" height="65" viewBox="0 0 65 65" fill="none" xmlns="http://www.w3.org/2000/svg">
<g clip-path="url(#clip0_1_2777)">
<path d="M38.0088 49.4732V51.2223C38.0088 52.1264 38.7444 52.862 39.6485 52.862H46.3229C47.227 52.862 47.9626 52.1264 47.9626 51.2223V49.4732C47.9626 48.5691 47.227 47.8335 46.3229 47.8335H39.6485C38.7444 47.8335 38.0088 48.5691 38.0088 49.4732ZM39.9129 49.7376H46.0585V50.9579H39.9129V49.7376Z" fill="white"/>
<path d="M37.6601 24.6846C37.1341 24.6846 36.708 25.1107 36.708 25.6366V26.7879C36.708 27.3138 37.1341 27.7399 37.6601 27.7399C38.186 27.7399 38.6121 27.3138 38.6121 26.7879V25.6366C38.6121 25.1107 38.186 24.6846 37.6601 24.6846Z" fill="white"/>
<path d="M26.3882 25.6366V26.7879C26.3882 27.3138 26.8143 27.7399 27.3402 27.7399C27.8662 27.7399 28.2923 27.3138 28.2923 26.7879V25.6366C28.2923 25.1107 27.8662 24.6846 27.3402 24.6846C26.8143 24.6846 26.3882 25.1107 26.3882 25.6366Z" fill="white"/>
<path d="M34.067 30.6005C32.9833 31.4231 32.0167 31.4234 30.9325 30.6005C30.5133 30.2828 29.9164 30.3647 29.5985 30.7833C29.2806 31.2022 29.3626 31.7995 29.7813 32.1174C30.6706 32.792 31.5852 33.1296 32.4998 33.1296C33.4143 33.1296 34.3289 32.7922 35.2181 32.1174C35.637 31.7994 35.7188 31.2022 35.4009 30.7833C35.0831 30.3644 34.4859 30.2826 34.067 30.6005Z" fill="white"/>
<path d="M47.5823 39.8921C45.7973 37.9407 43.5081 36.5723 40.9911 35.9168C41.4324 35.496 41.8442 35.0403 42.2222 34.5522C43.0431 34.4374 43.7212 33.8775 44.0056 33.1237H45.4523C46.4359 33.1237 47.236 32.3236 47.236 31.3401V29.1199C48.6805 28.4329 49.6819 26.9595 49.6819 25.2563V24.139C49.6819 22.5126 48.769 21.0956 47.4289 20.3729V12.1061C47.4289 7.9934 44.4576 4.52702 40.549 3.76449L40.7713 3.36387C41.2507 2.49927 41.1292 1.46953 40.4618 0.740256C39.7944 0.0111084 38.7793 -0.200883 37.876 0.200504L31.7761 2.90942C29.5156 3.91377 27.879 3.51582 26.0704 3.60683C24.7077 3.60683 23.3499 3.93942 22.1441 4.56853C21.678 4.81175 21.4972 5.38679 21.7404 5.85305C21.9837 6.3193 22.5586 6.49981 23.0249 6.25672C23.9733 5.7619 24.9979 5.51094 26.0703 5.51094C27.7988 5.41447 29.8169 5.86333 32.5489 4.64965L38.6486 1.94061C38.8528 1.84946 38.9921 1.95482 39.0569 2.02578C39.1218 2.09674 39.2143 2.24463 39.1059 2.44025L38.1857 4.09936C38.0231 4.39259 38.0267 4.74968 38.1951 5.03948C38.3634 5.32929 38.672 5.50917 39.0072 5.51297C42.6009 5.55474 45.5246 8.51233 45.5246 12.106V19.8662C45.4849 19.865 45.4456 19.8631 45.4057 19.8631H44.7899V16.713C44.7899 16.3616 44.5965 16.0389 44.2866 15.8734C43.977 15.7076 43.601 15.7262 43.3089 15.9215C42.4853 16.4719 41.6474 16.9679 40.8186 17.3955C40.3512 17.6367 40.168 18.211 40.4091 18.6781C40.6503 19.1455 41.2247 19.3284 41.6917 19.0876C42.0889 18.8826 42.4877 18.6633 42.8857 18.431V27.0354C42.8857 27.968 42.7608 28.8829 42.5192 29.7692C42.3255 29.7145 42.1222 29.6831 41.9112 29.6831H38.6001C37.3651 29.6831 36.3603 30.6877 36.3603 31.9227V32.3369C36.3603 33.572 37.3651 34.5766 38.6001 34.5766H39.6374C37.7246 36.3829 35.1711 37.4217 32.4997 37.4217C26.7729 37.4217 22.1138 32.7626 22.1138 27.0356C22.1138 24.1612 22.1138 21.3016 22.1138 18.4314C27.3678 21.4951 32.6941 22.2313 37.9685 20.6174C38.4713 20.4635 38.7542 19.9313 38.6004 19.4285C38.4467 18.9257 37.9148 18.6427 37.4115 18.7966C34.8163 19.5907 32.1864 19.7553 29.5957 19.2859C26.9828 18.8127 24.3233 17.6807 21.6908 15.9216C21.3986 15.7264 21.0228 15.7077 20.7131 15.8735C20.4034 16.039 20.2098 16.3618 20.2098 16.7131V20.9006C19.9579 20.9015 19.7123 20.9292 19.4753 20.9804V12.1061C19.4753 10.8174 19.8484 9.56784 20.5544 8.49265C20.843 8.05318 20.7207 7.46291 20.2811 7.17425C19.8419 6.88584 19.2515 7.00795 18.9627 7.44755C18.0524 8.834 17.5712 10.4447 17.5712 12.106V22.1026C17.0243 22.7245 16.6916 23.5391 16.6916 24.4303V24.9651C16.6916 26.9116 18.2753 28.4953 20.2218 28.4953H20.2969C20.642 31.3981 22.0022 33.9939 24.0122 35.916C21.4938 36.5712 19.2034 37.94 17.4176 39.8922C15.124 42.3995 13.8608 45.6532 13.8608 49.0536V61.5343C13.8608 63.4454 15.4155 65.0001 17.3266 65.0001H20.3055C20.8314 65.0001 21.2575 64.5739 21.2575 64.048C21.2575 63.5221 20.8314 63.096 20.3055 63.096H17.3266C16.4655 63.096 15.765 62.3954 15.765 61.5343V49.0536C15.765 46.1301 16.8508 43.3329 18.8226 41.1774C20.2118 39.6586 21.956 38.5507 23.8784 37.9358C23.6232 38.7001 23.6397 39.5511 23.9691 40.3238L27.4881 48.5776C27.6012 48.8427 27.8281 49.0423 28.1054 49.1205C28.6394 49.2708 28.9792 48.9221 29.0614 48.8763L29.6524 49.4673L26.7762 63.0958H24.1123C23.5864 63.0958 23.1603 63.522 23.1603 64.0479C23.1603 64.5738 23.5864 64.9999 24.1123 64.9999H47.6731C49.5842 64.9999 51.1389 63.4453 51.1389 61.5342V49.0535C51.139 45.653 49.8758 42.3994 47.5823 39.8921ZM18.5959 24.9651V24.4303C18.5959 23.5377 19.3188 22.8107 20.2099 22.8042V26.5911C19.3189 26.5848 18.5959 25.8579 18.5959 24.9651ZM36.224 46.7431L33.6642 44.9231L36.1491 38.768C37.0137 38.4983 37.845 38.1333 38.6282 37.6827L38.8612 37.8735C39.3604 38.2827 39.5323 38.9831 39.2792 39.5769L36.224 46.7431ZM44.0557 31.2197C44.2559 30.6677 44.4153 30.1046 44.5337 29.5323H45.3319V31.2197H44.0557ZM45.406 21.7674C46.7137 21.7674 47.7777 22.8314 47.7777 24.1392V25.2566C47.7777 26.5643 46.7137 27.6283 45.406 27.6283H44.7902V27.0356V21.7675H45.406V21.7674ZM38.2648 32.3369V31.9227C38.2648 31.7378 38.4154 31.5872 38.6004 31.5872H41.9116C42.0965 31.5872 42.2471 31.7378 42.2471 31.9227V32.3369C42.2471 32.5219 42.0965 32.6725 41.9116 32.6725H38.6004C38.4152 32.6723 38.2648 32.5219 38.2648 32.3369ZM33.9034 39.2439L32.5001 42.7199L31.0972 39.2451C31.5578 39.2976 32.0257 39.3255 32.4999 39.3255C32.9716 39.3257 33.44 39.2976 33.9034 39.2439ZM25.721 39.577C25.4679 38.9832 25.6398 38.2828 26.1391 37.8736L26.3697 37.6846C27.148 38.1343 27.9798 38.5014 28.8533 38.7735L31.336 44.9231L28.7762 46.7431L25.721 39.577ZM32.5001 46.4317L34.3644 47.7572L32.5001 49.6217L30.6357 47.7572L32.5001 46.4317ZM28.7222 63.0958L31.2596 51.0742C31.6965 51.445 31.9066 51.9201 32.5001 51.9201C33.0934 51.9201 33.3037 51.4448 33.7406 51.074L36.2781 63.0958H28.7222ZM49.2349 61.5343C49.2349 62.3954 48.5343 63.096 47.6733 63.096H38.2239L35.3473 49.4673L35.9384 48.8763C36.0072 48.9089 36.3523 49.2731 36.8945 49.1205C37.1719 49.0423 37.3988 48.8427 37.5118 48.5776L41.0307 40.3238C41.3601 39.5511 41.3766 38.7 41.1215 37.9358C43.0437 38.5507 44.788 39.6586 46.1773 41.1774C48.1491 43.3328 49.2349 46.1301 49.2349 49.0536V61.5343Z" fill="white"/>
</g>
<defs>
<clipPath id="clip0_1_2777">
<rect width="65" height="65" fill="white"/>
</clipPath>
</defs>
</svg>
