<svg width="30" height="30" viewBox="0 0 30 30" fill="none" xmlns="http://www.w3.org/2000/svg">
<g clip-path="url(#clip0_1_3171)">
<path d="M11.2214 13.3342C12.3883 13.3342 13.334 12.3885 13.334 11.2219C13.334 10.0551 12.3883 9.10938 11.2214 9.10938C10.0549 9.10938 9.10889 10.0551 9.10889 11.2219C9.11081 12.3878 10.0556 13.3323 11.2214 13.3342ZM11.2214 10.3349C11.7079 10.3349 12.1022 10.7292 12.1022 11.2157C12.1022 11.7021 11.7079 12.0964 11.2214 12.0964C10.735 12.0964 10.3407 11.7021 10.3407 11.2157C10.3407 10.7292 10.735 10.3349 11.2214 10.3349Z" fill="#2A7D03"/>
<path d="M18.1316 16.0193C18.1316 14.8525 17.1859 13.9067 16.0193 13.9067C14.8525 13.9067 13.9067 14.8525 13.9067 16.0193C13.9067 17.1859 14.8525 18.1318 16.0193 18.1318C17.1851 18.1299 18.1297 17.1851 18.1316 16.0193ZM15.1323 16.0193C15.1323 15.5328 15.5266 15.1385 16.013 15.1385C16.4995 15.1385 16.8938 15.5328 16.8938 16.0193C16.8938 16.5057 16.4995 16.9 16.013 16.9C15.5266 16.9 15.1323 16.5057 15.1323 16.0193Z" fill="#2A7D03"/>
<path d="M17.5716 9.66359C17.4563 9.54811 17.3002 9.4834 17.1373 9.4834C16.9745 9.4834 16.8181 9.54811 16.7031 9.66359L9.86672 16.5C9.75148 16.615 9.68652 16.7711 9.68652 16.9342C9.68652 17.0971 9.75148 17.2532 9.86672 17.3682C9.9822 17.4847 10.14 17.5491 10.3041 17.547C10.4675 17.5463 10.6243 17.4823 10.7412 17.3682L17.5776 10.5319C17.8131 10.2893 17.8102 9.90273 17.5716 9.66359Z" fill="#2A7D03"/>
<path d="M22.7942 20.0598C23.3617 20.0607 23.8217 20.5205 23.8227 21.0883C23.8227 21.4285 24.0984 21.7042 24.4386 21.7042C24.7788 21.7042 25.0545 21.4285 25.0545 21.0883C25.0533 20.0776 24.382 19.1903 23.4101 18.9141V18.5446C23.4101 18.2044 23.1341 17.9287 22.7942 17.9287C22.454 17.9287 22.1783 18.2044 22.1783 18.5446V18.9141C21.0928 19.2214 20.4002 20.2821 20.5554 21.3996C20.7105 22.5168 21.6661 23.3485 22.7942 23.3485C23.3622 23.3485 23.8227 23.809 23.8227 24.377C23.8227 24.945 23.3622 25.4055 22.7942 25.4055C22.2259 25.4055 21.7655 24.945 21.7655 24.377C21.7655 24.0368 21.4898 23.7611 21.1496 23.7611C20.8096 23.7611 20.5337 24.0368 20.5337 24.377C20.5351 25.3877 21.2061 26.275 22.1783 26.5512V27.0501C22.1783 27.3901 22.454 27.666 22.7942 27.666C23.1341 27.666 23.4101 27.3901 23.4101 27.0501V26.5512C24.4954 26.2437 25.188 25.1832 25.0328 24.0657C24.8776 22.9484 23.9223 22.1168 22.7942 22.1168C22.2259 22.1168 21.7655 21.6563 21.7655 21.0883C21.7655 20.5203 22.2259 20.0598 22.7942 20.0598Z" fill="#2A7D03"/>
<path d="M25.9474 16.316L26.8282 14.9734C27.37 14.1513 27.37 13.0855 26.8282 12.2634L25.8302 10.7483C25.6878 10.5267 25.6168 10.2664 25.6272 10.0032L25.7256 8.17404C25.7807 7.1968 25.2509 6.27995 24.3769 5.83968L22.757 5.02676C22.5227 4.90935 22.3324 4.71929 22.215 4.48473L21.3958 2.86489C20.9558 1.99086 20.039 1.4611 19.0617 1.51619L17.2326 1.61483C16.9686 1.62951 16.7071 1.55829 16.4872 1.41154L14.9723 0.413847C14.1502 -0.128183 13.0842 -0.128183 12.2624 0.413847L10.7472 1.41154C10.5254 1.55396 10.2653 1.62493 10.0019 1.61483L8.17274 1.51619C7.1955 1.4611 6.27888 1.99086 5.83862 2.86489L5.02569 4.47871C4.90612 4.7152 4.7139 4.90719 4.47741 5.02676L2.85757 5.84594C1.98354 6.28596 1.45378 7.20282 1.50887 8.18006L1.60751 10.0092C1.62218 10.2731 1.55097 10.5346 1.40422 10.7545L0.406523 12.2697C-0.135508 13.0915 -0.135508 14.1575 0.406523 14.9796L1.40422 16.4946C1.54664 16.7164 1.61761 16.9764 1.60751 17.2399L1.50887 19.069C1.45378 20.0463 1.98354 20.9631 2.85757 21.4031L4.47741 22.2223C4.71197 22.3397 4.90203 22.5298 5.01944 22.7643L5.83862 24.3842C6.27984 25.2573 7.19598 25.7865 8.17274 25.7329L10.0019 25.6345C10.2658 25.6196 10.5273 25.6908 10.7472 25.8375L12.2624 26.8355C13.0842 27.3773 14.1502 27.3773 14.9723 26.8355L16.3147 25.9547C17.6971 28.7897 20.7621 30.3963 23.8801 29.9207C26.998 29.4448 29.4443 26.9969 29.9182 23.8787C30.3919 20.7605 28.7831 17.6965 25.9474 16.316ZM15.8098 24.803L14.2948 25.8007C13.8837 26.0716 13.3508 26.0716 12.9399 25.8007L11.4247 24.803C10.9837 24.5129 10.4612 24.3724 9.93428 24.4027L8.10514 24.5011C7.61555 24.5254 7.15749 24.2603 6.93495 23.8236L6.11577 22.2038C5.87879 21.733 5.49651 21.3507 5.02569 21.1137L3.41187 20.3008C2.97425 20.0792 2.70865 19.6204 2.73439 19.1306L2.83303 17.3015C2.86022 16.7748 2.7202 16.253 2.4327 15.8111L1.43501 14.2959C1.16387 13.885 1.16387 13.3518 1.43501 12.9409L2.43896 11.4257C2.7291 10.985 2.86936 10.4622 2.83929 9.93534L2.74065 8.1062C2.71635 7.61686 2.98171 7.15855 3.41812 6.93601L5.03796 6.11683C5.50878 5.87986 5.89106 5.49781 6.12804 5.02676L6.94722 3.40692C7.16855 2.9693 7.62758 2.7037 8.11741 2.72944L9.94655 2.82808C10.4732 2.85527 10.9948 2.71501 11.437 2.42775L12.9521 1.43006C13.3631 1.15893 13.8959 1.15893 14.3071 1.43006L15.8098 2.44002C16.2508 2.73017 16.7733 2.87042 17.3002 2.84035L19.1296 2.74171C19.6189 2.71741 20.077 2.98278 20.2997 3.41919L21.1187 5.03903C21.3557 5.51008 21.7379 5.89213 22.209 6.1291L23.8286 6.94828C24.2662 7.16986 24.5321 7.62864 24.5061 8.11847L24.4077 9.94761C24.3805 10.4742 24.5205 10.9961 24.808 11.4383L25.8057 12.9532C26.0766 13.3641 26.0766 13.8972 25.8057 14.3081L24.808 15.8233C24.7957 15.8419 24.7895 15.8601 24.7772 15.8787C22.2634 15.1603 19.5576 15.8611 17.7087 17.71C15.86 19.5586 15.159 22.2644 15.8776 24.7783C15.8528 24.7787 15.829 24.7874 15.8098 24.803ZM22.7941 28.7693C19.4945 28.7693 16.82 26.0945 16.82 22.7951C16.82 19.4958 19.4945 16.821 22.7941 16.821C26.0934 16.821 28.7682 19.4958 28.7682 22.7951C28.7651 26.0933 26.0922 28.7661 22.7941 28.7693Z" fill="#2A7D03"/>
</g>
<defs>
<clipPath id="clip0_1_3171">
<rect width="30" height="30" fill="white"/>
</clipPath>
</defs>
</svg>
