<svg width="30" height="30" viewBox="0 0 30 30" fill="none" xmlns="http://www.w3.org/2000/svg">
<path d="M28.3058 4.03289L27.0238 2.90405L28.3058 1.77543C28.5051 1.59965 28.5733 1.32568 28.4797 1.07712C28.3856 0.828322 28.1533 0.667647 27.8876 0.667647H22.5826V0.439681C22.5826 0.196838 22.3857 0 22.1429 0C21.9001 0 21.7032 0.196838 21.7032 0.439681V6.36954L18.0922 8.33037C18.0722 8.17152 18.0246 8.01543 17.9493 7.86848L17.4405 6.87514C17.0913 6.19307 16.2522 5.92276 15.5706 6.27181L15.1771 6.47322C14.8466 6.6426 14.6019 6.93007 14.488 7.28346C14.374 7.63663 14.4044 8.01314 14.5738 8.34341L15.0826 9.33699C15.2014 9.56884 15.3769 9.75241 15.5834 9.88104C15.3133 10.2447 15.1851 10.692 15.0533 11.1566L14.9585 11.4921C14.8924 11.7258 15.0284 11.9689 15.262 12.0348C15.3019 12.0463 15.3421 12.0515 15.3817 12.0515C15.5735 12.0515 15.7498 11.9252 15.8047 11.7313L15.8995 11.3965C16.0922 10.7169 16.2105 10.353 16.5873 10.1484L17.2627 9.78148L17.346 9.7389C17.3737 9.72471 17.3996 9.70869 17.4259 9.6929L22.2397 7.07884C22.2093 7.68057 21.8854 8.24911 21.3521 8.57298L18.2217 10.475C18.218 10.477 18.2144 10.4791 18.2109 10.4814L17.2366 11.0733C17.0292 11.1994 16.9631 11.4699 17.0892 11.6775C17.208 11.8732 17.4552 11.9428 17.6568 11.8446L16.9175 14.0794L16.3772 14.301L14.9077 14.9032L15.3312 13.4063C15.3971 13.1726 15.2614 12.9295 15.0277 12.8634C14.7937 12.797 14.5509 12.9332 14.4848 13.1669L13.8157 15.5328C13.807 15.5632 13.8013 15.5967 13.7999 15.6285L13.6249 18.8447C13.6196 18.9674 13.6457 19.1993 13.5889 19.319L11.6443 23.41H10.2312C9.40336 23.41 8.73 24.0834 8.73 24.911V26.1801C8.54048 26.0934 8.33014 26.0449 8.10835 26.0449H4.51972C3.69209 26.0449 3.01872 26.718 3.01872 27.5459V29.1206H1.96312C1.72028 29.1206 1.52344 29.3174 1.52344 29.5603C1.52344 29.8031 1.72028 29.9999 1.96312 29.9999H27.8871C28.13 29.9999 28.3268 29.8031 28.3268 29.5603C28.3268 29.3174 28.13 29.1206 27.8871 29.1206H26.7436V17.7875C26.7436 16.9599 26.0703 16.2865 25.2426 16.2865H22.5826V8.61601C23.0701 7.95523 23.2507 7.08914 23.0243 6.26609C22.9888 6.13677 22.8961 6.03057 22.7726 5.97815C22.7119 5.95229 22.6469 5.94085 22.5826 5.94336V5.14068H27.8874C28.1533 5.14068 28.3856 4.98 28.4795 4.73144C28.5733 4.48287 28.5051 4.20867 28.3058 4.03289ZM15.325 7.55354C15.3669 7.42377 15.4566 7.31802 15.5779 7.256L15.9713 7.05458C16.0455 7.01659 16.1247 6.99851 16.203 6.99851C16.3884 6.99851 16.5676 7.0999 16.6578 7.27591L17.1668 8.26948C17.2856 8.50157 17.2087 8.78287 16.9974 8.925L16.8541 9.00259L16.5518 9.15754C16.3016 9.28572 15.9935 9.18638 15.8654 8.93599L15.3563 7.94264C15.2943 7.82133 15.2831 7.68309 15.325 7.55354ZM14.4415 23.5453C14.292 23.4771 14.1295 23.4324 13.9588 23.4166L14.4415 22.7755V23.5453ZM16.5291 20.0024C16.7406 19.749 16.799 19.4531 16.8461 19.2146C16.858 19.1578 17.075 17.9727 17.075 17.9727C17.075 17.9727 17.2803 18.1006 17.3018 18.1098C17.3167 18.1164 17.3272 18.1311 17.3288 18.1482L17.568 20.5796H16.0945L16.5291 20.0024ZM19.1292 17.5756L18.758 20.5776H18.4515L18.2041 18.0622C18.1725 17.7399 17.9752 17.4586 17.6861 17.3188L17.2439 17.0384L17.5385 15.4058C17.5385 15.4058 18.7795 16.88 18.8083 16.9175C19.0651 17.2515 19.153 17.3851 19.1292 17.5756ZM14.3799 19.7035C14.4687 19.4361 14.5099 19.164 14.5031 18.8873L14.6628 15.9539L16.6964 15.1206L16.3268 17.1682C16.3257 17.1737 16.3245 17.1794 16.3238 17.1849L16.018 18.8779C15.9782 19.0532 15.9434 19.3192 15.834 19.4636L12.8629 23.41H12.618L14.3799 19.7035ZM3.89808 27.5456C3.89808 27.203 4.17686 26.9242 4.51972 26.9242H8.10835C8.45122 26.9242 8.73022 27.203 8.73022 27.5456V29.1206H3.89808V27.5456ZM9.60936 27.5456V24.911C9.60936 24.5681 9.88836 24.2894 10.2312 24.2894H13.8199C14.1627 24.2894 14.4415 24.5681 14.4415 24.911V29.1206H9.60959V27.5456H9.60936ZM25.8643 17.7875V29.1206H21.0324V26.4843C21.0324 26.2415 20.8355 26.0446 20.5927 26.0446C20.3496 26.0446 20.1528 26.2415 20.1528 26.4843V29.1206H15.3209V22.0804C15.3209 21.7378 15.5996 21.459 15.9425 21.459H19.5311C19.874 21.459 20.1528 21.7378 20.1528 22.0804V24.2845C20.1528 24.5274 20.3496 24.7242 20.5925 24.7242C20.8355 24.7242 21.0321 24.5274 21.0321 24.2845V17.7875C21.0321 17.4447 21.3111 17.1659 21.654 17.1659H22.1383C22.1397 17.1659 22.1413 17.1661 22.1429 17.1661C22.1443 17.1661 22.1459 17.1659 22.1472 17.1659H25.2424C25.5853 17.1659 25.8643 17.4449 25.8643 17.7875ZM21.654 16.2865C20.8264 16.2865 20.153 16.9599 20.153 17.7875V20.7149C19.9955 20.643 19.8239 20.5975 19.6433 20.5842L20.0019 17.6838C20.0724 17.1185 19.784 16.7438 19.5053 16.3813C19.4757 16.3428 17.7667 14.3136 17.7667 14.3136L18.8152 11.1435L21.7032 9.38894V16.2865H21.654ZM22.5826 4.26108V1.54724H27.2341L26.2323 2.42935C26.0959 2.54951 26.0176 2.72254 26.0176 2.90428C26.0176 3.08601 26.0959 3.25904 26.2323 3.3792L27.2341 4.26131H22.5826V4.26108Z" fill="#2A7D03"/>
</svg>
