<svg width="65" height="65" viewBox="0 0 65 65" fill="none" xmlns="http://www.w3.org/2000/svg">
<path d="M61.3291 8.73793L58.5516 6.2921L61.3291 3.84677C61.7611 3.46591 61.9089 2.87231 61.706 2.33375C61.5022 1.7947 60.9989 1.44657 60.4231 1.44657H48.9289V0.952642C48.9289 0.426482 48.5024 0 47.9763 0C47.4501 0 47.0236 0.426482 47.0236 0.952642V13.8007L39.1997 18.0491C39.1565 17.705 39.0534 17.3668 38.8902 17.0484L37.7878 14.8961C37.0311 13.4183 35.2131 12.8327 33.7362 13.5889L32.8838 14.0253C32.1677 14.3923 31.6376 15.0152 31.3906 15.7808C31.1436 16.546 31.2096 17.3618 31.5766 18.0774L32.679 20.2301C32.9363 20.7325 33.3167 21.1302 33.764 21.4089C33.1788 22.1969 32.9011 23.1659 32.6155 24.1726L32.4102 24.8996C32.2669 25.4059 32.5614 25.9326 33.0678 26.0754C33.154 26.1002 33.2413 26.1116 33.3271 26.1116C33.7427 26.1116 34.1245 25.8379 34.2436 25.4178L34.4489 24.6923C34.8664 23.22 35.1228 22.4315 35.9391 21.9881L37.4025 21.1932L37.583 21.101C37.643 21.0702 37.6991 21.0355 37.7561 21.0013L48.1861 15.3375C48.1201 16.6412 47.4184 17.8731 46.2629 18.5748L39.4804 22.6958C39.4724 22.7003 39.4645 22.7047 39.4571 22.7097L37.346 23.9921C36.8967 24.2654 36.7534 24.8515 37.0266 25.3013C37.284 25.7253 37.8196 25.8761 38.2565 25.6633L36.6547 30.5054L35.4838 30.9854L32.3001 32.2902L33.2175 29.0469C33.3603 28.5406 33.0663 28.0139 32.5599 27.8706C32.0531 27.7268 31.527 28.0219 31.3836 28.5282L29.9341 33.6544C29.9153 33.7204 29.9029 33.7928 29.8999 33.8617L29.5205 40.8302C29.5091 41.096 29.5656 41.5984 29.4427 41.8577L25.2294 50.7216H22.1677C20.374 50.7216 18.915 52.1806 18.915 53.9738V56.7236C18.5044 56.5357 18.0486 56.4305 17.5681 56.4305H9.79273C7.99952 56.4305 6.54056 57.889 6.54056 59.6827V63.0946H4.25342C3.72726 63.0946 3.30078 63.5211 3.30078 64.0472C3.30078 64.5734 3.72726 64.9999 4.25342 64.9999H60.4221C60.9483 64.9999 61.3748 64.5734 61.3748 64.0472C61.3748 63.5211 60.9483 63.0946 60.4221 63.0946H57.9446V38.5396C57.9446 36.7464 56.4856 35.2874 54.6924 35.2874H48.9289V18.668C49.9852 17.2363 50.3765 15.3598 49.886 13.5765C49.8092 13.2963 49.6083 13.0662 49.3405 12.9527C49.2091 12.8966 49.0683 12.8718 48.9289 12.8773V11.1381H60.4226C60.9989 11.1381 61.5022 10.79 61.7055 10.2514C61.9089 9.71289 61.7611 9.11879 61.3291 8.73793ZM33.2041 16.366C33.2949 16.0848 33.4893 15.8557 33.7521 15.7213L34.6046 15.2849C34.7653 15.2026 34.9368 15.1634 35.1064 15.1634C35.5081 15.1634 35.8964 15.3831 36.0918 15.7645L37.1947 17.9172C37.4521 18.4201 37.2855 19.0295 36.8277 19.3375L36.5173 19.5056L35.8622 19.8413C35.3202 20.1191 34.6527 19.9038 34.375 19.3613L33.2721 17.2091C33.1377 16.9462 33.1134 16.6467 33.2041 16.366ZM31.2899 51.0147C30.9661 50.8669 30.614 50.7702 30.244 50.736L31.2899 49.347V51.0147ZM35.8131 43.3385C36.2713 42.7896 36.3978 42.1484 36.4999 41.6316C36.5257 41.5086 36.9959 38.9408 36.9959 38.9408C36.9959 38.9408 37.4407 39.218 37.4873 39.2379C37.5195 39.2522 37.5423 39.284 37.5458 39.3212L38.064 44.5892H34.8714L35.8131 43.3385ZM41.4466 38.0804L40.6423 44.5848H39.9783L39.4422 39.1347C39.3737 38.4365 38.9463 37.827 38.3199 37.524L37.3618 36.9165L38.0001 33.3792C38.0001 33.3792 40.6889 36.5733 40.7514 36.6547C41.3078 37.3782 41.4982 37.6678 41.4466 38.0804ZM31.1565 42.6909C31.3489 42.1117 31.4382 41.522 31.4233 40.9225L31.7695 34.5669L36.1756 32.7613L35.3747 37.1977C35.3722 37.2096 35.3698 37.222 35.3683 37.2339L34.7057 40.9021C34.6195 41.282 34.5441 41.8582 34.307 42.1712L27.8696 50.7216H27.339L31.1565 42.6909ZM8.44584 59.6822C8.44584 58.9399 9.04986 58.3358 9.79273 58.3358H17.5681C18.311 58.3358 18.9155 58.9399 18.9155 59.6822V63.0946H8.44584V59.6822ZM20.8203 59.6822V53.9738C20.8203 53.2309 21.4248 52.6269 22.1677 52.6269H29.943C30.6859 52.6269 31.2899 53.2309 31.2899 53.9738V63.0946H20.8208V59.6822H20.8203ZM56.0393 38.5396V63.0946H45.5701V57.3827C45.5701 56.8565 45.1437 56.4301 44.6175 56.4301C44.0908 56.4301 43.6644 56.8565 43.6644 57.3827V63.0946H33.1952V47.8409C33.1952 47.0985 33.7992 46.4945 34.5421 46.4945H42.3175C43.0603 46.4945 43.6644 47.0985 43.6644 47.8409V52.6165C43.6644 53.1427 44.0908 53.5692 44.617 53.5692C45.1437 53.5692 45.5696 53.1427 45.5696 52.6165V38.5396C45.5696 37.7967 46.1741 37.1927 46.917 37.1927H47.9664C47.9693 37.1927 47.9728 37.1932 47.9763 37.1932C47.9793 37.1932 47.9827 37.1927 47.9857 37.1927H54.6919C55.4348 37.1927 56.0393 37.7972 56.0393 38.5396ZM46.917 35.2874C45.1238 35.2874 43.6648 36.7464 43.6648 38.5396V44.8823C43.3237 44.7266 42.9517 44.6279 42.5605 44.5991L43.3375 38.315C43.4903 37.0901 42.8654 36.2783 42.2614 35.4927C42.1974 35.4094 38.4945 31.0127 38.4945 31.0127L40.7663 24.1444L47.0236 20.3427V35.2874H46.917ZM48.9289 9.23235V3.35235H59.0073L56.8367 5.26359C56.5411 5.52394 56.3715 5.89885 56.3715 6.2926C56.3715 6.68635 56.5411 7.06126 56.8367 7.32161L59.0073 9.23285H48.9289V9.23235Z" fill="white"/>
</svg>
