<svg width="50" height="50" viewBox="0 0 50 50" fill="none" xmlns="http://www.w3.org/2000/svg">
<g clip-path="url(#clip0_1_5062)">
<path d="M25 49.999C38.8071 49.999 50 38.8061 50 24.999C50 11.1919 38.8071 -0.000976562 25 -0.000976562C11.1929 -0.000976562 0 11.1919 0 24.999C0 38.8061 11.1929 49.999 25 49.999Z" fill="#DC4E41"/>
<path d="M8.7036 26.1191C8.61491 30.4205 11.5776 34.5253 15.653 35.864C19.4919 37.1538 24.2117 36.1889 26.7662 32.9014C28.6312 30.5978 29.055 27.5269 28.8532 24.6578C25.5656 24.6284 22.2781 24.6382 18.9954 24.6431C18.9901 25.8142 18.9954 26.9809 19.0003 28.1521C20.9687 28.2065 22.9376 28.1815 24.906 28.2212C24.4091 29.924 23.2772 31.5087 21.5592 32.1237C18.2423 33.5854 14.0099 31.6758 12.9662 28.1962C11.7064 24.8641 13.7688 20.843 17.174 19.8737C19.2855 19.1308 21.4607 19.9673 23.2674 21.065C24.1828 20.2084 25.0393 19.2931 25.8807 18.3679C23.828 16.6504 21.1902 15.5973 18.4785 15.8286C13.1579 15.8919 8.50172 20.8038 8.7036 26.1191Z" fill="#DC4E41"/>
<path d="M35.2502 21.689C35.2404 22.6685 35.2302 23.6529 35.2253 24.632C34.2409 24.6418 33.2618 24.6467 32.2822 24.6516C32.2822 25.6312 32.2822 26.6054 32.2822 27.5849C33.2618 27.5898 34.2462 27.5947 35.2253 27.605C35.2351 28.5845 35.2351 29.5636 35.2449 30.548C36.2195 30.548 37.1991 30.5431 38.1782 30.548C38.1835 29.5636 38.188 28.5845 38.1982 27.6001C39.1773 27.5952 40.1617 27.5902 41.1413 27.5853C41.1413 26.6058 41.1413 25.6316 41.1413 24.6521C40.1622 24.6472 39.1777 24.6423 38.1982 24.6325C38.1929 23.6529 38.1835 22.6685 38.1782 21.6894C37.1991 21.689 36.2244 21.689 35.2502 21.689Z" fill="#DC4E41"/>
<path d="M8.7036 26.1185C8.50172 20.8033 13.1574 15.8913 18.478 15.8276C21.1898 15.5963 23.828 16.6494 25.8802 18.3669C25.0384 19.2925 24.1819 20.2074 23.2669 21.064C21.4603 19.9663 19.2851 19.1299 17.1736 19.8728C13.7679 20.8425 11.7055 24.8636 12.9658 28.1952C14.0095 31.6749 18.2418 33.5845 21.5588 32.1227C23.2763 31.5078 24.4087 29.923 24.9056 28.2202C22.9372 28.181 20.9683 28.2055 18.9999 28.1511C18.995 26.98 18.9901 25.8133 18.995 24.6421C22.2776 24.6372 25.5652 24.6274 28.8527 24.6568C29.0546 27.5263 28.6312 30.5973 26.7657 32.9004C24.2113 36.188 19.4919 37.1528 15.6526 35.8631C11.578 34.5248 8.61491 30.4199 8.7036 26.1185Z" fill="white"/>
<path d="M35.2502 21.689C36.2249 21.689 37.1991 21.689 38.1782 21.689C38.1835 22.6685 38.1929 23.6529 38.1982 24.632C39.1773 24.6418 40.1617 24.6467 41.1413 24.6516C41.1413 25.6312 41.1413 26.6054 41.1413 27.5849C40.1622 27.5898 39.1777 27.5947 38.1982 27.5996C38.1884 28.584 38.1835 29.5631 38.1782 30.5476C37.1991 30.5427 36.2191 30.5476 35.2449 30.5476C35.2355 29.5631 35.2355 28.584 35.2253 27.6045C34.2462 27.5943 33.2618 27.5898 32.2822 27.5845C32.2822 26.6049 32.2822 25.6307 32.2822 24.6512C33.2618 24.6463 34.2413 24.6414 35.2253 24.6316C35.2302 23.6529 35.24 22.6685 35.2502 21.689Z" fill="white"/>
</g>
<defs>
<clipPath id="clip0_1_5062">
<rect width="50" height="50" fill="white"/>
</clipPath>
</defs>
</svg>
