<svg width="50" height="50" viewBox="0 0 50 50" fill="none" xmlns="http://www.w3.org/2000/svg">
<g clip-path="url(#clip0_1_5058)">
<path d="M25.0002 50.0003C38.8074 50.0003 50.0003 38.8074 50.0003 25.0002C50.0003 11.193 38.8074 0 25.0002 0C11.193 0 0 11.193 0 25.0002C0 38.8074 11.193 50.0003 25.0002 50.0003Z" fill="#E27E35"/>
<path d="M28.217 31.9024C29.8175 31.5361 31.3619 30.9037 32.78 30.0115C33.8543 29.3321 34.1804 27.9117 33.5016 26.8355C32.8222 25.7567 31.404 25.4316 30.3278 26.1097C27.1074 28.1339 22.9658 28.1316 19.7453 26.1097C18.6665 25.4319 17.2506 25.757 16.5715 26.8355C15.8924 27.9097 16.2185 29.3321 17.2927 30.0115C18.7109 30.9037 20.2533 31.5361 21.8539 31.9024L17.4683 36.2925C16.5673 37.1935 16.5673 38.6474 17.4683 39.5461C17.9189 39.9945 18.5068 40.2206 19.0928 40.2206C19.683 40.2206 20.2689 39.9945 20.7219 39.5461L25.0387 35.2313L29.3555 39.5461C30.2565 40.4471 31.7084 40.4471 32.6094 39.5461C33.5104 38.6471 33.5104 37.189 32.6094 36.2925L28.217 31.9024ZM25.0387 14.384C26.8342 14.384 28.2922 15.8434 28.2922 17.6389C28.2922 19.4302 26.8342 20.8896 25.0387 20.8896C23.2474 20.8896 21.7828 19.4302 21.7828 17.6389C21.7828 15.8434 23.2474 14.384 25.0387 14.384ZM25.0387 25.4916C29.3714 25.4916 32.8933 21.9671 32.8933 17.6389C32.8933 13.302 29.3714 9.77783 25.0387 9.77783C20.704 9.77783 17.1818 13.3023 17.1818 17.6347C17.1818 21.9671 20.704 25.4916 25.0387 25.4916Z" fill="white"/>
</g>
<defs>
<clipPath id="clip0_1_5058">
<rect width="50" height="50" fill="white"/>
</clipPath>
</defs>
</svg>
