<svg width="30" height="30" viewBox="0 0 30 30" fill="none" xmlns="http://www.w3.org/2000/svg">
<g clip-path="url(#clip0_1_1123)">
<path d="M15.0001 30.0002C23.2844 30.0002 30.0002 23.2844 30.0002 15.0001C30.0002 6.71577 23.2844 0 15.0001 0C6.71577 0 0 6.71577 0 15.0001C0 23.2844 6.71577 30.0002 15.0001 30.0002Z" fill="#E27E35"/>
<path d="M16.9296 19.1414C17.8899 18.9217 18.8165 18.5422 19.6674 18.0069C20.312 17.5993 20.5076 16.747 20.1004 16.1013C19.6927 15.454 18.8418 15.2589 18.1961 15.6658C16.2638 16.8803 13.7789 16.879 11.8466 15.6658C11.1993 15.2591 10.3498 15.4542 9.94231 16.1013C9.53486 16.7458 9.73051 17.5993 10.3751 18.0069C11.226 18.5422 12.1514 18.9217 13.1117 19.1414L10.4804 21.7755C9.93978 22.3161 9.93978 23.1884 10.4804 23.7277C10.7508 23.9967 11.1035 24.1324 11.4551 24.1324C11.8092 24.1324 12.1608 23.9967 12.4325 23.7277L15.0226 21.1388L17.6127 23.7277C18.1533 24.2683 19.0244 24.2683 19.565 23.7277C20.1056 23.1882 20.1056 22.3134 19.565 21.7755L16.9296 19.1414ZM15.0226 8.63043C16.0999 8.63043 16.9748 9.50605 16.9748 10.5834C16.9748 11.6581 16.0999 12.5338 15.0226 12.5338C13.9478 12.5338 13.0691 11.6581 13.0691 10.5834C13.0691 9.50605 13.9478 8.63043 15.0226 8.63043ZM15.0226 15.295C17.6222 15.295 19.7354 13.1803 19.7354 10.5834C19.7354 7.9812 17.6222 5.8667 15.0226 5.8667C12.4218 5.8667 10.3085 7.9814 10.3085 10.5808C10.3085 13.1803 12.4218 15.295 15.0226 15.295Z" fill="white"/>
</g>
<defs>
<clipPath id="clip0_1_1123">
<rect width="30" height="30" fill="white"/>
</clipPath>
</defs>
</svg>
