<svg width="20" height="20" viewBox="0 0 20 20" fill="none" xmlns="http://www.w3.org/2000/svg">
<g id="individual 1" clip-path="url(#clip0_1_3887)">
<g id="Group">
<path id="Vector" d="M7.37281 8.63062L6.82 8.4925L6.74781 8.20437C7.05594 8.01562 7.29031 7.725 7.40937 7.37813L7.59469 7.20156C7.915 6.89625 8.15812 6.51344 8.29781 6.09406C8.39062 5.81594 8.4375 5.5275 8.4375 5.235V5C8.4375 4.52937 8.28188 4.06344 8 3.68781C7.58938 3.13969 6.935 2.8125 6.25 2.8125H5C4.315 2.8125 3.66062 3.13969 3.25 3.6875C2.96812 4.06344 2.8125 4.52937 2.8125 5V5.235C2.8125 5.5275 2.85938 5.81594 2.95188 6.09375C3.09156 6.51312 3.335 6.89594 3.65531 7.20156L3.84031 7.37781C3.95937 7.725 4.19375 8.01562 4.50187 8.20406L4.42969 8.49219L3.87719 8.63031C3.48531 8.72813 3.12687 8.93094 2.84094 9.21688C2.41969 9.63875 2.1875 10.1988 2.1875 10.7947V12.8125H3.4375H4.0625H9.0625V10.7947C9.0625 10.1988 8.83031 9.63875 8.40906 9.21719C8.12313 8.93125 7.76469 8.72844 7.37281 8.63062ZM7.5 4.06281C7.70156 4.33094 7.8125 4.66406 7.8125 5V5.235C7.8125 5.46 7.77625 5.6825 7.70531 5.89594C7.65438 6.04875 7.58437 6.19438 7.5 6.33125V5.85031C7.5 5.58094 7.32812 5.3425 7.07281 5.25781C6.6475 5.11594 6.25531 4.87375 5.9375 4.55781V3.4375H6.25C6.73938 3.4375 7.20656 3.67125 7.5 4.06281ZM3.54469 5.89594C3.47375 5.6825 3.4375 5.46 3.4375 5.235V5C3.4375 4.66406 3.54844 4.33094 3.75 4.0625C4.04313 3.67125 4.51062 3.4375 5 3.4375H5.3125V4.5575C4.99469 4.87344 4.60281 5.11562 4.1775 5.25719C3.92188 5.3425 3.75 5.58063 3.75 5.85031V6.33125C3.66562 6.19438 3.59563 6.04875 3.54469 5.89594ZM4.375 5.85031C4.83531 5.69719 5.26406 5.44688 5.625 5.1225C5.98594 5.44688 6.41437 5.69688 6.875 5.85031V6.875C6.875 7.39187 6.45437 7.8125 5.9375 7.8125H5.3125C4.79562 7.8125 4.375 7.39187 4.375 6.875V5.85031ZM5.3125 8.4375H5.9375C6.0125 8.4375 6.08438 8.42563 6.15656 8.41531L6.22937 8.70625C6.10531 8.92531 5.87906 9.0625 5.625 9.0625C5.37094 9.0625 5.14469 8.92531 5.02063 8.70625L5.09344 8.41531C5.16562 8.42563 5.2375 8.4375 5.3125 8.4375ZM8.4375 12.1875H7.8125V10.9375H7.1875V12.1875H4.0625V10.9375H3.4375V12.1875H2.8125V10.7947C2.8125 10.3656 2.97969 9.9625 3.28281 9.65906C3.48875 9.45344 3.74656 9.30719 4.02875 9.23656L4.5325 9.11062C4.77688 9.47031 5.18125 9.6875 5.625 9.6875C6.06875 9.6875 6.47312 9.47031 6.7175 9.11094L7.22125 9.23688C7.50312 9.3075 7.76125 9.45344 7.96719 9.65938C8.27031 9.9625 8.4375 10.3656 8.4375 10.7947V12.1875Z" fill="white"/>
<path id="Vector_2" d="M14.0625 15.9375H18.4375V14.0625H14.0625V15.9375ZM15.9375 15.3125V14.6875H16.5625V15.3125H15.9375ZM17.8125 15.3125H17.1875V14.6875H17.8125V15.3125ZM14.6875 14.6875H15.3125V15.3125H14.6875V14.6875Z" fill="white"/>
<path id="Vector_3" d="M18.75 1.5625H10.9375V0.9375C10.9375 0.592812 10.6572 0.3125 10.3125 0.3125H0.9375C0.592812 0.3125 0.3125 0.592812 0.3125 0.9375V14.6875C0.3125 15.0322 0.592812 15.3125 0.9375 15.3125H1.5625V16.25C1.5625 16.7669 1.98312 17.1875 2.5 17.1875H7.41219L6.94344 19.0625H5.9375V19.6875H15.3125V19.0625H14.3066L13.8378 17.1875H18.75C19.2669 17.1875 19.6875 16.7669 19.6875 16.25V2.5C19.6875 1.98312 19.2669 1.5625 18.75 1.5625ZM18.75 2.1875C18.9222 2.1875 19.0625 2.3275 19.0625 2.5V12.8125H10.9375V2.1875H18.75ZM0.9375 0.9375H10.3125L10.3128 14.6875H0.9375V0.9375ZM13.6622 19.0625H7.58781L8.05656 17.1875H13.1934L13.6622 19.0625ZM18.75 16.5625H2.5C2.32781 16.5625 2.1875 16.4225 2.1875 16.25V15.3125H10.3125C10.6572 15.3125 10.9375 15.0322 10.9375 14.6875V13.4375H19.0625V16.25C19.0625 16.4225 18.9222 16.5625 18.75 16.5625Z" fill="white"/>
<path id="Vector_4" d="M17.1875 5.96906V5.3125H16.5625V5.9375H15.3125V7.5C15.3125 8.36156 16.0134 9.0625 16.875 9.0625C17.3919 9.0625 17.8125 9.48313 17.8125 10V10.9375H16.875C16.3581 10.9375 15.9375 10.5169 15.9375 10V9.0625H15.3125V10C15.3125 10.7544 15.8503 11.3856 16.5625 11.5309V12.1875H17.1875V11.5625H18.4375V10C18.4375 9.13844 17.7366 8.4375 16.875 8.4375C16.3581 8.4375 15.9375 8.01688 15.9375 7.5V6.5625H16.875C17.3919 6.5625 17.8125 6.98312 17.8125 7.5V8.4375H18.4375V7.5C18.4375 6.74563 17.8997 6.11437 17.1875 5.96906Z" fill="white"/>
<path id="Vector_5" d="M18.4375 2.8125H11.5625V4.6875H18.4375V2.8125ZM17.8125 4.0625H12.1875V3.4375H17.8125V4.0625Z" fill="white"/>
<path id="Vector_6" d="M11.5625 5.9375H12.8125V6.5625H11.5625V5.9375Z" fill="white"/>
<path id="Vector_7" d="M13.4375 5.9375H14.6875V6.5625H13.4375V5.9375Z" fill="white"/>
<path id="Vector_8" d="M11.5625 7.1875H14.6875V7.8125H11.5625V7.1875Z" fill="white"/>
<path id="Vector_9" d="M11.5625 8.4375H14.6875V9.0625H11.5625V8.4375Z" fill="white"/>
<path id="Vector_10" d="M11.5625 9.6875H14.6875V10.3125H11.5625V9.6875Z" fill="white"/>
<path id="Vector_11" d="M11.5625 10.9375H12.1875V11.5625H11.5625V10.9375Z" fill="white"/>
<path id="Vector_12" d="M12.8125 10.9375H13.4375V11.5625H12.8125V10.9375Z" fill="white"/>
<path id="Vector_13" d="M14.0625 10.9375H14.6875V11.5625H14.0625V10.9375Z" fill="white"/>
</g>
</g>
<defs>
<clipPath id="clip0_1_3887">
<rect width="20" height="20" fill="white"/>
</clipPath>
</defs>
</svg>
