<svg width="20" height="20" viewBox="0 0 20 20" fill="none" xmlns="http://www.w3.org/2000/svg">
<path d="M18.5323 1.17631H12.1356C11.9735 1.17631 11.8421 1.30775 11.8421 1.46986C11.8421 1.63197 11.9735 1.76342 12.1356 1.76342H18.5323C19.0178 1.76342 19.4129 2.15846 19.4129 2.64404V12.9178H18.0055L18.0055 3.90029C18.0055 3.41471 17.6104 3.01967 17.1249 3.01967H2.87508C2.38949 3.01967 1.99445 3.41471 1.99445 3.90029V12.9178H0.58707V2.644C0.58707 2.15842 0.982149 1.76338 1.4677 1.76338H10.9614C11.1236 1.76338 11.255 1.63193 11.255 1.46982C11.255 1.30771 11.1236 1.17627 10.9614 1.17627H1.4677C0.658399 1.17631 0 1.83471 0 2.644V14.5131C0 15.3224 0.658399 15.9808 1.4677 15.9808H7.92203L7.62617 18.2371H6.58313C6.42098 18.2371 6.28957 18.3685 6.28957 18.5306C6.28957 18.6927 6.42098 18.8242 6.58313 18.8242H13.4168C13.579 18.8242 13.7104 18.6927 13.7104 18.5306C13.7104 18.3685 13.579 18.2371 13.4168 18.2371H12.3738L12.078 15.9808H15.1885C15.3506 15.9808 15.482 15.8493 15.482 15.6872C15.482 15.5251 15.3506 15.3937 15.1885 15.3937H1.4677C0.982149 15.3937 0.58707 14.9986 0.58707 14.513V13.5048H19.4129V14.513C19.4129 14.9986 19.0178 15.3937 18.5323 15.3937H16.3626C16.2005 15.3937 16.0691 15.5251 16.0691 15.6872C16.0691 15.8493 16.2005 15.9808 16.3626 15.9808H18.5323C19.3416 15.9808 20 15.3224 20 14.5131V2.644C20 1.83471 19.3416 1.17631 18.5323 1.17631ZM11.7817 18.2371H8.21832L8.51418 15.9808H11.4858L11.7817 18.2371ZM2.58152 3.90025C2.58152 3.73838 2.7132 3.6067 2.87508 3.6067H17.1249C17.2868 3.6067 17.4185 3.73838 17.4185 3.90025V5.34498H2.58152V3.90025ZM2.58152 5.93209H17.4185V12.9178H15.9914V11.6092C15.9914 11.4471 15.86 11.3156 15.6978 11.3156H10.7027C10.5405 11.3156 10.4091 11.4471 10.4091 11.6092V12.9178H9.59082V11.6092C9.59082 11.4471 9.45941 11.3156 9.29727 11.3156H4.30219C4.14004 11.3156 4.00863 11.4471 4.00863 11.6092V12.9178H2.58152V5.93209ZM15.4043 12.9177H10.9963V11.9027H15.4043V12.9177ZM9.00375 12.9177H4.59574V11.9027H9.00375V12.9177Z" fill="white"/>
<path d="M3.70086 4.00244C3.45227 4.00244 3.25 4.20471 3.25 4.45334C3.25 4.70197 3.45227 4.9042 3.70086 4.9042C3.94945 4.9042 4.15172 4.70193 4.15172 4.45334C4.15176 4.20475 3.94949 4.00244 3.70086 4.00244Z" fill="white"/>
<path d="M5.14813 4.00244C4.89953 4.00244 4.69727 4.20471 4.69727 4.45334C4.69727 4.70197 4.89953 4.9042 5.14813 4.9042C5.39672 4.9042 5.59899 4.70193 5.59899 4.45334C5.59899 4.20475 5.39672 4.00244 5.14813 4.00244Z" fill="white"/>
<path d="M6.59539 4.00244C6.3468 4.00244 6.14453 4.20471 6.14453 4.45334C6.14453 4.70197 6.3468 4.9042 6.59539 4.9042C6.84402 4.9042 7.04629 4.70193 7.04629 4.45334C7.04629 4.20475 6.84402 4.00244 6.59539 4.00244Z" fill="white"/>
<path d="M4.30234 10.599H6.43785C6.6 10.599 6.73141 10.4675 6.73141 10.3054C6.73141 10.1433 6.6 10.0119 6.43785 10.0119H4.59586V7.43619H15.4038V10.0119H7.61199C7.44984 10.0119 7.31844 10.1433 7.31844 10.3054C7.31844 10.4675 7.44984 10.599 7.61199 10.599H15.6973C15.8595 10.599 15.9909 10.4675 15.9909 10.3054V7.14267C15.9909 6.98057 15.8595 6.84912 15.6973 6.84912H4.30234C4.1402 6.84912 4.00879 6.98057 4.00879 7.14267V10.3055C4.00879 10.4676 4.1402 10.599 4.30234 10.599Z" fill="white"/>
</svg>
