<svg width="30" height="30" viewBox="0 0 30 30" fill="none" xmlns="http://www.w3.org/2000/svg">
<g clip-path="url(#clip0_1_3199)">
<path d="M28.9454 25.4719C28.9018 25.4214 28.8478 25.381 28.7871 25.3535C28.7264 25.326 28.6604 25.312 28.5938 25.3125H28.125V10.7812C28.1239 10.4086 27.9754 10.0516 27.7119 9.78811C27.4485 9.52463 27.0914 9.37611 26.7188 9.375H26.25V2.34375C26.2489 1.97113 26.1004 1.61409 25.8369 1.35061C25.5735 1.08713 25.2164 0.938613 24.8438 0.9375H5.1563C4.78368 0.938613 4.42664 1.08713 4.16316 1.35061C3.89968 1.61409 3.75116 1.97113 3.75005 2.34375V9.375H3.2813C2.90868 9.37611 2.55164 9.52463 2.28816 9.78811C2.02468 10.0516 1.87616 10.4086 1.87505 10.7812V25.3125H1.4063C1.33965 25.312 1.27369 25.326 1.21298 25.3535C1.15228 25.381 1.09828 25.4214 1.05474 25.4719C1.01038 25.5228 0.977395 25.5826 0.957994 25.6472C0.938594 25.7119 0.933221 25.78 0.942236 25.8469L1.23286 27.9469C1.23755 27.9656 1.23755 27.9797 1.24224 27.9984C1.3185 28.3024 1.49415 28.5723 1.74128 28.765C1.98841 28.9578 2.29287 29.0625 2.6063 29.0625H27.3938C27.7072 29.0625 28.0117 28.9578 28.2588 28.765C28.5059 28.5723 28.6816 28.3024 28.7579 27.9984C28.7625 27.9797 28.7625 27.9656 28.7672 27.9469L29.0579 25.8469C29.0669 25.78 29.0615 25.7119 29.0421 25.6472C29.0227 25.5826 28.9897 25.5228 28.9454 25.4719ZM4.68755 2.34375C4.68755 2.21943 4.73693 2.1002 4.82484 2.01229C4.91275 1.92439 5.03198 1.875 5.1563 1.875H24.8438C24.9681 1.875 25.0873 1.92439 25.1753 2.01229C25.2632 2.1002 25.3125 2.21943 25.3125 2.34375V4.6875H4.68755V2.34375ZM4.68755 5.625H25.3125V22.9688C25.3125 23.0931 25.2632 23.2123 25.1753 23.3002C25.0873 23.3881 24.9681 23.4375 24.8438 23.4375H5.1563C5.03198 23.4375 4.91275 23.3881 4.82484 23.3002C4.73693 23.2123 4.68755 23.0931 4.68755 22.9688V5.625ZM2.81255 10.7812C2.81255 10.6569 2.86193 10.5377 2.94984 10.4498C3.03775 10.3619 3.15698 10.3125 3.2813 10.3125H3.75005V22.9688C3.75116 23.3414 3.89968 23.6984 4.16316 23.9619C4.42664 24.2254 4.78368 24.3739 5.1563 24.375H24.8438C25.2164 24.3739 25.5735 24.2254 25.8369 23.9619C26.1004 23.6984 26.2489 23.3414 26.25 22.9688V10.3125H26.7188C26.8431 10.3125 26.9623 10.3619 27.0503 10.4498C27.1382 10.5377 27.1875 10.6569 27.1875 10.7812V25.3125H16.875C16.7507 25.3125 16.6315 25.3619 16.5436 25.4498C16.4557 25.5377 16.4063 25.6569 16.4063 25.7812V26.25H13.5938V25.7812C13.5938 25.6569 13.5444 25.5377 13.4565 25.4498C13.3686 25.3619 13.2494 25.3125 13.125 25.3125H2.81255V10.7812ZM27.8438 27.7922C27.814 27.8884 27.7543 27.9725 27.6734 28.0324C27.5924 28.0923 27.4945 28.1247 27.3938 28.125H2.6063C2.50562 28.1247 2.40766 28.0923 2.32672 28.0324C2.24577 27.9725 2.18606 27.8884 2.1563 27.7922L1.94536 26.25H12.6563V26.7188C12.6563 26.8431 12.7057 26.9623 12.7936 27.0502C12.8815 27.1381 13.0007 27.1875 13.125 27.1875H16.875C16.9994 27.1875 17.1186 27.1381 17.2065 27.0502C17.2944 26.9623 17.3438 26.8431 17.3438 26.7188V26.25H28.0547L27.8438 27.7922Z" fill="#2A7D03"/>
<path d="M9.375 2.8125H10.3125V3.75H9.375V2.8125Z" fill="#2A7D03"/>
<path d="M7.5 2.8125H8.4375V3.75H7.5V2.8125Z" fill="#2A7D03"/>
<path d="M5.625 2.8125H6.5625V3.75H5.625V2.8125Z" fill="#2A7D03"/>
<path d="M6.09375 10.3125H23.9062C24.0306 10.3125 24.1498 10.2631 24.2377 10.1752C24.3256 10.0873 24.375 9.96807 24.375 9.84375V7.03125C24.375 6.90693 24.3256 6.7877 24.2377 6.69979C24.1498 6.61189 24.0306 6.5625 23.9062 6.5625H6.09375C5.96943 6.5625 5.8502 6.61189 5.76229 6.69979C5.67439 6.7877 5.625 6.90693 5.625 7.03125V9.84375C5.625 9.96807 5.67439 10.0873 5.76229 10.1752C5.8502 10.2631 5.96943 10.3125 6.09375 10.3125ZM6.5625 7.5H23.4375V9.375H6.5625V7.5Z" fill="#2A7D03"/>
<path d="M6.09375 15H10.7812C10.9056 15 11.0248 14.9506 11.1127 14.8627C11.2006 14.7748 11.25 14.6556 11.25 14.5312V11.7188C11.25 11.5944 11.2006 11.4752 11.1127 11.3873C11.0248 11.2994 10.9056 11.25 10.7812 11.25H6.09375C5.96943 11.25 5.8502 11.2994 5.76229 11.3873C5.67439 11.4752 5.625 11.5944 5.625 11.7188V14.5312C5.625 14.6556 5.67439 14.7748 5.76229 14.8627C5.8502 14.9506 5.96943 15 6.09375 15ZM6.5625 12.1875H10.3125V14.0625H6.5625V12.1875Z" fill="#2A7D03"/>
<path d="M6.09375 22.5H17.3438C17.4681 22.5 17.5873 22.4506 17.6752 22.3627C17.7631 22.2748 17.8125 22.1556 17.8125 22.0312V16.4062C17.8125 16.2819 17.7631 16.1627 17.6752 16.0748C17.5873 15.9869 17.4681 15.9375 17.3438 15.9375H6.09375C5.96943 15.9375 5.8502 15.9869 5.76229 16.0748C5.67439 16.1627 5.625 16.2819 5.625 16.4062V22.0312C5.625 22.1556 5.67439 22.2748 5.76229 22.3627C5.8502 22.4506 5.96943 22.5 6.09375 22.5ZM6.5625 16.875H16.875V21.5625H6.5625V16.875Z" fill="#2A7D03"/>
<path d="M12.1875 11.7188H14.0625V12.6562H12.1875V11.7188Z" fill="#2A7D03"/>
<path d="M15 11.7188H24.375V12.6562H15V11.7188Z" fill="#2A7D03"/>
<path d="M12.1875 13.5938H19.6875V14.5312H12.1875V13.5938Z" fill="#2A7D03"/>
<path d="M20.625 13.5938H24.375V14.5312H20.625V13.5938Z" fill="#2A7D03"/>
<path d="M18.75 16.875H22.0312V17.8125H18.75V16.875Z" fill="#2A7D03"/>
<path d="M22.9688 16.875H24.375V17.8125H22.9688V16.875Z" fill="#2A7D03"/>
<path d="M18.75 18.75H24.375V19.6875H18.75V18.75Z" fill="#2A7D03"/>
<path d="M18.75 20.625H20.625V21.5625H18.75V20.625Z" fill="#2A7D03"/>
<path d="M21.5625 20.625H24.375V21.5625H21.5625V20.625Z" fill="#2A7D03"/>
</g>
<defs>
<clipPath id="clip0_1_3199">
<rect width="30" height="30" fill="white"/>
</clipPath>
</defs>
</svg>
