<svg width="20" height="20" viewBox="0 0 20 20" fill="none" xmlns="http://www.w3.org/2000/svg">
<g clip-path="url(#clip0_1_3847)">
<path d="M19.375 13.4376H19.0625V3.4376C19.062 2.94047 18.8643 2.46385 18.5128 2.11232C18.1613 1.7608 17.6846 1.5631 17.1875 1.5626H11.5312C11.4595 1.20939 11.2679 0.891828 10.9888 0.663733C10.7098 0.435639 10.3604 0.311035 10 0.311035C9.63958 0.311035 9.29024 0.435639 9.01117 0.663733C8.7321 0.891828 8.54047 1.20939 8.46875 1.5626H2.8125C2.31537 1.5631 1.83875 1.7608 1.48722 2.11232C1.1357 2.46385 0.937996 2.94047 0.9375 3.4376V13.4376H0.625C0.54212 13.4376 0.462634 13.4705 0.404029 13.5291C0.345424 13.5877 0.3125 13.6672 0.3125 13.7501V15.0001C0.312996 15.4143 0.477776 15.8115 0.770694 16.1044C1.06361 16.3973 1.46075 16.5621 1.875 16.5626H10.1641C10.0561 16.8634 10.0006 17.1805 10 17.5001V19.3751C10 19.458 10.0329 19.5375 10.0915 19.5961C10.1501 19.6547 10.2296 19.6876 10.3125 19.6876H17.8125C17.8954 19.6876 17.9749 19.6547 18.0335 19.5961C18.0921 19.5375 18.125 19.458 18.125 19.3751V17.5001C18.1244 17.1805 18.0689 16.8634 17.9609 16.5626H18.125C18.5392 16.5621 18.9364 16.3973 19.2293 16.1044C19.5222 15.8115 19.687 15.4143 19.6875 15.0001V13.7501C19.6875 13.6672 19.6546 13.5877 19.596 13.5291C19.5374 13.4705 19.4579 13.4376 19.375 13.4376ZM18.4375 3.4376V13.4376H16.4803C16.5341 13.2336 16.5617 13.0236 16.5625 12.8126H17.5C17.5829 12.8126 17.6624 12.7797 17.721 12.7211C17.7796 12.6625 17.8125 12.583 17.8125 12.5001V3.1251C17.8125 3.04222 17.7796 2.96274 17.721 2.90413C17.6624 2.84553 17.5829 2.8126 17.5 2.8126H11.2419C11.384 2.62864 11.4829 2.41502 11.5312 2.1876H17.1875C17.519 2.1876 17.837 2.3193 18.0714 2.55372C18.3058 2.78814 18.4375 3.10608 18.4375 3.4376ZM14.0625 14.6876C13.5654 14.6871 13.0887 14.4894 12.7372 14.1379C12.3857 13.7864 12.188 13.3097 12.1875 12.8126V12.1876C12.1875 11.6903 12.385 11.2134 12.7367 10.8618C13.0883 10.5101 13.5652 10.3126 14.0625 10.3126C14.5598 10.3126 15.0367 10.5101 15.3883 10.8618C15.74 11.2134 15.9375 11.6903 15.9375 12.1876V12.8126C15.937 13.3097 15.7393 13.7864 15.3878 14.1379C15.0363 14.4894 14.5596 14.6871 14.0625 14.6876ZM11.5625 12.1876H10.9375V8.1251H17.1875V12.1876H16.5625C16.5619 11.7489 16.4459 11.318 16.2261 10.9383C16.0063 10.5586 15.6905 10.2435 15.3103 10.0245C15.3103 10.0164 15.3125 10.0082 15.3125 10.0001C15.3125 9.66858 15.1808 9.35064 14.9464 9.11622C14.712 8.8818 14.394 8.7501 14.0625 8.7501C13.731 8.7501 13.413 8.8818 13.1786 9.11622C12.9442 9.35064 12.8125 9.66858 12.8125 10.0001C12.8125 10.0082 12.8144 10.0164 12.8147 10.0245C12.4345 10.2435 12.1187 10.5586 11.8989 10.9383C11.6791 11.318 11.5631 11.7489 11.5625 12.1876ZM10.3125 3.4376V12.1876H2.8125V3.4376H10.3125ZM17.1875 7.5001H16.2219C16.1673 7.1806 16.031 6.88066 15.8262 6.62942C15.6214 6.37819 15.3551 6.18421 15.0531 6.06635C15.2204 5.85059 15.3115 5.58558 15.3125 5.3126C15.3125 4.98108 15.1808 4.66314 14.9464 4.42872C14.712 4.1943 14.394 4.0626 14.0625 4.0626C13.731 4.0626 13.413 4.1943 13.1786 4.42872C12.9442 4.66314 12.8125 4.98108 12.8125 5.3126C12.8135 5.58558 12.9046 5.85059 13.0719 6.06635C12.7699 6.18421 12.5036 6.37819 12.2988 6.62942C12.094 6.88066 11.9577 7.1806 11.9031 7.5001H10.9375V3.4376H17.1875V7.5001ZM14.0625 5.9376C13.9389 5.9376 13.818 5.90095 13.7153 5.83227C13.6125 5.76359 13.5324 5.66598 13.4851 5.55178C13.4378 5.43757 13.4254 5.31191 13.4495 5.19067C13.4736 5.06943 13.5331 4.95807 13.6206 4.87066C13.708 4.78325 13.8193 4.72373 13.9406 4.69961C14.0618 4.6755 14.1875 4.68787 14.3017 4.73518C14.4159 4.78248 14.5135 4.86259 14.5822 4.96537C14.6508 5.06815 14.6875 5.18899 14.6875 5.3126C14.6875 5.47836 14.6217 5.63733 14.5044 5.75454C14.3872 5.87175 14.2283 5.9376 14.0625 5.9376ZM13.75 6.5626H14.375C14.6513 6.56364 14.9195 6.6562 15.1376 6.82582C15.3558 6.99544 15.5115 7.23256 15.5806 7.5001H12.5444C12.6135 7.23256 12.7692 6.99544 12.9874 6.82582C13.2055 6.6562 13.4737 6.56364 13.75 6.5626ZM14.6384 9.75729C14.2601 9.66437 13.8649 9.66437 13.4866 9.75729C13.5343 9.64398 13.6144 9.54728 13.7169 9.47929C13.8193 9.41129 13.9395 9.37502 14.0625 9.37502C14.1855 9.37502 14.3057 9.41129 14.4081 9.47929C14.5106 9.54728 14.5907 9.64398 14.6384 9.75729ZM10 0.937602C10.1854 0.937602 10.3667 0.992585 10.5208 1.0956C10.675 1.19861 10.7952 1.34503 10.8661 1.51634C10.9371 1.68764 10.9557 1.87614 10.9195 2.058C10.8833 2.23986 10.794 2.4069 10.6629 2.53801C10.5318 2.66913 10.3648 2.75841 10.1829 2.79459C10.001 2.83076 9.81254 2.8122 9.64123 2.74124C9.46993 2.67028 9.32351 2.55012 9.2205 2.39595C9.11748 2.24178 9.0625 2.06052 9.0625 1.8751C9.0625 1.62646 9.16127 1.388 9.33709 1.21219C9.5129 1.03637 9.75136 0.937602 10 0.937602ZM1.5625 3.4376C1.5625 3.10608 1.6942 2.78814 1.92862 2.55372C2.16304 2.3193 2.48098 2.1876 2.8125 2.1876H8.46875C8.51696 2.41499 8.61576 2.62861 8.75781 2.8126H2.5C2.41712 2.8126 2.33763 2.84553 2.27903 2.90413C2.22042 2.96274 2.1875 3.04222 2.1875 3.1251V12.5001C2.1875 12.583 2.22042 12.6625 2.27903 12.7211C2.33763 12.7797 2.41712 12.8126 2.5 12.8126H11.5625C11.5633 13.0236 11.5909 13.2336 11.6447 13.4376H1.5625V3.4376ZM1.875 15.9376C1.62636 15.9376 1.3879 15.8388 1.21209 15.663C1.03627 15.4872 0.9375 15.2487 0.9375 15.0001V14.0626H11.9006C12.0436 14.3091 12.2273 14.5295 12.4441 14.7145C12.0479 14.7669 11.6675 14.9032 11.3281 15.114C10.9887 15.3249 10.6981 15.6057 10.4756 15.9376H1.875ZM17.5 19.0626H16.5625V17.8126H15.9375V19.0626H12.1875V17.8126H11.5625V19.0626H10.625V17.5001C10.6257 16.9201 10.8563 16.3641 11.2664 15.954C11.6765 15.5439 12.2325 15.3133 12.8125 15.3126H15.3125C15.8925 15.3133 16.4485 15.5439 16.8586 15.954C17.2687 16.3641 17.4993 16.9201 17.5 17.5001V19.0626ZM19.0625 15.0001C19.0625 15.2487 18.9637 15.4872 18.7879 15.663C18.6121 15.8388 18.3736 15.9376 18.125 15.9376H17.6494C17.4269 15.6056 17.1362 15.3249 16.7967 15.114C16.4573 14.9031 16.0768 14.7669 15.6806 14.7145C15.8975 14.5295 16.0814 14.3091 16.2244 14.0626H19.0625V15.0001Z" fill="white"/>
<path d="M10.3125 1.5625H9.6875V2.1875H10.3125V1.5625Z" fill="white"/>
<path d="M3.75 11.5625H9.375C9.45788 11.5625 9.53737 11.5296 9.59597 11.471C9.65458 11.4124 9.6875 11.3329 9.6875 11.25V10C9.68672 9.4928 9.50997 9.00159 9.1874 8.61019C8.86484 8.21878 8.41645 7.95143 7.91875 7.85375C8.25167 7.50631 8.43752 7.0437 8.4375 6.5625V5.9375C8.4375 5.44022 8.23996 4.96331 7.88833 4.61167C7.53669 4.26004 7.05978 4.0625 6.5625 4.0625C6.06522 4.0625 5.58831 4.26004 5.23667 4.61167C4.88504 4.96331 4.6875 5.44022 4.6875 5.9375V6.5625C4.68748 7.0437 4.87333 7.50631 5.20625 7.85375C4.70855 7.95143 4.26016 8.21878 3.9376 8.61019C3.61503 9.00159 3.43828 9.4928 3.4375 10V11.25C3.4375 11.3329 3.47042 11.4124 3.52903 11.471C3.58763 11.5296 3.66712 11.5625 3.75 11.5625ZM7.1875 8.4375C7.1875 8.60326 7.12165 8.76223 7.00444 8.87944C6.88723 8.99665 6.72826 9.0625 6.5625 9.0625C6.39674 9.0625 6.23777 8.99665 6.12056 8.87944C6.00335 8.76223 5.9375 8.60326 5.9375 8.4375H7.1875ZM5.3125 5.9375C5.3125 5.60598 5.4442 5.28804 5.67862 5.05362C5.91304 4.8192 6.23098 4.6875 6.5625 4.6875C6.89402 4.6875 7.21196 4.8192 7.44638 5.05362C7.6808 5.28804 7.8125 5.60598 7.8125 5.9375V6.5625C7.8125 6.89402 7.6808 7.21196 7.44638 7.44638C7.21196 7.6808 6.89402 7.8125 6.5625 7.8125C6.23098 7.8125 5.91304 7.6808 5.67862 7.44638C5.4442 7.21196 5.3125 6.89402 5.3125 6.5625V5.9375ZM4.0625 10C4.06304 9.63948 4.18804 9.29021 4.41637 9.01121C4.64469 8.73221 4.96234 8.54059 5.31563 8.46875C5.32292 8.79461 5.45749 9.10466 5.69053 9.33254C5.92357 9.56042 6.23656 9.68802 6.5625 9.68802C6.88844 9.68802 7.20143 9.56042 7.43447 9.33254C7.66751 9.10466 7.80208 8.79461 7.80937 8.46875C8.16266 8.54059 8.48031 8.73221 8.70863 9.01121C8.93696 9.29021 9.06196 9.63948 9.0625 10V10.9375H8.4375V9.6875H7.8125V10.9375H5.3125V9.6875H4.6875V10.9375H4.0625V10Z" fill="white"/>
</g>
<defs>
<clipPath id="clip0_1_3847">
<rect width="20" height="20" fill="white"/>
</clipPath>
</defs>
</svg>
