<svg width="20" height="20" viewBox="0 0 20 20" fill="none" xmlns="http://www.w3.org/2000/svg">
<path d="M18.2422 2.38281H1.75781C0.789766 2.38281 0 3.15958 0 4.11358V15.652C0 16.6028 0.78625 17.3828 1.75781 17.3828H18.2422C19.2078 17.3828 20 16.6087 20 15.652V4.11358C20 3.16281 19.2138 2.38281 18.2422 2.38281ZM17.9995 3.53666L10.0373 11.3764L2.00621 3.53666H17.9995ZM1.17188 15.4131V4.347L6.81559 9.85624L1.17188 15.4131ZM2.00051 16.229L7.64777 10.6686L9.62656 12.6002C9.85563 12.8238 10.2253 12.8231 10.4534 12.5984L12.3828 10.6987L17.9995 16.229H2.00051ZM18.8281 15.4131L13.2114 9.88281L18.8281 4.3525V15.4131Z" fill="white"/>
</svg>
