<svg width="30" height="30" viewBox="0 0 30 30" fill="none" xmlns="http://www.w3.org/2000/svg">
<g clip-path="url(#clip0_1_3119)">
<path d="M26.4314 9.00363H25.3984V0.585993C25.3984 0.356364 25.2643 0.147888 25.0553 0.0527314C24.8464 -0.0424834 24.6011 -0.00679982 24.4279 0.143962L22.8761 1.49396C22.0662 2.19861 21.1911 2.85064 20.275 3.43195C16.7965 5.63965 12.7771 6.80654 8.65156 6.80654H5.79834C2.92373 6.80654 0.584961 9.13131 0.584961 11.9888C0.584961 14.8463 2.92367 17.1711 5.79834 17.1711H7.16545V29.4141C7.16545 29.7377 7.42783 30.0001 7.75139 30.0001H11.1123C12.2711 30.0001 13.214 29.0573 13.214 27.8985V25.4432H14.1015C15.2622 25.4432 16.2063 24.499 16.2063 23.3358C16.2063 22.1752 15.2622 21.231 14.1015 21.231H13.214V17.6544C15.7085 18.1898 18.0977 19.1638 20.275 20.5457C21.1912 21.1271 22.0662 21.7792 22.8761 22.4837L24.4279 23.8337C24.5366 23.9283 24.6738 23.9776 24.8125 23.9776C24.8947 23.9776 24.9775 23.9603 25.0553 23.9249C25.2642 23.8298 25.3984 23.6213 25.3984 23.3917V14.9741H26.4313C28.0763 14.9741 29.4145 13.6358 29.4145 11.9869C29.4146 10.3419 28.0763 9.00363 26.4314 9.00363ZM1.75689 11.9889C1.75689 9.77754 3.56984 7.97847 5.7984 7.97847H7.16551V15.9993H5.79834C3.56984 15.9993 1.75689 14.2002 1.75689 11.9889ZM14.1016 22.4029C14.616 22.4029 15.0345 22.8214 15.0345 23.3384C15.0345 23.8528 14.616 24.2713 14.1016 24.2713H13.214V22.4029H14.1016ZM12.0421 27.8985C12.0421 28.4111 11.6251 28.8282 11.1124 28.8282H8.33738V17.1711H8.65162C9.79303 17.1711 10.9262 17.2605 12.0421 17.4364V27.8985ZM24.2265 22.1053L23.6453 21.5995C22.8717 20.9266 22.042 20.2992 21.175 19.7316V14.9343C21.175 14.6108 20.9126 14.3484 20.589 14.3484C20.2655 14.3484 20.0031 14.6108 20.0031 14.9343V19.0137C16.5509 17.0385 12.6485 15.9993 8.65162 15.9993H8.33738V7.97847H8.65162C12.6486 7.97847 16.5509 6.9392 20.0031 4.96406V9.63673C20.0031 9.96035 20.2655 10.2227 20.589 10.2227C20.9126 10.2227 21.175 9.96035 21.175 9.63673V4.24617C22.0419 3.67857 22.8717 3.05121 23.6453 2.37814L24.2265 1.87248V22.1053ZM26.4314 13.8022H25.3984V10.1755H26.4314C27.4302 10.1755 28.2427 10.9881 28.2427 11.9909C28.2427 12.9896 27.4302 13.8022 26.4314 13.8022Z" fill="#2A7D03"/>
<path d="M21.1301 12.0722C21.0356 11.8456 20.804 11.698 20.5581 11.7113C20.3138 11.7245 20.1004 11.8927 20.0288 12.1261C19.9571 12.36 20.0441 12.6214 20.2404 12.7668C20.4315 12.9083 20.6962 12.9193 20.8984 12.7939C21.1387 12.6447 21.2388 12.3334 21.1301 12.0722Z" fill="#2A7D03"/>
</g>
<defs>
<clipPath id="clip0_1_3119">
<rect width="30" height="30" fill="white"/>
</clipPath>
</defs>
</svg>
