<svg width="65" height="65" viewBox="0 0 65 65" fill="none" xmlns="http://www.w3.org/2000/svg">
<path d="M63.9844 21.8725C63.9844 19.3324 61.9176 17.2656 59.3775 17.2656C58.1476 17.2656 56.9898 17.745 56.1204 18.6154L53.1101 21.6257L49.7656 24.9702V15.1531C53.2055 14.6575 55.8594 11.699 55.8594 8.125C55.8594 4.20469 52.6703 1.01562 48.75 1.01562H8.125C4.20469 1.01562 1.01562 4.20469 1.01562 8.125V58.9062C1.01562 59.4669 1.47063 59.9219 2.03125 59.9219H7.10938V62.9688C7.10938 63.5294 7.56437 63.9844 8.125 63.9844H48.75C49.3106 63.9844 49.7656 63.5294 49.7656 62.9688V37.9986L59.6243 28.1399L60.6673 27.0969C60.1413 29.7172 58.8585 32.1262 56.9268 34.059L52.0955 38.8903L53.5316 40.3264L58.3629 35.4951C61.2452 32.6127 62.857 28.8062 62.9515 24.7447C63.6086 23.9302 63.9844 22.9348 63.9844 21.8725ZM57.5565 20.0515C58.043 19.565 58.6899 19.2969 59.3775 19.2969C60.7973 19.2969 61.9531 20.4527 61.9531 21.8725C61.9531 22.5601 61.685 23.207 61.1985 23.6935L58.9062 25.9858L55.2642 22.3438L57.5565 20.0515ZM53.8281 23.7798L54.9311 24.8828L42.1484 37.6655L41.0455 36.5625L53.8281 23.7798ZM29.6735 50.5812L31.7627 46.4019L34.8481 49.4873L30.6688 51.5765L29.6735 50.5812ZM32.9205 44.6875L39.6094 37.9986L43.2514 41.6406L36.5625 48.3295L32.9205 44.6875ZM48.75 3.04688C51.5501 3.04688 53.8281 5.32492 53.8281 8.125C53.8281 10.9251 51.5501 13.2031 48.75 13.2031H13.0914C14.4117 11.9113 15.2344 10.1136 15.2344 8.125C15.2344 6.13641 14.4117 4.33875 13.0914 3.04688H48.75ZM9.14062 13.1005V10.1562C9.14062 9.59664 9.59664 9.14062 10.1562 9.14062H13.1005C12.6953 11.1272 11.1272 12.6953 9.14062 13.1005ZM3.04688 57.8906V8.125C3.04688 5.32492 5.32492 3.04688 8.125 3.04688C10.5767 3.04688 12.6283 4.79477 13.1005 7.10938H10.1562C8.47641 7.10938 7.10938 8.47641 7.10938 10.1562V57.8906H3.04688ZM47.7344 61.9531H9.14062V15.2344H47.7344V27.0014L43.2514 31.4844H13.2031V33.5156H41.2202L39.1889 35.5469H13.2031V37.5781H37.1577L30.7663 43.9695C30.6871 44.0487 30.6353 44.1431 30.5876 44.2386L30.5764 44.2325L27.5295 50.3262C27.3345 50.7173 27.4107 51.1895 27.7205 51.4983L28.017 51.7969L25.6882 54.1257L27.1243 55.5618L29.4531 53.233L29.7507 53.5305C29.9457 53.7255 30.2057 53.8281 30.4688 53.8281C30.6221 53.8281 30.7785 53.7926 30.9227 53.7215L37.0165 50.6746L37.0104 50.6634C37.1059 50.6157 37.2003 50.5639 37.2795 50.4847L45.4045 42.3597L47.7344 40.0298V61.9531ZM44.6875 40.2045L43.5845 39.1016L56.3672 26.3189L57.4702 27.4219L44.6875 40.2045Z" fill="#2A7D03"/>
<path d="M13.2031 19.2969H43.6719V21.3281H13.2031V19.2969Z" fill="#2A7D03"/>
<path d="M13.2031 23.3594H43.6719V25.3906H13.2031V23.3594Z" fill="#2A7D03"/>
<path d="M13.2031 27.4219H43.6719V29.4531H13.2031V27.4219Z" fill="#2A7D03"/>
<path d="M13.2031 51.7969H24.375V53.8281H13.2031V51.7969Z" fill="#2A7D03"/>
<path d="M13.2031 55.8594H43.6719V57.8906H13.2031V55.8594Z" fill="#2A7D03"/>
</svg>
