<svg width="65" height="65" viewBox="0 0 65 65" fill="none" xmlns="http://www.w3.org/2000/svg">
<g clip-path="url(#clip0_1_2797)">
<path d="M62.8324 30.0714L59.077 33.8269C58.839 34.065 58.7052 34.3879 58.7052 34.7246C58.7052 37.4138 57.658 39.942 55.7564 41.8435L35.6972 61.9028C34.9528 62.647 33.7417 62.6471 32.9974 61.9028C32.6368 61.5422 32.4381 61.0629 32.4381 60.5528C32.4381 60.1089 32.5889 59.6882 32.8657 59.349L44.4815 47.7332C44.9772 47.2375 44.9772 46.4336 44.4815 45.9378C44.4803 45.9365 44.4789 45.9356 44.4777 45.9343C44.4765 45.9331 44.4755 45.9318 44.4742 45.9305C43.9784 45.435 43.1746 45.435 42.6787 45.9305L28.6723 59.9515C28.3118 60.3122 27.8323 60.5107 27.3225 60.5107C26.8126 60.5107 26.3331 60.3121 25.9726 59.9515C25.2752 59.2542 25.2313 58.1474 25.8404 57.3983L39.9936 43.2451C40.4893 42.7493 40.4893 41.9455 39.9936 41.4496C39.4978 40.954 38.694 40.954 38.1981 41.4496L21.7223 57.9254C21.3618 58.286 20.8823 58.4846 20.3724 58.4846C19.8625 58.4846 19.3831 58.2859 19.0224 57.9254C18.6619 57.5648 18.4633 57.0854 18.4633 56.5755C18.4633 56.0655 18.6619 55.586 19.0224 55.2255L35.5096 38.7529C36.0054 38.2571 36.0054 37.4533 35.5096 36.9574C35.0137 36.4619 34.21 36.4619 33.7143 36.9574L18.9972 51.66C18.248 52.2687 17.1414 52.225 16.4442 51.5277C16.0835 51.1672 15.8849 50.6877 15.8849 50.1777C15.8849 49.6677 16.0836 49.1884 16.4442 48.8278L21.2611 44.0107C21.7569 43.515 21.7569 42.7111 21.261 42.2153C20.7652 41.7196 19.9614 41.7196 19.4656 42.2153L17.0015 44.6795L12.107 39.7849C9.02557 36.7035 6.81495 32.8463 5.71402 28.6302C5.65701 28.4119 5.54288 28.2128 5.38343 28.0532L2.16722 24.837C1.67134 24.3415 0.867608 24.3414 0.371859 24.837C-0.12389 25.3328 -0.124017 26.1366 0.371859 26.6325L3.3475 29.6081C4.59061 34.129 6.99369 38.2623 10.3115 41.5804L15.2061 46.475L14.6488 47.0323C13.8086 47.8724 13.3459 48.9894 13.3459 50.1776C13.3459 51.3657 13.8086 52.4828 14.6488 53.323C15.1777 53.8518 15.808 54.2185 16.4775 54.4248C16.1169 55.0757 15.9242 55.8105 15.9242 56.5754C15.9242 57.7635 16.3868 58.8806 17.2269 59.7206C18.0671 60.5608 19.1842 61.0235 20.3723 61.0235C21.3835 61.0235 22.3425 60.6873 23.1239 60.0696C23.3372 60.6826 23.6881 61.2579 24.177 61.7469C25.0171 62.5871 26.1342 63.0498 27.3223 63.0498C28.3669 63.0498 29.3564 62.6919 30.1511 62.0346C30.3691 62.6533 30.7243 63.2205 31.2019 63.6981C32.0691 64.5652 33.2081 64.9988 34.3471 64.9988C35.4863 64.9988 36.6253 64.5652 37.4925 63.6981L39.1167 62.0739L40.2526 63.2098C41.1198 64.0768 42.2588 64.5104 43.3978 64.5104C44.5368 64.5104 45.676 64.0768 46.5432 63.2098C47.2505 62.5024 47.6889 61.5985 47.8103 60.6213C48.0597 60.6639 48.3119 60.6864 48.5644 60.6864C49.7035 60.6864 50.8425 60.2529 51.7098 59.3858C52.5499 58.5457 53.0127 57.4286 53.0127 56.2405C53.0127 56.2236 53.0116 56.2069 53.0114 56.1901C53.0275 56.1902 53.0435 56.1912 53.0596 56.1912C54.1988 56.1912 55.3378 55.7577 56.205 54.8906C57.0452 54.0504 57.5078 52.9333 57.5078 51.7452C57.5078 51.5298 57.4922 51.3169 57.4622 51.1073C58.4716 51.0013 59.4071 50.5574 60.1347 49.8297C60.9749 48.9897 61.4376 47.8726 61.4376 46.6845C61.4376 45.4963 60.9749 44.3793 60.1347 43.5391L58.7918 42.1962C60.2778 40.1854 61.1276 37.7907 61.2328 35.2617L64.6277 31.867C65.1234 31.3712 65.1234 30.5674 64.6275 30.0716C64.132 29.5758 63.3282 29.5758 62.8324 30.0714ZM44.7481 61.4143C44.0036 62.1583 42.7925 62.1586 42.0482 61.4143L40.9244 60.2905L43.6243 57.5906L44.2673 58.2335L44.7483 58.7145C45.1087 59.0749 45.3073 59.5543 45.3073 60.0641C45.3072 60.5744 45.1085 61.0538 44.7481 61.4143ZM50.4737 56.2405C50.4737 56.7504 50.2752 57.2299 49.9145 57.5905C49.1702 58.3347 47.9591 58.3349 47.2146 57.5905L46.5438 56.9196C46.5437 56.9194 46.5435 56.9193 46.5433 56.9191L45.4195 55.7954L48.1193 53.0955L49.9144 54.8906C50.2752 55.2511 50.4737 55.7305 50.4737 56.2405ZM54.4098 53.0951C53.6653 53.8393 52.4541 53.8394 51.7099 53.0951L49.9148 51.3L52.6147 48.6001L54.4098 50.3952C54.7703 50.7557 54.9689 51.2351 54.9689 51.7451C54.969 52.2552 54.7703 52.7345 54.4098 53.0951ZM58.3396 48.0343C57.979 48.3949 57.4995 48.5935 56.9897 48.5935C56.4799 48.5935 56.0004 48.3949 55.6397 48.0343L54.4102 46.8047L57.1101 44.1048L58.3396 45.3344C58.7001 45.6949 58.8988 46.1743 58.8988 46.6844C58.8987 47.1943 58.7001 47.6737 58.3396 48.0343Z" fill="white"/>
<path d="M15.064 16.8607C15.302 17.0988 15.625 17.2326 15.9617 17.2326H22.514C27.2508 17.2326 31.8844 18.8771 35.5612 21.8634L45.8771 30.2414C43.3547 32.003 39.9675 32.2438 37.2037 30.7469L30.1844 26.946C29.8867 26.7847 29.5366 26.7491 29.2122 26.8473C24.7788 28.1886 20.0882 28.2009 15.6475 26.8821L15.5229 26.8453C14.8506 26.646 14.1442 27.0292 13.9449 27.7015C13.7456 28.3737 14.129 29.0802 14.8012 29.2795L14.9254 29.3163C19.6719 30.7256 24.6765 30.7621 29.4343 29.4271L31.2635 30.4177L27.542 34.1392C27.0463 34.635 27.0463 35.4388 27.5422 35.9347C27.7901 36.1825 28.115 36.3065 28.4398 36.3065C28.7647 36.3065 29.0897 36.1825 29.3375 35.9347L33.593 31.6791L35.9949 32.9798C37.5879 33.8424 39.3327 34.2838 41.1141 34.2838C41.6368 34.2838 42.1629 34.2457 42.689 34.1693C45.0078 33.8317 47.1091 32.7775 48.7661 31.1205C49.0202 30.8663 49.1547 30.5162 49.1361 30.1572C49.1175 29.7983 48.9477 29.4639 48.6686 29.2373L38.4226 20.9162C41.4776 19.0246 44.9676 18.0141 48.5801 17.9896C48.9137 17.9873 49.2332 17.8538 49.4691 17.6178L64.6283 2.45888C65.124 1.96313 65.124 1.15927 64.6283 0.663395C64.1324 0.167899 63.3286 0.167899 62.8328 0.663395L48.036 15.4603C43.8415 15.5875 39.8097 16.8926 36.3289 19.2476C32.3452 16.3042 27.4802 14.6935 22.5141 14.6935H16.4877L2.1673 0.373181C1.67155 -0.122441 0.867688 -0.122441 0.371812 0.373181C-0.123937 0.86893 -0.123937 1.67279 0.371812 2.16867L15.064 16.8607Z" fill="white"/>
<path d="M23.5016 38.1786C23.2654 38.4147 23.1309 38.7423 23.1309 39.0762C23.1309 39.4113 23.2654 39.7376 23.5016 39.9736C23.739 40.2097 24.0665 40.3457 24.4004 40.3457C24.7343 40.3457 25.0605 40.2099 25.2979 39.9736C25.5341 39.7376 25.6699 39.4112 25.6699 39.0762C25.6699 38.7423 25.5341 38.4147 25.2979 38.1786C25.0618 37.9425 24.7343 37.8066 24.4004 37.8066C24.0654 37.8066 23.739 37.9425 23.5016 38.1786Z" fill="white"/>
</g>
<defs>
<clipPath id="clip0_1_2797">
<rect width="65" height="65" fill="white"/>
</clipPath>
</defs>
</svg>
