<svg width="20" height="20" viewBox="0 0 20 20" fill="none" xmlns="http://www.w3.org/2000/svg">
<g id="phone-4 2" clip-path="url(#clip0_1_11983)">
<g id="Group">
<g id="Group_2">
<path id="Vector" d="M19.4743 15.2474L16.4283 12.2014C15.7285 11.5015 14.5897 11.5016 13.8899 12.2014L13.4876 12.6037C13.1767 12.9146 12.7635 13.0858 12.3238 13.0858C11.8841 13.0858 11.4708 12.9146 11.16 12.6037L7.39556 8.83924C7.08468 8.52836 6.91345 8.1151 6.91345 7.67543C6.91345 7.23575 7.08468 6.82249 7.39556 6.51161L7.7979 6.10927C8.49777 5.40947 8.49777 4.27071 7.7979 3.57092L4.75174 0.524901C4.05194 -0.174967 2.91319 -0.174967 2.21339 0.524901C-0.359921 3.09814 -0.733619 7.14413 1.3247 10.1453C3.62713 13.5024 6.49681 16.372 9.85385 18.6744C11.1507 19.5639 12.6423 19.9993 14.1263 19.9992C16.0764 19.9991 18.013 19.2471 19.4742 17.7858C19.8133 17.4468 20 16.9961 20 16.5166C20 16.0371 19.8133 15.5864 19.4743 15.2474ZM3.12721 1.43858C3.22213 1.34373 3.34834 1.29147 3.4826 1.29147C3.61686 1.29147 3.74308 1.34373 3.83799 1.43865L6.88401 4.48467C6.97892 4.57958 7.03119 4.7058 7.03119 4.84006C7.03119 4.97432 6.97892 5.10046 6.88401 5.19545L6.70273 5.37673L2.94995 1.62395C3.00774 1.56128 3.06654 1.49932 3.12721 1.43858ZM10.5848 17.6087C7.35952 15.3966 4.60255 12.6396 2.39044 9.41432C0.985249 7.36548 0.94849 4.72992 2.1701 2.67182L5.9068 6.40851C5.71991 6.79908 5.62097 7.22964 5.62097 7.67543C5.62097 8.4603 5.92661 9.19815 6.48159 9.75306L10.246 13.5175C10.801 14.0724 11.5388 14.3781 12.3236 14.3781C12.7694 14.3781 13.2 14.2792 13.5905 14.0923L17.3273 17.829C15.2693 19.0506 12.6337 19.014 10.5848 17.6087ZM18.5605 16.8719C18.4997 16.9327 18.4378 16.9915 18.3752 17.0492L14.6224 13.2964L14.8037 13.1151C14.8986 13.0202 15.0248 12.9679 15.1591 12.9679C15.2933 12.9679 15.4196 13.0202 15.5145 13.1151L18.5605 16.1611C18.7564 16.3571 18.7564 16.676 18.5605 16.8719Z" fill="white"/>
</g>
</g>
</g>
<defs>
<clipPath id="clip0_1_11983">
<rect width="20" height="20" fill="white"/>
</clipPath>
</defs>
</svg>
