<svg width="65" height="65" viewBox="0 0 65 65" fill="none" xmlns="http://www.w3.org/2000/svg">
<g clip-path="url(#clip0_1_2522)">
<path d="M63.0963 34.6557C63.0963 34.1302 63.5246 33.7055 64.05 33.7055C64.5755 33.7055 65 34.1303 65 34.6557V58.1334C65 58.6588 64.5753 59.087 64.05 59.087H26.3966C25.8676 59.087 25.4429 58.6588 25.4429 58.1334V57.0035H13.2361C12.7108 57.0035 12.2861 56.5787 12.2861 56.0534V55.4379H0.953799C0.42834 55.4379 0 55.0134 0 54.488V34.6557C0 34.1302 0.42834 33.7055 0.953799 33.7055C1.47913 33.7055 1.90379 34.1303 1.90379 34.6557V53.5342H12.2825V49.9463H6.07471C5.54925 49.9463 5.12472 49.5181 5.12472 48.9926C5.12472 48.4671 5.54937 48.0389 6.07471 48.0389H12.2825V44.4439H6.07471C5.54925 44.4439 5.12472 44.0191 5.12472 43.4937C5.12472 42.9683 5.54937 42.5401 6.07471 42.5401H12.2825V38.945H6.07471C5.54925 38.945 5.12472 38.5205 5.12472 37.9952C5.12472 37.466 5.54937 37.0415 6.07471 37.0415H12.2825V34.0331H6.07471C5.54925 34.0331 5.12472 33.6049 5.12472 33.0794V28.0843C5.12472 26.8031 5.64649 25.6373 6.49213 24.7952C7.16866 24.1185 8.05035 23.6472 9.03284 23.489C8.6045 22.7619 8.35631 21.92 8.35631 21.0201V16.8099C8.35631 15.9425 8.71254 15.1545 9.28116 14.5856C9.85334 14.0136 10.6415 13.6608 11.5088 13.6608H12.2825V11.4656H1.90379V30.3443C1.90379 30.8698 1.47913 31.2944 0.953799 31.2944C0.42834 31.2944 0 30.8697 0 30.3443V10.5121C0 9.98663 0.42834 9.56223 0.953799 9.56223H12.2861V8.94676C12.2861 8.4213 12.7108 7.99664 13.2361 7.99664H25.4431V6.86676C25.4431 6.3413 25.8677 5.91309 26.3967 5.91309H54.1644C54.4271 5.91309 54.6683 6.02125 54.841 6.19746L64.723 16.0792C64.9066 16.2629 65.0001 16.5077 65.0001 16.7522V30.3443C65.0001 30.8698 64.5755 31.2944 64.0501 31.2944C63.5247 31.2944 63.0965 30.8697 63.0965 30.3443V17.7023H54.1644C53.6391 17.7023 53.2108 17.2775 53.2108 16.7522V7.81675H27.3467V57.1831H63.0963V34.6557ZM12.2825 19.0157C12.2681 19.005 12.2536 18.9907 12.2393 18.9797C11.757 19.2354 11.0732 19.4907 10.26 19.4764V21.0201C10.26 21.8372 10.5983 22.5785 11.1344 23.1183C11.4547 23.4383 11.847 23.6869 12.2823 23.8344V19.0157H12.2825ZM10.26 17.5801C10.8033 17.6017 11.3252 17.4001 11.7319 17.0475C11.8902 16.9107 12.0881 16.835 12.2825 16.8206V15.5648H11.5088C11.1669 15.5648 10.8539 15.7051 10.6271 15.9318C10.4004 16.1587 10.26 16.4682 10.26 16.8101V17.5801ZM25.4431 18.0261C25.407 17.9972 25.3711 17.9686 25.335 17.9361C24.8168 18.2204 24.0538 18.5118 23.1397 18.4795V20.1996C23.1397 21.0958 23.5068 21.9091 24.097 22.4991C24.4677 22.8698 24.9283 23.1542 25.4429 23.3124V18.0261H25.4431ZM23.1397 16.5796C23.7372 16.6227 24.3777 16.3961 24.8239 16.0001C25.0039 15.8454 25.2234 15.7697 25.4429 15.7697V14.2907H24.5432C24.1582 14.2907 23.809 14.4492 23.5536 14.7046C23.2981 14.9603 23.1397 15.3094 23.1397 15.6944V16.5796ZM10.9618 25.3313H9.78136C9.02561 25.3313 8.33828 25.641 7.83809 26.1412C7.33789 26.6412 7.02838 27.3287 7.02838 28.0844V32.1293H8.61187V29.5094C8.61187 28.9839 9.04008 28.5595 9.56554 28.5595C10.091 28.5595 10.5157 28.984 10.5157 29.5094V32.1293H12.2826V25.803C11.8146 25.7093 11.3721 25.5511 10.9618 25.3313ZM25.4431 25.2704C24.9212 25.1731 24.4282 24.9969 23.9747 24.7522H22.6936C21.8659 24.7522 21.1103 25.0938 20.5632 25.6411C20.0162 26.1881 19.6779 26.9401 19.6779 27.7678V32.169H21.5097V29.2972C21.5097 28.7718 21.9343 28.3474 22.4633 28.3474C22.9887 28.3474 23.4133 28.7719 23.4133 29.2972V32.169H25.4431V25.2704ZM22.0026 22.8987C21.5168 22.1107 21.2361 21.1892 21.2361 20.1996V15.6943C21.2361 14.7838 21.6068 13.9562 22.2078 13.3586C22.8052 12.7579 23.6328 12.3872 24.5433 12.3872H25.4431V9.9003H14.1898V55.0996H25.4431V51.1193H18.7242C18.1987 51.1193 17.7742 50.6948 17.7742 50.1656C17.7742 49.6402 18.1989 49.2158 18.7242 49.2158H25.4431V45.2284H18.7242C18.1987 45.2284 17.7742 44.8002 17.7742 44.2748C17.7742 43.7493 18.1989 43.3246 18.7242 43.3246H25.4431V39.3373H18.7242C18.1987 39.3373 17.7742 38.9091 17.7742 38.3836C17.7742 37.8582 18.1989 37.4338 18.7242 37.4338H25.4431V34.0724H18.7242C18.1987 34.0724 17.7742 33.6479 17.7742 33.1226V27.7677C17.7742 26.4146 18.3248 25.1837 19.2173 24.295C19.955 23.5573 20.923 23.0499 22.0026 22.8987ZM44.3435 17.8354C43.1091 17.9938 41.191 17.9361 39.5751 16.5471C38.9994 16.8709 38.132 17.2094 37.092 17.1516V19.1129C37.092 20.1097 37.4987 21.0167 38.1573 21.6753C38.8159 22.334 39.7191 22.7406 40.716 22.7406C41.7129 22.7406 42.6198 22.334 43.2783 21.6753C43.9333 21.0167 44.3436 20.1097 44.3436 19.1129V17.8354H44.3435ZM37.092 15.2479C37.7866 15.3236 38.5423 15.0679 39.0641 14.6038C39.4599 14.2619 40.0611 14.3049 40.4028 14.701C41.6696 16.1548 43.4149 16.0936 44.3433 15.9245V14.2079C44.3433 13.7654 44.1598 13.3624 43.8683 13.0708C43.5768 12.7795 43.1737 12.5958 42.731 12.5958H38.7004C38.2578 12.5958 37.8583 12.7795 37.5631 13.0708C37.2717 13.3624 37.0918 13.7654 37.0918 14.2079V15.2479H37.092ZM46.2472 19.1129C46.2472 20.2178 45.9198 21.2505 45.3583 22.1142C46.5639 22.2583 47.6507 22.8088 48.4712 23.6295C49.4249 24.5832 50.0188 25.9001 50.0188 27.3504V33.1769C50.0188 33.7021 49.5904 34.1306 49.065 34.1306C43.5014 34.1306 37.9342 34.1306 32.3705 34.1306C31.8415 34.1306 31.4168 33.7021 31.4168 33.1769V27.3504C31.4168 25.9001 32.0106 24.5832 32.9643 23.6295C33.7848 22.8088 34.8679 22.2583 36.0772 22.1142C35.5122 21.2505 35.1847 20.2178 35.1847 19.1129V14.2078C35.1847 13.2398 35.5805 12.3618 36.2174 11.7247C36.8545 11.0877 37.7325 10.692 38.7005 10.692H42.7312C43.6992 10.692 44.5809 11.0877 45.2144 11.7247C45.8514 12.3618 46.2472 13.2398 46.2472 14.2078V19.1129ZM43.3286 23.9855C42.5513 24.4065 41.6623 24.6441 40.7159 24.6441C39.773 24.6441 38.8841 24.4066 38.1032 23.9855H36.6889C35.7641 23.9855 34.922 24.3634 34.3102 24.9754C33.6984 25.5833 33.3206 26.4254 33.3206 27.3503V32.2229H35.4834V29.0165C35.4834 28.4876 35.9081 28.0629 36.4371 28.0629C36.9624 28.0629 37.3871 28.4876 37.3871 29.0165V32.2229H44.0446V29.0165C44.0446 28.4876 44.4728 28.0629 44.9983 28.0629C45.5237 28.0629 45.9483 28.4876 45.9483 29.0165V32.2229H48.111V27.3503C48.111 26.4254 47.7332 25.5833 47.1213 24.9754C46.5132 24.3634 45.6711 23.9855 44.7462 23.9855H43.3286ZM32.3705 52.6814C31.8415 52.6814 31.4168 52.2568 31.4168 51.7277C31.4168 51.2022 31.8415 50.7778 32.3705 50.7778H51.6488C52.1743 50.7778 52.5988 51.2023 52.5988 51.7277C52.5988 52.2568 52.1742 52.6814 51.6488 52.6814H32.3705ZM32.3705 46.2684C31.8415 46.2684 31.4168 45.8439 31.4168 45.3186C31.4168 44.7894 31.8415 44.3649 32.3705 44.3649H58.0761C58.6014 44.3649 59.0261 44.7894 59.0261 45.3186C59.0261 45.844 58.6014 46.2684 58.0761 46.2684H32.3705ZM32.3705 39.8557C31.8415 39.8557 31.4168 39.4311 31.4168 38.9057C31.4168 38.3802 31.8415 37.952 32.3705 37.952H58.0761C58.6014 37.952 59.0261 38.3802 59.0261 38.9057C59.0261 39.4311 58.6014 39.8557 58.0761 39.8557H32.3705ZM61.7504 15.7984L55.1143 9.16258V15.7984H61.7504Z" fill="#2A7D03"/>
</g>
<defs>
<clipPath id="clip0_1_2522">
<rect width="65" height="65" fill="white"/>
</clipPath>
</defs>
</svg>
