<svg width="20" height="20" viewBox="0 0 20 20" fill="none" xmlns="http://www.w3.org/2000/svg">
<g id="reward 1" clip-path="url(#clip0_1_3792)">
<g id="Group">
<path id="Vector" d="M11.1841 5.20549L11.2169 5.13955L10.6578 4.85986L10.625 4.92611C10.5059 5.16424 10.2666 5.31236 10 5.31236H9.0625V5.93736H10C10.5047 5.93736 10.9584 5.65705 11.1841 5.20549Z" fill="white"/>
<path id="Vector_2" d="M19.0625 12.1875H14.6875V10.9375C14.6875 10.5928 14.4072 10.3125 14.0625 10.3125H14.0616C14.0522 8.79438 12.9619 7.50063 11.4862 7.22094L11.4031 6.97187C11.7828 6.75156 12.0653 6.38125 12.1556 5.9375H12.1875C12.8769 5.9375 13.4375 5.37687 13.4375 4.6875C13.4375 4.43281 13.36 4.19625 13.2288 3.99844L13.3616 3.46688C13.4119 3.26594 13.4375 3.05875 13.4375 2.85094C13.4375 1.45125 12.2987 0.3125 10.8991 0.3125H9.10094C7.70125 0.3125 6.5625 1.45125 6.5625 2.85094C6.5625 3.05875 6.58813 3.26594 6.63844 3.46656L6.77125 3.99812C6.64 4.19625 6.5625 4.43281 6.5625 4.6875C6.5625 5.37687 7.12313 5.9375 7.8125 5.9375H7.84406C7.93437 6.38094 8.21688 6.75125 8.59656 6.97187L8.51344 7.22094C7.03781 7.50063 5.9475 8.79469 5.93813 10.3125H5.9375C5.59281 10.3125 5.3125 10.5928 5.3125 10.9375V12.1875H0.9375C0.592812 12.1875 0.3125 12.4678 0.3125 12.8125V19.0625C0.3125 19.4072 0.592812 19.6875 0.9375 19.6875H19.0625C19.4072 19.6875 19.6875 19.4072 19.6875 19.0625V12.8125C19.6875 12.4678 19.4072 12.1875 19.0625 12.1875ZM19.0625 14.0309C18.4513 13.9062 17.9688 13.4237 17.8441 12.8125H19.0625V14.0309ZM5.9375 12.1875H7.1875V13.75C7.1875 15.3009 8.44938 16.5625 10 16.5625C11.5506 16.5625 12.8125 15.3009 12.8125 13.75V12.1875H14.0625V13.75C14.0625 15.99 12.24 17.8125 10 17.8125C7.76 17.8125 5.9375 15.99 5.9375 13.75V12.1875ZM12.1875 10.9375V13.75C12.1875 14.9559 11.2063 15.9375 10 15.9375C8.79375 15.9375 7.8125 14.9559 7.8125 13.75V10.9375H12.1875ZM10 8.48938L10.2903 8.66344L10.1106 9.0625H9.88937L9.70969 8.66375L10 8.48938ZM9.93156 9.6875H10.0684L10.2247 10.3125H9.77531L9.93156 9.6875ZM14.0625 10.9375V11.5625H12.8125V10.9375H14.0625ZM13.4366 10.3125H10.8691L10.6422 9.40438L10.83 8.9875L11.7097 9.51531L12.27 8.19594C12.9709 8.64812 13.4297 9.43281 13.4366 10.3125ZM11.7062 7.92469L11.4153 8.61L10.6491 8.15031L11.2987 7.82562C11.4387 7.8475 11.5753 7.88031 11.7062 7.92469ZM12.1875 5.3125V4.0625C12.5322 4.0625 12.8125 4.34281 12.8125 4.6875C12.8125 5.03219 12.5322 5.3125 12.1875 5.3125ZM7.1875 4.6875C7.1875 4.34281 7.46781 4.0625 7.8125 4.0625V5.3125C7.46781 5.3125 7.1875 5.03219 7.1875 4.6875ZM7.84375 3.4375H7.8125C7.63062 3.4375 7.45906 3.47844 7.30313 3.54844L7.24469 3.31469C7.20688 3.16375 7.1875 3.0075 7.1875 2.85094C7.1875 1.79594 8.04594 0.9375 9.10094 0.9375H10.8991C11.9541 0.9375 12.8125 1.79594 12.8125 2.85094C12.8125 3.0075 12.7931 3.16344 12.7553 3.315L12.6969 3.54844C12.5409 3.47844 12.3694 3.4375 12.1875 3.4375H11.89L10.0247 3.25094C9.47625 3.19594 9.0625 2.73875 9.0625 2.1875H8.4375C8.4375 2.32781 8.45438 2.46438 8.48656 2.595C8.15125 2.76906 7.92156 3.07844 7.84375 3.4375ZM8.4375 3.70438C8.4375 3.48031 8.55469 3.27719 8.74625 3.16531C9.02 3.55375 9.455 3.82187 9.96281 3.87281L11.5625 4.03281V5.625C11.5625 6.14187 11.1419 6.5625 10.625 6.5625H9.375C8.85812 6.5625 8.4375 6.14187 8.4375 5.625V3.70438ZM9.375 7.1875H10.625C10.6884 7.1875 10.7487 7.17625 10.8103 7.16875L10.8678 7.34156L10 7.77563L9.13219 7.34188L9.18969 7.16906C9.25125 7.17625 9.31156 7.1875 9.375 7.1875ZM8.70156 7.825L9.35125 8.14969L8.585 8.60938L8.29406 7.92406C8.42469 7.88031 8.56125 7.8475 8.70156 7.825ZM7.73 8.19594L8.29031 9.51531L9.17 8.9875L9.35781 9.40438L9.13094 10.3125H6.56344C6.57031 9.43281 7.02906 8.64812 7.73 8.19594ZM7.1875 10.9375V11.5625H5.9375V10.9375H7.1875ZM10 18.4375C12.5847 18.4375 14.6875 16.3347 14.6875 13.75V12.8125H15.2219C15.2769 13.1209 15.3125 13.4344 15.3125 13.75C15.3125 16.6794 12.9294 19.0625 10 19.0625C7.07063 19.0625 4.6875 16.6794 4.6875 13.75C4.6875 13.4344 4.72312 13.1209 4.77812 12.8125H5.3125V13.75C5.3125 16.3347 7.41531 18.4375 10 18.4375ZM2.15594 12.8125C2.03125 13.4237 1.54875 13.9062 0.9375 14.0309V12.8125H2.15594ZM0.9375 17.8441C1.54875 17.9688 2.03125 18.4513 2.15594 19.0625H0.9375V17.8441ZM2.7875 19.0625C2.64969 18.1066 1.89344 17.3503 0.9375 17.2125V14.6625C1.89344 14.5247 2.64969 13.7684 2.7875 12.8125H4.1375C4.08844 13.1216 4.0625 13.4353 4.0625 13.75C4.0625 16.0766 5.41094 18.0894 7.36438 19.0625H2.7875ZM15.9375 13.75C15.9375 13.4353 15.9116 13.1216 15.8625 12.8125H17.2125C17.3503 13.7684 18.1066 14.5247 19.0625 14.6625V17.2125C18.1066 17.3503 17.3503 18.1066 17.2125 19.0625H12.6356C14.5891 18.0894 15.9375 16.0766 15.9375 13.75ZM17.8441 19.0625C17.9688 18.4513 18.4513 17.9688 19.0625 17.8441V19.0625H17.8441Z" fill="white"/>
<path id="Vector_3" d="M2.8125 8.40594V9.0625H3.4375V8.4375H4.6875V6.875C4.6875 6.01344 3.98656 5.3125 3.125 5.3125C2.60812 5.3125 2.1875 4.89188 2.1875 4.375V3.4375H3.125C3.64188 3.4375 4.0625 3.85812 4.0625 4.375V5.3125H4.6875V4.375C4.6875 3.62063 4.14969 2.98937 3.4375 2.84406V2.1875H2.8125V2.8125H1.5625V4.375C1.5625 5.23656 2.26344 5.9375 3.125 5.9375C3.64188 5.9375 4.0625 6.35813 4.0625 6.875V7.8125H3.125C2.60812 7.8125 2.1875 7.39187 2.1875 6.875V5.9375H1.5625V6.875C1.5625 7.62937 2.10031 8.26062 2.8125 8.40594Z" fill="white"/>
<path id="Vector_4" d="M16.5625 8.40594V9.0625H17.1875V8.4375H18.4375V6.875C18.4375 6.01344 17.7366 5.3125 16.875 5.3125C16.3581 5.3125 15.9375 4.89188 15.9375 4.375V3.4375H16.875C17.3919 3.4375 17.8125 3.85812 17.8125 4.375V5.3125H18.4375V4.375C18.4375 3.62063 17.8997 2.98937 17.1875 2.84406V2.1875H16.5625V2.8125H15.3125V4.375C15.3125 5.23656 16.0134 5.9375 16.875 5.9375C17.3919 5.9375 17.8125 6.35813 17.8125 6.875V7.8125H16.875C16.3581 7.8125 15.9375 7.39187 15.9375 6.875V5.9375H15.3125V6.875C15.3125 7.62937 15.8503 8.26062 16.5625 8.40594Z" fill="white"/>
</g>
</g>
<defs>
<clipPath id="clip0_1_3792">
<rect width="20" height="20" fill="white"/>
</clipPath>
</defs>
</svg>
