<svg width="65" height="65" viewBox="0 0 65 65" fill="none" xmlns="http://www.w3.org/2000/svg">
<path d="M29.4531 19.2968H32.5C34.1402 19.2968 35.6149 18.3858 36.3482 16.9182L36.4548 16.7039L34.6379 15.7949L34.5313 16.0102C34.1443 16.7841 33.3663 17.2655 32.5 17.2655H29.4531V19.2968Z" fill="#2A7D03"/>
<path d="M29.4531 57.8906H35.5469V59.9219H29.4531V57.8906Z" fill="#2A7D03"/>
<path d="M29.4531 53.8281H35.5469V55.8594H29.4531V53.8281Z" fill="#2A7D03"/>
<path d="M29.4531 49.7656H35.5469V51.7969H29.4531V49.7656Z" fill="#2A7D03"/>
<path d="M61.9529 45.7031H57.2953L49.0971 37.505C55.0853 34.3393 60.1614 29.4877 63.5647 23.3614L64.1314 22.3438L63.5647 21.3261C58.9721 13.0599 51.1386 6.89609 42.0375 4.35703C40.5324 2.33391 38.1314 1.01562 35.4218 1.01562H29.5779C26.8682 1.01562 24.4672 2.33391 22.9621 4.35703C13.8611 6.89609 6.02754 13.0589 1.43488 21.3261L0.868164 22.3438L1.43488 23.3614C4.83824 29.4877 9.91434 34.3383 15.9025 37.505L7.70434 45.7031H3.04668C1.92645 45.7031 1.01543 46.6141 1.01543 47.7344V61.9531C1.01543 63.0734 1.92645 63.9844 3.04668 63.9844H13.2029C14.3232 63.9844 15.2342 63.0734 15.2342 61.9531V47.7344C15.2342 46.6141 14.3232 45.7031 13.2029 45.7031H10.5765L17.8311 38.4485C22.0683 40.3711 26.6965 41.469 31.4842 41.6061V45.7031H27.4217C26.3014 45.7031 25.3904 46.6141 25.3904 47.7344V61.9531C25.3904 63.0734 26.3014 63.9844 27.4217 63.9844H37.5779C38.6982 63.9844 39.6092 63.0734 39.6092 61.9531V47.7344C39.6092 46.6141 38.6982 45.7031 37.5779 45.7031H33.5154V41.6061C38.3031 41.469 42.9313 40.3711 47.1685 38.4485L54.4231 45.7031H51.7967C50.6764 45.7031 49.7654 46.6141 49.7654 47.7344V61.9531C49.7654 63.0734 50.6764 63.9844 51.7967 63.9844H61.9529C63.0732 63.9844 63.9842 63.0734 63.9842 61.9531V47.7344C63.9842 46.6141 63.0732 45.7031 61.9529 45.7031ZM13.205 61.9531H3.04668V47.7344H13.2029L13.205 61.9531ZM37.58 61.9531H27.4217V47.7344H37.5779L37.58 61.9531ZM61.7894 22.3123L61.8057 22.3438L61.7884 22.3752C57.9392 29.3028 51.8261 34.5038 44.6741 37.2978C49.0159 33.7563 51.7967 28.3705 51.7967 22.3438C51.7967 16.4694 49.1754 11.0307 44.6893 7.38359C51.8932 10.2121 58.0072 15.5055 61.7894 22.3123ZM25.3904 17.2656C24.2702 17.2656 23.3592 16.3546 23.3592 15.2344C23.3592 14.1141 24.2702 13.2031 25.3904 13.2031V17.2656ZM21.5747 11.2663L22.0064 12.9939C21.5798 13.6368 21.3279 14.4066 21.3279 15.2344C21.3279 17.4748 23.15 19.2969 25.3904 19.2969H25.493C25.7865 20.738 26.7046 21.9416 27.9386 22.6586L27.6441 23.5402C23.1022 24.9092 19.8675 28.857 19.3708 33.5288C16.7972 30.5124 15.2342 26.6104 15.2342 22.3438C15.2342 17.2047 17.4787 12.4384 21.332 9.17922C21.332 9.20766 21.3279 9.23609 21.3279 9.26555C21.3279 9.94094 21.4112 10.6143 21.5747 11.2663ZM39.6092 13.2031C40.7294 13.2031 41.6404 14.1141 41.6404 15.2344C41.6404 16.3546 40.7294 17.2656 39.6092 17.2656V13.2031ZM39.5066 19.2969H39.6092C41.8496 19.2969 43.6717 17.4748 43.6717 15.2344C43.6717 14.4066 43.4198 13.6368 42.9932 12.9939L43.4249 11.2673C43.5884 10.6143 43.6717 9.94094 43.6717 9.26555C43.6717 9.23609 43.6676 9.20766 43.6676 9.1782C47.5209 12.4373 49.7654 17.2037 49.7654 22.3438C49.7654 26.6104 48.2024 30.5124 45.6288 33.5288C45.1321 28.858 41.8964 24.9092 37.3555 23.5402L37.061 22.6586C38.295 21.9416 39.2131 20.738 39.5066 19.2969ZM30.4686 23.3594H34.5311C34.7372 23.3594 34.9332 23.3228 35.1333 23.2984L35.3202 23.8601L32.4998 25.2708L29.6794 23.8601L29.8663 23.2984C30.0664 23.3228 30.2624 23.3594 30.4686 23.3594ZM34.6093 26.4875L36.6608 25.4617C37.1118 25.5917 37.5485 25.7481 37.9669 25.938L37.0986 27.9815L34.6093 26.4875ZM28.3388 25.4617L30.3904 26.4875L27.9 27.9815L27.0317 25.938C27.4511 25.7481 27.8889 25.5917 28.3388 25.4617ZM25.2665 26.977L26.9423 30.9248L29.8023 29.2094L30.3954 30.5256L27.6065 38.8934C25.2686 38.2007 23.1388 37.0266 21.3279 35.4849V34.7821C21.3279 31.6225 22.8473 28.7655 25.2665 26.977ZM32.1403 29.4531L31.5563 28.1562L32.4998 27.5905L33.4433 28.1562L32.8593 29.4531H32.1403ZM35.1973 29.2094L38.0573 30.9248L39.7331 26.977C42.1523 28.7655 43.6717 31.6225 43.6717 34.7811V35.4839C41.8608 37.0256 39.7311 38.1997 37.3931 38.8923L34.6042 30.5246L35.1973 29.2094ZM37.5779 18.2812C37.5779 19.9611 36.2109 21.3281 34.5311 21.3281H30.4686C28.7887 21.3281 27.4217 19.9611 27.4217 18.2812V12.0392C27.4217 11.31 27.8025 10.6509 28.4241 10.2863C29.3148 11.5487 30.7286 12.4211 32.3789 12.5866L37.5779 13.1066V18.2812ZM29.5961 39.3453L32.2154 31.4844H32.7832L35.4035 39.3453C34.4579 39.5068 33.4911 39.6094 32.4998 39.6094C31.5086 39.6094 30.5417 39.5068 29.5961 39.3453ZM29.5779 3.04688H35.4218C38.8505 3.04688 41.6404 5.8368 41.6404 9.26555C41.6404 9.77437 41.5775 10.2822 41.4546 10.7737L41.2646 11.5324C40.7579 11.3049 40.2003 11.1719 39.6092 11.1719H38.6464L32.5811 10.5655C30.7976 10.3878 29.4529 8.90195 29.4529 7.10938H27.4217C27.4217 7.56539 27.4765 8.00922 27.5801 8.43375C26.4904 8.99844 25.7449 10.0039 25.492 11.1719H25.3904C24.7993 11.1719 24.2418 11.3049 23.7339 11.5324L23.544 10.7727C23.4221 10.2822 23.3592 9.77437 23.3592 9.26555C23.3592 5.8368 26.1491 3.04688 29.5779 3.04688ZM3.2102 22.3752L3.19395 22.3438L3.21121 22.3123C6.9934 15.5045 13.1085 10.2111 20.3143 7.38258C15.8253 11.0297 13.2029 16.4684 13.2029 22.3438C13.2029 28.3705 15.9837 33.7563 20.3245 37.2978C13.1725 34.5038 7.05941 29.3028 3.2102 22.3752ZM51.7967 61.9531V47.7344H61.9529L61.955 61.9531H51.7967Z" fill="#2A7D03"/>
<path d="M5.07812 57.8906H11.1719V59.9219H5.07812V57.8906Z" fill="#2A7D03"/>
<path d="M5.07812 53.8281H11.1719V55.8594H5.07812V53.8281Z" fill="#2A7D03"/>
<path d="M5.07812 49.7656H11.1719V51.7969H5.07812V49.7656Z" fill="#2A7D03"/>
<path d="M55.7022 56.2968L54.5464 55.141L53.1104 56.5771L56.0171 59.4839L60.7672 52.3603L59.0772 51.2329L55.7022 56.2968Z" fill="#2A7D03"/>
</svg>
