<svg width="65" height="65" viewBox="0 0 65 65" fill="none" xmlns="http://www.w3.org/2000/svg">
<path d="M54.8438 2.03125H10.1562C9.88689 2.03125 9.62856 2.13825 9.43809 2.32872C9.24763 2.51919 9.14062 2.77751 9.14062 3.04688V61.9531C9.14062 62.2225 9.24763 62.4808 9.43809 62.6713C9.62856 62.8617 9.88689 62.9688 10.1562 62.9688H48.75C49.0193 62.9687 49.2776 62.8617 49.468 62.6712L55.5618 56.5774C55.7523 56.387 55.8593 56.1287 55.8594 55.8594V3.04688C55.8594 2.77751 55.7524 2.51919 55.5619 2.32872C55.3714 2.13825 55.1131 2.03125 54.8438 2.03125ZM11.1719 4.0625H53.8281V54.8438H48.75C48.4806 54.8438 48.2223 54.9508 48.0318 55.1412C47.8414 55.3317 47.7344 55.59 47.7344 55.8594V60.9375H11.1719V4.0625ZM52.392 56.875L49.7656 59.5014V56.875H52.392Z" fill="#2A7D03"/>
<path d="M14.2188 28.4375H20.3125V30.4688H14.2188V28.4375Z" fill="#2A7D03"/>
<path d="M30.4688 28.4375H50.7812V30.4688H30.4688V28.4375Z" fill="#2A7D03"/>
<path d="M26.4062 28.4375H28.4375V30.4688H26.4062V28.4375Z" fill="#2A7D03"/>
<path d="M14.2188 24.375H20.3125V26.4062H14.2188V24.375Z" fill="#2A7D03"/>
<path d="M26.4062 24.375H46.7188V26.4062H26.4062V24.375Z" fill="#2A7D03"/>
<path d="M48.75 24.375H50.7812V26.4062H48.75V24.375Z" fill="#2A7D03"/>
<path d="M14.2188 36.5625H20.3125V38.5938H14.2188V36.5625Z" fill="#2A7D03"/>
<path d="M30.4688 36.5625H50.7812V38.5938H30.4688V36.5625Z" fill="#2A7D03"/>
<path d="M26.4062 36.5625H28.4375V38.5938H26.4062V36.5625Z" fill="#2A7D03"/>
<path d="M14.2188 32.5H20.3125V34.5312H14.2188V32.5Z" fill="#2A7D03"/>
<path d="M26.4062 32.5H46.7188V34.5312H26.4062V32.5Z" fill="#2A7D03"/>
<path d="M48.75 32.5H50.7812V34.5312H48.75V32.5Z" fill="#2A7D03"/>
<path d="M14.2188 44.6875H20.3125V46.7188H14.2188V44.6875Z" fill="#2A7D03"/>
<path d="M30.4688 44.6875H50.7812V46.7188H30.4688V44.6875Z" fill="#2A7D03"/>
<path d="M26.4062 44.6875H28.4375V46.7188H26.4062V44.6875Z" fill="#2A7D03"/>
<path d="M14.2188 40.625H20.3125V42.6562H14.2188V40.625Z" fill="#2A7D03"/>
<path d="M26.4062 40.625H46.7188V42.6562H26.4062V40.625Z" fill="#2A7D03"/>
<path d="M48.75 40.625H50.7812V42.6562H48.75V40.625Z" fill="#2A7D03"/>
<path d="M13.2031 18.2812H51.7969V20.3125H13.2031V18.2812Z" fill="#2A7D03"/>
<path d="M18.2812 16.25C19.2856 16.25 20.2674 15.9522 21.1025 15.3942C21.9376 14.8362 22.5885 14.0431 22.9728 13.1152C23.3572 12.1873 23.4577 11.1662 23.2618 10.1812C23.0659 9.19612 22.5822 8.29129 21.872 7.5811C21.1618 6.87091 20.257 6.38727 19.2719 6.19133C18.2869 5.99539 17.2658 6.09595 16.3379 6.4803C15.41 6.86465 14.6169 7.51553 14.0589 8.35062C13.501 9.18572 13.2031 10.1675 13.2031 11.1719C13.2047 12.5182 13.7403 13.8089 14.6923 14.7609C15.6442 15.7129 16.9349 16.2484 18.2812 16.25ZM18.2812 8.125C18.8839 8.125 19.4729 8.3037 19.974 8.63849C20.4751 8.97329 20.8656 9.44915 21.0962 10.0059C21.3268 10.5626 21.3871 11.1753 21.2696 11.7663C21.152 12.3573 20.8618 12.9002 20.4357 13.3263C20.0096 13.7525 19.4667 14.0426 18.8757 14.1602C18.2846 14.2778 17.672 14.2174 17.1153 13.9868C16.5585 13.7562 16.0827 13.3657 15.7479 12.8646C15.4131 12.3636 15.2344 11.7745 15.2344 11.1719C15.2344 10.3638 15.5554 9.58881 16.1268 9.01741C16.6982 8.44601 17.4732 8.125 18.2812 8.125Z" fill="#2A7D03"/>
<path d="M25.3906 6.09375H35.5469V8.125H25.3906V6.09375Z" fill="#2A7D03"/>
<path d="M25.3906 10.1562H31.4844V12.1875H25.3906V10.1562Z" fill="#2A7D03"/>
<path d="M37.5781 6.09375H51.7969V8.125H37.5781V6.09375Z" fill="#2A7D03"/>
<path d="M33.5156 10.1562H51.7969V12.1875H33.5156V10.1562Z" fill="#2A7D03"/>
<path d="M25.3906 14.2188H39.6094V16.25H25.3906V14.2188Z" fill="#2A7D03"/>
<path d="M41.6406 14.2188H43.6719V16.25H41.6406V14.2188Z" fill="#2A7D03"/>
<path d="M13.2031 50.7812V58.9062H39.6094V50.7812H13.2031ZM37.5781 56.875H15.2344V52.8125H37.5781V56.875Z" fill="#2A7D03"/>
</svg>
