<svg width="65" height="65" viewBox="0 0 65 65" fill="none" xmlns="http://www.w3.org/2000/svg">
<path d="M63.6866 31.7817L33.2178 1.31299C33.0274 1.12259 32.7691 1.01562 32.4998 1.01562C32.2305 1.01562 31.9722 1.12259 31.7817 1.31299L1.31299 31.7817C1.17099 31.9238 1.0743 32.1047 1.03513 32.3017C0.995958 32.4987 1.01607 32.7029 1.09292 32.8884C1.16978 33.074 1.29992 33.2326 1.4669 33.3442C1.63387 33.4558 1.83019 33.5154 2.03103 33.5154H7.10916V57.8904H6.09353C5.82417 57.8904 5.56585 57.9974 5.37538 58.1879C5.18491 58.3783 5.07791 58.6367 5.07791 58.906V62.9685C5.07791 63.2379 5.18491 63.4962 5.37538 63.6867C5.56585 63.8772 5.82417 63.9842 6.09353 63.9842H58.906C59.1754 63.9842 59.4337 63.8772 59.6242 63.6867C59.8147 63.4962 59.9217 63.2379 59.9217 62.9685V58.906C59.9217 58.6367 59.8147 58.3783 59.6242 58.1879C59.4337 57.9974 59.1754 57.8904 58.906 57.8904H57.8904V33.5154H62.9685C63.1694 33.5154 63.3657 33.4558 63.5327 33.3442C63.6996 33.2326 63.8298 33.074 63.9066 32.8884C63.9835 32.7029 64.0036 32.4987 63.9644 32.3017C63.9253 32.1047 63.8286 31.9238 63.6866 31.7817ZM57.8904 61.9529H7.10916V59.9217H57.8904V61.9529ZM27.4217 57.8904H15.2342V39.6092H27.4217V57.8904ZM29.4529 57.8904V38.5935C29.4529 38.3242 29.3459 38.0658 29.1554 37.8754C28.965 37.6849 28.7066 37.5779 28.4373 37.5779H14.2185C13.9492 37.5779 13.6908 37.6849 13.5004 37.8754C13.3099 38.0658 13.2029 38.3242 13.2029 38.5935V57.8904H9.14041V32.9203L32.4998 9.56088L55.8592 32.9203V57.8904H29.4529ZM57.2953 31.4842L33.2178 7.40674C33.0274 7.21634 32.7691 7.10938 32.4998 7.10938C32.2305 7.10938 31.9722 7.21634 31.7817 7.40674L7.70431 31.4842H4.48275L32.4998 3.46713L60.5168 31.4842H57.2953Z" fill="white"/>
<path d="M39.6094 26.4063C39.6094 25.0002 39.1924 23.6256 38.4112 22.4565C37.63 21.2874 36.5197 20.3761 35.2206 19.838C33.9216 19.3 32.4921 19.1592 31.113 19.4335C29.7339 19.7078 28.4672 20.3849 27.4729 21.3792C26.4787 22.3734 25.8015 23.6402 25.5272 25.0193C25.2529 26.3984 25.3937 27.8278 25.9318 29.1269C26.4699 30.426 27.3811 31.5363 28.5502 32.3175C29.7194 33.0987 31.0939 33.5156 32.5 33.5156C34.3849 33.5135 36.1919 32.7638 37.5247 31.431C38.8575 30.0982 39.6072 28.2911 39.6094 26.4063ZM27.4219 26.4063C27.4219 25.4019 27.7197 24.4201 28.2777 23.585C28.8357 22.7499 29.6288 22.099 30.5567 21.7147C31.4846 21.3303 32.5056 21.2298 33.4907 21.4257C34.4758 21.6216 35.3806 22.1053 36.0908 22.8155C36.801 23.5257 37.2846 24.4305 37.4806 25.4156C37.6765 26.4006 37.5759 27.4217 37.1916 28.3496C36.8072 29.2775 36.1564 30.0706 35.3213 30.6286C34.4862 31.1866 33.5044 31.4844 32.5 31.4844C31.1537 31.4828 29.863 30.9472 28.911 29.9953C27.959 29.0433 27.4235 27.7526 27.4219 26.4063Z" fill="white"/>
<path d="M52.8125 37.5781H32.5C32.2306 37.5781 31.9723 37.6851 31.7818 37.8756C31.5914 38.0661 31.4844 38.3244 31.4844 38.5938V52.8125C31.4844 53.0819 31.5914 53.3402 31.7818 53.5307C31.9723 53.7211 32.2306 53.8281 32.5 53.8281H52.8125C53.0819 53.8281 53.3402 53.7211 53.5307 53.5307C53.7211 53.3402 53.8281 53.0819 53.8281 52.8125V38.5938C53.8281 38.3244 53.7211 38.0661 53.5307 37.8756C53.3402 37.6851 53.0819 37.5781 52.8125 37.5781ZM51.7969 44.6875H43.6719V39.6094H51.7969V44.6875ZM41.6406 39.6094V44.6875H33.5156V39.6094H41.6406ZM33.5156 46.7188H41.6406V51.7969H33.5156V46.7188ZM43.6719 51.7969V46.7188H51.7969V51.7969H43.6719Z" fill="white"/>
<path d="M19.2969 45.7031H17.2656V49.7656H19.2969V45.7031Z" fill="white"/>
</svg>
