<svg width="30" height="30" viewBox="0 0 30 30" fill="none" xmlns="http://www.w3.org/2000/svg">
<g clip-path="url(#clip0_1_3185)">
<path d="M28.5938 0.9375H14.5312C14.2725 0.9375 14.0625 1.14703 14.0625 1.40625V9.04547L12.6361 7.38094C12.1903 6.86109 11.5416 6.5625 10.8562 6.5625H9.11484C9.47156 6.16547 9.71531 5.68031 9.80437 5.15625H10.3125C10.4752 5.15625 10.6256 5.07187 10.7114 4.93359C10.7972 4.79531 10.8047 4.62281 10.732 4.4775L9.84375 2.70187V2.34375C9.84375 1.56844 9.21281 0.9375 8.4375 0.9375H5.625C4.84969 0.9375 4.21875 1.56844 4.21875 2.34375V4.58672C4.21875 5.34094 4.50469 6.03844 4.97062 6.5625H4.21875C2.92641 6.5625 1.875 7.61391 1.875 8.90625V13.125C1.875 13.6547 2.05828 14.1384 2.35594 14.5312H1.40625C1.1475 14.5312 0.9375 14.7408 0.9375 15V16.875C0.9375 17.1342 1.1475 17.3438 1.40625 17.3438H1.875V19.2188H2.8125V17.3438H16.875V18.2812H17.8125V17.3438H28.5938C28.8525 17.3438 29.0625 17.1342 29.0625 16.875V1.40625C29.0625 1.14703 28.8525 0.9375 28.5938 0.9375ZM5.15625 2.34375C5.15625 2.085 5.36672 1.875 5.625 1.875H8.4375C8.69578 1.875 8.90625 2.085 8.90625 2.34375V2.8125C8.90625 2.88516 8.92312 2.95734 8.95547 3.02203L9.55406 4.21875H9.375C9.11625 4.21875 8.90625 4.42828 8.90625 4.6875C8.90625 5.21484 8.68219 5.72016 8.29219 6.07547C7.89656 6.43547 7.38 6.60469 6.84562 6.55406C5.89828 6.46313 5.15625 5.59922 5.15625 4.58672V2.34375ZM7.67906 7.5L7.03125 8.79562L6.38344 7.5H7.67906ZM2.8125 13.125V8.90625C2.8125 8.13094 3.44344 7.5 4.21875 7.5H5.33531L6.61219 10.0533C6.69141 10.2122 6.85359 10.3125 7.03125 10.3125C7.20891 10.3125 7.37109 10.2122 7.45078 10.0533L8.72719 7.5H10.8562C11.2673 7.5 11.6569 7.67906 11.9241 7.99078L14.1755 10.6177C14.2603 10.717 14.3827 10.7761 14.5134 10.7812C14.6447 10.7902 14.7703 10.7362 14.8631 10.6444L17.3438 8.16281L18.5559 9.375L15.5259 12.4055C14.9775 12.953 14.0855 12.953 13.537 12.4055L12.0506 10.9186C11.9161 10.7841 11.715 10.7433 11.5397 10.8169C11.3644 10.8891 11.25 11.0606 11.25 11.25V14.5312H8.90625V13.125C8.90625 12.3497 8.27531 11.7188 7.5 11.7188H5.625V10.7812H4.6875V12.1875C4.6875 12.4467 4.8975 12.6562 5.15625 12.6562H7.5C7.75828 12.6562 7.96875 12.8663 7.96875 13.125V14.5312H4.21875C3.44344 14.5312 2.8125 13.9003 2.8125 13.125ZM12.1875 14.5312V12.3816L12.8738 13.0683C13.2113 13.4053 13.6266 13.6163 14.0625 13.7044V14.5312H12.1875ZM17.8125 16.4062H1.875V15.4688H17.8125V16.4062ZM28.125 16.4062H18.75V15C18.75 14.7408 18.54 14.5312 18.2812 14.5312H15V13.7044C15.4359 13.6163 15.8512 13.4053 16.1887 13.0683L19.5502 9.70641C19.7334 9.52313 19.7334 9.22687 19.5502 9.04359L18.4753 7.96875L20.9564 5.48766L20.2936 4.82484L17.8125 7.30594L17.6752 7.16859C17.4919 6.98531 17.1956 6.98531 17.0123 7.16859L15 9.18094V1.875H28.125V16.4062Z" fill="#2A7D03"/>
<path d="M20.625 3.8052L23.228 5.10645C23.2936 5.13973 23.3658 5.15613 23.4375 5.15613C23.5093 5.15613 23.5814 5.13973 23.6471 5.10691L26.4596 3.70066L26.04 2.86207L23.4375 4.16332L20.8346 2.86207C20.7029 2.79598 20.5472 2.79598 20.415 2.86207L17.6025 4.26832L18.0221 5.10691L20.625 3.8052Z" fill="#2A7D03"/>
<path d="M21.0938 7.96875H26.7188V8.90625H21.0938V7.96875Z" fill="#2A7D03"/>
<path d="M21.0938 9.84375H26.7188V10.7812H21.0938V9.84375Z" fill="#2A7D03"/>
<path d="M21.0938 11.7188H26.7188V12.6562H21.0938V11.7188Z" fill="#2A7D03"/>
<path d="M21.0938 13.5938H26.7188V14.5312H21.0938V13.5938Z" fill="#2A7D03"/>
<path d="M2.34375 25.7812V28.5938C2.34375 28.853 2.55375 29.0625 2.8125 29.0625H7.5C7.75875 29.0625 7.96875 28.853 7.96875 28.5938V25.7812C7.96875 24.765 7.42547 23.8758 6.61547 23.3817C7.15031 22.9519 7.5 22.3003 7.5 21.5625C7.5 20.2702 6.44859 19.2188 5.15625 19.2188C3.86391 19.2188 2.8125 20.2702 2.8125 21.5625C2.8125 22.3003 3.16219 22.9519 3.69703 23.3817C2.88703 23.8758 2.34375 24.765 2.34375 25.7812ZM3.75 21.5625C3.75 20.7872 4.38094 20.1562 5.15625 20.1562C5.93156 20.1562 6.5625 20.7872 6.5625 21.5625C6.5625 22.3378 5.93156 22.9688 5.15625 22.9688C4.38094 22.9688 3.75 22.3378 3.75 21.5625ZM3.28125 25.7812C3.28125 24.7472 4.12219 23.9062 5.15625 23.9062C6.19031 23.9062 7.03125 24.7472 7.03125 25.7812V28.125H3.28125V25.7812Z" fill="#2A7D03"/>
<path d="M8.90625 25.7812V28.5938C8.90625 28.853 9.11625 29.0625 9.375 29.0625H14.0625C14.3212 29.0625 14.5312 28.853 14.5312 28.5938V25.7812C14.5312 24.765 13.988 23.8758 13.178 23.3817C13.7128 22.9519 14.0625 22.3003 14.0625 21.5625C14.0625 20.2702 13.0111 19.2188 11.7188 19.2188C10.4264 19.2188 9.375 20.2702 9.375 21.5625C9.375 22.3003 9.72469 22.9519 10.2595 23.3817C9.44953 23.8758 8.90625 24.765 8.90625 25.7812ZM10.3125 21.5625C10.3125 20.7872 10.9434 20.1562 11.7188 20.1562C12.4941 20.1562 13.125 20.7872 13.125 21.5625C13.125 22.3378 12.4941 22.9688 11.7188 22.9688C10.9434 22.9688 10.3125 22.3378 10.3125 21.5625ZM9.84375 25.7812C9.84375 24.7472 10.6847 23.9062 11.7188 23.9062C12.7528 23.9062 13.5938 24.7472 13.5938 25.7812V28.125H9.84375V25.7812Z" fill="#2A7D03"/>
<path d="M15.4688 25.7812V28.5938C15.4688 28.853 15.6788 29.0625 15.9375 29.0625H20.625C20.8837 29.0625 21.0938 28.853 21.0938 28.5938V25.7812C21.0938 24.765 20.5505 23.8758 19.7405 23.3817C20.2753 22.9519 20.625 22.3003 20.625 21.5625C20.625 20.2702 19.5736 19.2188 18.2812 19.2188C16.9889 19.2188 15.9375 20.2702 15.9375 21.5625C15.9375 22.3003 16.2872 22.9519 16.822 23.3817C16.012 23.8758 15.4688 24.765 15.4688 25.7812ZM16.875 21.5625C16.875 20.7872 17.5059 20.1562 18.2812 20.1562C19.0566 20.1562 19.6875 20.7872 19.6875 21.5625C19.6875 22.3378 19.0566 22.9688 18.2812 22.9688C17.5059 22.9688 16.875 22.3378 16.875 21.5625ZM16.4062 25.7812C16.4062 24.7472 17.2472 23.9062 18.2812 23.9062C19.3153 23.9062 20.1562 24.7472 20.1562 25.7812V28.125H16.4062V25.7812Z" fill="#2A7D03"/>
<path d="M22.0312 25.7812V28.5938C22.0312 28.853 22.2413 29.0625 22.5 29.0625H27.1875C27.4462 29.0625 27.6562 28.853 27.6562 28.5938V25.7812C27.6562 24.765 27.113 23.8758 26.303 23.3817C26.8378 22.9519 27.1875 22.3003 27.1875 21.5625C27.1875 20.2702 26.1361 19.2188 24.8438 19.2188C23.5514 19.2188 22.5 20.2702 22.5 21.5625C22.5 22.3003 22.8497 22.9519 23.3845 23.3817C22.5745 23.8758 22.0312 24.765 22.0312 25.7812ZM23.4375 21.5625C23.4375 20.7872 24.0684 20.1562 24.8438 20.1562C25.6191 20.1562 26.25 20.7872 26.25 21.5625C26.25 22.3378 25.6191 22.9688 24.8438 22.9688C24.0684 22.9688 23.4375 22.3378 23.4375 21.5625ZM22.9688 25.7812C22.9688 24.7472 23.8097 23.9062 24.8438 23.9062C25.8778 23.9062 26.7188 24.7472 26.7188 25.7812V28.125H22.9688V25.7812Z" fill="#2A7D03"/>
</g>
<defs>
<clipPath id="clip0_1_3185">
<rect width="30" height="30" fill="white"/>
</clipPath>
</defs>
</svg>
