<svg width="30" height="30" viewBox="0 0 30 30" fill="none" xmlns="http://www.w3.org/2000/svg">
<g clip-path="url(#clip0_1_1114)">
<path d="M15 30.0001C23.2843 30.0001 30.0001 23.2843 30.0001 15C30.0001 6.71574 23.2843 0 15 0C6.71574 0 0 6.71574 0 15C0 23.2843 6.71574 30.0001 15 30.0001Z" fill="#D42428"/>
<path d="M25.6062 4.39185C31.4641 10.2502 31.4646 19.7481 25.6062 25.6065C19.7483 31.4643 10.25 31.4646 4.3916 25.6065L25.6062 4.39185Z" fill="#CC202D"/>
<path d="M29.6988 18.0041L22.2748 10.5803L13.5189 11.5772L8.22266 19.7767L18.1192 29.6729C23.9377 28.442 28.5121 23.8395 29.6988 18.0041Z" fill="#BA202E"/>
<path d="M22.8493 12.1055C22.8493 10.8481 21.8306 9.82886 20.5738 9.82886H9.89806C8.64155 9.82886 7.62305 10.8483 7.62305 12.1055V18.2105C7.62305 19.4679 8.64174 20.4871 9.89806 20.4871H20.5736C21.8306 20.4871 22.8491 19.4677 22.8491 18.2105V12.1055H22.8493ZM13.713 17.7334V11.9994L18.0615 14.8666L13.713 17.7334Z" fill="white"/>
</g>
<defs>
<clipPath id="clip0_1_1114">
<rect width="30" height="30" fill="white"/>
</clipPath>
</defs>
</svg>
